<svg width="12" height="14" viewBox="0 0 12 14" fill="none" xmlns="http://www.w3.org/2000/svg">
    <path fill-rule="evenodd" clip-rule="evenodd"
        d="M8.48485 3.18182C8.48485 4.93909 7.0603 6.36364 5.30303 6.36364C3.54576 6.36364 2.12121 4.93909 2.12121 3.18182C2.12121 1.42455 3.54576 0 5.30303 0C7.0603 0 8.48485 1.42455 8.48485 3.18182ZM8.88315 8.16965C7.93976 7.15238 6.68294 6.36364 5.30303 6.36364C2.37425 6.36364 0 9.91672 0 11.6667C0 13.4166 5.25 13.4166 5.25 13.4166C5.25 13.4166 5.97394 13.4166 6.88951 13.3297C7.39444 13.7483 8.04283 14 8.75 14C10.3608 14 11.6667 12.6942 11.6667 11.0833C11.6667 9.51713 10.4322 8.23925 8.88315 8.16965ZM8.75057 13.4165C10.0392 13.4165 11.0839 12.3719 11.0839 11.0832C11.0839 9.79453 10.0392 8.74986 8.75057 8.74986C7.46191 8.74986 6.41724 9.79453 6.41724 11.0832C6.41724 12.3719 7.46191 13.4165 8.75057 13.4165ZM8.74972 9.33305L9.22237 10.6104L10.4997 11.083L9.22237 11.5557L8.74972 12.833L8.27706 11.5557L6.99972 11.083L8.27706 10.6104L8.74972 9.33305Z"
        fill="#4E4D4E" />
</svg>