<svg width="100" height="100" viewBox="0 0 100 100" fill="none" xmlns="http://www.w3.org/2000/svg">
    <!-- <rect width="100" height="100" fill="#5D8D5F" /> -->
    <path
        d="M19.0562 49.5C19.0562 61.208 26.6699 67.6804 31.2216 71.7035C31.4357 71.8927 31.5562 72.1635 31.5562 72.4492V82.5C31.5562 83.0523 32.004 83.5 32.5562 83.5H43.0562C43.6085 83.5 44.0562 83.0523 44.0562 82.5V75.5C44.0562 74.9477 44.5039 74.5 45.0562 74.5H59.0562C59.6085 74.5 60.0562 74.9477 60.0562 75.5V82.5C60.0562 83.0523 60.504 83.5 61.0562 83.5H71.5562C72.1085 83.5 72.5562 83.0523 72.5562 82.5V72.5542C72.5562 72.2095 72.7324 71.8876 73.0409 71.7337C74.5649 70.9734 77.3505 70.0602 79.0563 67.5C80.6707 65.0769 81.343 62.4585 81.5116 60.4985C81.559 59.9483 82.004 59.5 82.5563 59.5H90.0563C90.6085 59.5 91.0563 59.0523 91.0563 58.5V44.5C91.0563 43.9477 90.6085 43.5 90.0563 43.5H82.5563C82.004 43.5 81.5601 43.0531 81.5782 42.5011C81.6481 40.367 81.7705 37.4284 80.0563 34C78.9527 31.7929 77.1218 29.662 75.8458 28.8434C75.427 28.5747 75.0563 28.1304 75.0563 27.6327V18.0524C75.0563 17.2189 74.0964 16.7512 73.44 17.2649L63.8278 24.7875C63.6518 24.9252 63.4352 25 63.2118 25C59.4246 25 51.9755 25 43.0544 25C31.5544 25 19.0562 34 19.0562 49.5ZM19.0562 49.5H11.0452C10.7367 49.5 10.4413 49.3597 10.2696 49.1033C7.25439 44.6008 10.5562 38 10.5562 38"
        stroke="#4E4D4E" stroke-width="6" stroke-linecap="round" />
    <path d="M43 40H56" stroke="#4E4D4E" stroke-width="6" stroke-linecap="round" />
    <path fill-rule="evenodd" clip-rule="evenodd"
        d="M49.5 48.6164C48.6557 48.1916 47.6082 47.935 46.3865 48.0144C44.7947 48.1178 43.3179 48.762 42.2863 49.9689C41.2425 51.19 40.8276 52.7928 41.0649 54.3971C41.1504 54.9751 41.3672 55.4789 41.5407 55.828C41.7297 56.2085 41.9604 56.5869 42.1986 56.9432C42.6754 57.6565 43.2813 58.4278 43.9099 59.1736C45.1722 60.6714 46.6672 62.2324 47.7707 63.3083C48.2577 63.7832 48.8814 64.012 49.5 63.9995C50.1186 64.012 50.7423 63.7832 51.2293 63.3083C52.3328 62.2324 53.8278 60.6714 55.0901 59.1736C55.7187 58.4278 56.3246 57.6565 56.8014 56.9432C57.0396 56.5869 57.2703 56.2085 57.4593 55.828C57.6328 55.4789 57.8496 54.9751 57.9351 54.3971C58.1724 52.7928 57.7575 51.19 56.7137 49.9689C55.6821 48.762 54.2053 48.1178 52.6135 48.0144C51.3918 47.935 50.3443 48.1916 49.5 48.6164Z"
        fill="#4E4D4E" />
</svg>