<svg width="100" height="100" viewBox="0 0 100 100" fill="none" xmlns="http://www.w3.org/2000/svg">
    <!-- <rect width="100" height="100" fill="#2A6495" /> -->
    <path
        d="M35.8164 49.4541C35.262 50.019 34.1533 52.0811 34.1533 55.8092C34.1533 59.5373 35.262 63.0113 35.8164 64.2822M27.1625 45.6413C26.4695 46.0649 25.0836 48.6069 25.0836 55.3855C25.0836 62.1641 26.4695 66.6831 27.1625 68.0954C25.7765 69.2251 23.7936 71.3782 24.6681 73.603C25.5007 75.7211 29.3798 74.3091 30.4884 73.603C33.8146 74.0266 42.3797 74.874 50.0301 74.874C57.6804 74.874 67.4928 74.0266 70.4033 73.603C72.6208 74.874 74.9786 75.9774 76.6417 73.603C77.889 71.8222 74.6997 68.6602 73.3138 68.0954C74.0067 66.4007 75.3927 61.571 75.3927 55.8092C75.3927 50.0473 74.0067 46.9121 73.3138 45.6411C75.2541 44.6526 77.9858 40.6873 76.6417 38.8629C75.3927 37.1676 71.2365 38.8629 70.4033 40.1336C66.5227 39.71 57.0152 38.8627 50.0301 38.8627C43.045 38.8627 34.0918 39.71 30.4884 40.1336C29.5183 38.8627 26.6638 36.8292 24.6681 38.8627C22.6725 40.8961 25.638 44.229 27.1625 45.6413Z"
        stroke="white" stroke-width="6" stroke-linecap="round" stroke-linejoin="round" />
    <path d="M51 36.5V30.5" stroke="white" stroke-width="6" stroke-linecap="round" stroke-linejoin="round" />
    <circle cx="50.5" cy="23.5" r="7.5" fill="white" />
    <path d="M22.6427 27.22C22.6427 27.22 18.8205 25.0679 14.6346 28.153C10.4486 31.238 11.3727 35.5259 11.3727 35.5259"
        stroke="white" stroke-width="6" stroke-linecap="round" stroke-linejoin="round" />
    <path
        d="M88.4181 36.3285C88.4181 36.3285 89.7502 32.1493 85.8803 28.676C82.0103 25.2028 77.999 26.9774 77.999 26.9774"
        stroke="white" stroke-width="6" stroke-linecap="round" stroke-linejoin="round" />
</svg>