<svg width="100" height="100" viewBox="0 0 100 100" fill="none" xmlns="http://www.w3.org/2000/svg">
    <!-- <rect width="100" height="100" fill="#AA812A" /> -->
    <path
        d="M13.8516 32.5747H27.2338C27.499 32.5747 27.7533 32.6801 27.9409 32.8676L34.9773 39.904M34.9773 39.904H39.3361C39.5831 39.904 39.8214 39.9955 40.0051 40.1608L43.7002 43.4864C43.9109 43.676 44.0312 43.9462 44.0312 44.2296V67.928V79.9999M34.9773 39.904H30.4617C30.0624 39.904 29.7013 40.1417 29.5433 40.5084L23.9046 53.5982C23.8159 53.8041 23.6607 53.9742 23.4637 54.0812L14.374 59.0213C14.052 59.1963 13.8516 59.5334 13.8516 59.8999V79.9999"
        stroke="#4E4D4E" stroke-width="6" stroke-linecap="round" stroke-linejoin="round" />
    <path
        d="M87.1439 33.0059H76.9835C76.6048 33.0059 76.2585 33.2199 76.0891 33.5586L70.004 45.7288C69.9346 45.8677 69.8984 46.0208 69.8984 46.1761V79.5687"
        stroke="#4E4D4E" stroke-width="6" stroke-linecap="round" stroke-linejoin="round" />
    <path fill-rule="evenodd" clip-rule="evenodd"
        d="M55.5599 8.62361C54.6716 8.19378 53.5696 7.9342 52.2843 8.01453C50.6096 8.1192 49.0558 8.77086 47.9704 9.99178C46.8723 11.227 46.4358 12.8486 46.6855 14.4714C46.7754 15.0562 47.0035 15.5659 47.186 15.919C47.3849 16.3039 47.6276 16.6867 47.8782 17.0472C48.3799 17.7688 49.0173 18.549 49.6786 19.3035C51.0067 20.8187 52.5795 22.3979 53.7405 23.4863C54.2529 23.9667 54.9091 24.1982 55.5599 24.1855C56.2107 24.1982 56.8669 23.9667 57.3793 23.4863C58.5402 22.3979 60.113 20.8187 61.4412 19.3035C62.1025 18.549 62.7399 17.7688 63.2416 17.0472C63.4922 16.6867 63.7349 16.3039 63.9338 15.919C64.1163 15.5659 64.3443 15.0562 64.4343 14.4714C64.684 12.8486 64.2474 11.227 63.1493 9.99178C62.064 8.77086 60.5102 8.1192 58.8355 8.01453C57.5502 7.9342 56.4482 8.19378 55.5599 8.62361Z"
        fill="#4E4D4E" />
</svg>