<svg width="100" height="100" viewBox="0 0 100 100" fill="none" xmlns="http://www.w3.org/2000/svg">
    <g clip-path="url(#clip0_2044_1225)">
        <rect width="100" height="100" fill="#DD7CAC" />
        <path
            d="M17 86V72.7481M89 86V72.7481M89 65.3282V47.078C89 46.9213 88.9667 46.7716 88.8925 46.6336C86.1989 41.6238 75.2766 32 52 32C28.6564 32 19.0428 41.6794 17.0625 46.6768C17.0188 46.787 17 46.9004 17 47.019V65.3282M89 65.3282C87.4436 64.5472 85.4146 63.576 81 62.547M89 65.3282V72.7481M17 65.3282C18.233 64.5792 20.7192 63.5386 24.5 62.547M17 65.3282V72.7481M49 59.5855C49.9775 59.5669 50.9775 59.5573 52 59.5573C53.5439 59.5573 55.0441 59.5793 56.5 59.6209M49 59.5855V51.313C49 50.7607 48.5523 50.313 48 50.313H25.5C24.9477 50.313 24.5 50.7607 24.5 51.313V62.547M49 59.5855C38.0683 59.7936 29.9427 61.1195 24.5 62.547M56.5 59.6209V51.313C56.5 50.7607 56.9477 50.313 57.5 50.313H80C80.5523 50.313 81 50.7607 81 51.313V62.547M56.5 59.6209C66.4707 59.9056 75.3644 61.2334 81 62.547M17 72.7481H89"
            stroke="#4E4D4E" stroke-width="6" stroke-linecap="round" stroke-linejoin="round" />
        <path fill-rule="evenodd" clip-rule="evenodd"
            d="M38.5 15.3082C38.053 15.0958 37.4985 14.9675 36.8517 15.0072C36.009 15.0589 35.2271 15.381 34.681 15.9844C34.1284 16.595 33.9087 17.3964 34.0344 18.1985C34.0796 18.4875 34.1944 18.7395 34.2862 18.914C34.3863 19.1042 34.5084 19.2934 34.6346 19.4716C34.887 19.8283 35.2078 20.2139 35.5405 20.5868C36.2088 21.3357 37.0003 22.1162 37.5845 22.6542C37.8423 22.8916 38.1725 23.006 38.5 22.9998C38.8275 23.006 39.1577 22.8916 39.4155 22.6542C39.9997 22.1162 40.7912 21.3357 41.4595 20.5868C41.7922 20.2139 42.113 19.8283 42.3654 19.4716C42.4916 19.2934 42.6137 19.1042 42.7138 18.914C42.8056 18.7395 42.9204 18.4875 42.9656 18.1985C43.0913 17.3964 42.8716 16.595 42.319 15.9844C41.7729 15.381 40.991 15.0589 40.1483 15.0072C39.5015 14.9675 38.947 15.0958 38.5 15.3082Z"
            fill="#4E4D4E" />
        <path fill-rule="evenodd" clip-rule="evenodd"
            d="M51.5 15.3082C51.053 15.0958 50.4985 14.9675 49.8517 15.0072C49.009 15.0589 48.2271 15.381 47.681 15.9844C47.1284 16.595 46.9087 17.3964 47.0344 18.1985C47.0796 18.4875 47.1944 18.7395 47.2862 18.914C47.3863 19.1042 47.5084 19.2934 47.6346 19.4716C47.887 19.8283 48.2078 20.2139 48.5405 20.5868C49.2088 21.3357 50.0003 22.1162 50.5845 22.6542C50.8423 22.8916 51.1725 23.006 51.5 22.9998C51.8275 23.006 52.1577 22.8916 52.4155 22.6542C52.9997 22.1162 53.7912 21.3357 54.4595 20.5868C54.7922 20.2139 55.113 19.8283 55.3654 19.4716C55.4916 19.2934 55.6137 19.1042 55.7138 18.914C55.8056 18.7395 55.9204 18.4875 55.9656 18.1985C56.0913 17.3964 55.8716 16.595 55.319 15.9844C54.7729 15.381 53.991 15.0589 53.1483 15.0072C52.5015 14.9675 51.947 15.0958 51.5 15.3082Z"
            fill="#4E4D4E" />
        <path fill-rule="evenodd" clip-rule="evenodd"
            d="M64.5 15.3082C64.053 15.0958 63.4985 14.9675 62.8517 15.0072C62.009 15.0589 61.2271 15.381 60.681 15.9844C60.1284 16.595 59.9087 17.3964 60.0344 18.1985C60.0796 18.4875 60.1944 18.7395 60.2862 18.914C60.3863 19.1042 60.5084 19.2934 60.6346 19.4716C60.887 19.8283 61.2078 20.2139 61.5405 20.5868C62.2088 21.3357 63.0003 22.1162 63.5845 22.6542C63.8423 22.8916 64.1725 23.006 64.5 22.9998C64.8275 23.006 65.1577 22.8916 65.4155 22.6542C65.9997 22.1162 66.7912 21.3357 67.4595 20.5868C67.7922 20.2139 68.113 19.8283 68.3654 19.4716C68.4916 19.2934 68.6137 19.1042 68.7138 18.914C68.8056 18.7395 68.9204 18.4875 68.9656 18.1985C69.0913 17.3964 68.8716 16.595 68.319 15.9844C67.7729 15.381 66.991 15.0589 66.1483 15.0072C65.5015 14.9675 64.947 15.0958 64.5 15.3082Z"
            fill="#4E4D4E" />
        <path fill-rule="evenodd" clip-rule="evenodd"
            d="M77.5 15.3082C77.053 15.0958 76.4985 14.9675 75.8517 15.0072C75.009 15.0589 74.2271 15.381 73.681 15.9844C73.1284 16.595 72.9087 17.3964 73.0344 18.1985C73.0796 18.4875 73.1944 18.7395 73.2862 18.914C73.3863 19.1042 73.5084 19.2934 73.6346 19.4716C73.887 19.8283 74.2078 20.2139 74.5405 20.5868C75.2088 21.3357 76.0003 22.1162 76.5845 22.6542C76.8423 22.8916 77.1725 23.006 77.5 22.9998C77.8275 23.006 78.1577 22.8916 78.4155 22.6542C78.9997 22.1162 79.7912 21.3357 80.4595 20.5868C80.7922 20.2139 81.113 19.8283 81.3654 19.4716C81.4916 19.2934 81.6137 19.1042 81.7138 18.914C81.8056 18.7395 81.9204 18.4875 81.9656 18.1985C82.0913 17.3964 81.8716 16.595 81.319 15.9844C80.7729 15.381 79.991 15.0589 79.1483 15.0072C78.5015 14.9675 77.947 15.0958 77.5 15.3082Z"
            fill="#4E4D4E" />
        <path fill-rule="evenodd" clip-rule="evenodd"
            d="M25.5 15.3082C25.053 15.0958 24.4985 14.9675 23.8517 15.0072C23.009 15.0589 22.2271 15.381 21.681 15.9844C21.1284 16.595 20.9087 17.3964 21.0344 18.1985C21.0796 18.4875 21.1944 18.7395 21.2862 18.914C21.3863 19.1042 21.5084 19.2934 21.6346 19.4716C21.887 19.8283 22.2078 20.2139 22.5405 20.5868C23.2088 21.3357 24.0003 22.1162 24.5845 22.6542C24.8423 22.8916 25.1725 23.006 25.5 22.9998C25.8275 23.006 26.1577 22.8916 26.4155 22.6542C26.9997 22.1162 27.7912 21.3357 28.4595 20.5868C28.7922 20.2139 29.113 19.8283 29.3654 19.4716C29.4916 19.2934 29.6137 19.1042 29.7138 18.914C29.8056 18.7395 29.9204 18.4875 29.9656 18.1985C30.0913 17.3964 29.8716 16.595 29.319 15.9844C28.7729 15.381 27.991 15.0589 27.1483 15.0072C26.5015 14.9675 25.947 15.0958 25.5 15.3082Z"
            fill="#4E4D4E" />
        <rect x="-1" width="100" height="100" fill="#DC7BAB" fill-opacity="0.2" />
    </g>
    <defs>
        <clipPath id="clip0_2044_1225">
            <rect width="100" height="100" fill="white" />
        </clipPath>
    </defs>
</svg>