<svg width="100" height="100" viewBox="0 0 100 100" fill="none" xmlns="http://www.w3.org/2000/svg">
    <g clip-path="url(#clip0_2044_1156)">
        <rect width="100" height="100" fill="#DD7CAC" />
        <path
            d="M26.5 17V83C26.5 83.5523 26.9477 84 27.5 84H71.5C72.0523 84 72.5 83.5523 72.5 83V17C72.5 16.4477 72.0523 16 71.5 16H27.5C26.9477 16 26.5 16.4477 26.5 17Z"
            stroke="#4E4D4E" stroke-width="6" stroke-linecap="round" stroke-linejoin="round" />
        <path d="M12 27L8 30.5L30 55L37.5 59L34 51.5L12 27Z" stroke="#4E4D4E" stroke-width="6" stroke-linecap="round"
            stroke-linejoin="round" />
        <path d="M12 27L8 30.5L30 55L37.5 59L34 51.5L12 27Z" stroke="#4E4D4E" stroke-width="6" stroke-linecap="round"
            stroke-linejoin="round" />
        <path d="M87.1284 9.3781L83.4117 5.57868L60.1714 28.9055L56.5942 36.6161L63.8882 32.705L87.1284 9.3781Z"
            stroke="#4E4D4E" stroke-width="6" stroke-linecap="round" stroke-linejoin="round" />
        <path fill-rule="evenodd" clip-rule="evenodd"
            d="M46.3432 48.0029C47.4739 46.1184 50.5531 43.7295 55.2807 44.025C58.1772 44.206 60.7246 45.3195 62.4605 47.2722C64.2111 49.2415 64.9261 51.8377 64.5173 54.4951C64.3891 55.3283 64.0527 56.1084 63.7297 56.7335C63.3876 57.3954 62.9554 58.0813 62.4832 58.7605C61.5383 60.1196 60.3129 61.6231 59.0063 63.1139C56.3865 66.1028 53.2682 69.2344 50.9676 71.3913C50.362 71.9591 49.5833 72.227 48.8144 72.201C48.0455 72.227 47.2667 71.9591 46.6611 71.3913C44.839 69.683 42.5142 67.3729 40.3317 65.0109C39.2073 63.794 39.2823 61.896 40.4993 60.7716C41.7162 59.6472 43.6142 59.7222 44.7386 60.9391C46.0945 62.4066 47.5127 63.8574 48.8144 65.1383C50.6471 63.3348 52.7058 61.1994 54.4942 59.159C55.7289 57.7504 56.7922 56.4353 57.5568 55.3355C57.9393 54.7853 58.217 54.3318 58.3993 53.979C58.5283 53.7295 58.5756 53.5948 58.5887 53.5572C58.5906 53.552 58.5917 53.5486 58.5924 53.5471C58.7334 52.5712 58.4661 51.8096 57.9762 51.2586C57.4655 50.6841 56.5029 50.113 54.9064 50.0133C52.5274 49.8646 51.5468 51.0209 51.4907 51.087C51.4888 51.0893 51.4879 51.0903 51.4882 51.0899C50.6357 52.5106 48.793 52.9713 47.3722 52.1189C45.9515 51.2664 45.4908 49.4237 46.3432 48.0029Z"
            fill="#4E4D4E" />
        <rect x="-1" width="100" height="100" fill="#DC7BAB" fill-opacity="0.2" />
    </g>
    <defs>
        <clipPath id="clip0_2044_1156">
            <rect width="100" height="100" fill="white" />
        </clipPath>
    </defs>
</svg>