<svg width="100" height="100" viewBox="0 0 100 100" fill="none" xmlns="http://www.w3.org/2000/svg">
    <!-- <rect width="100" height="100" fill="#FEF8A5" /> -->
    <path
        d="M7 65.6223C7.60955 66.1812 8.56727 66.887 9.84559 67.6239M48.1029 65.6223C47.655 66.033 47.019 66.5231 46.2059 67.0466M46.2059 67.0466C42.8104 69.2324 36.3266 72 27.5515 72C19.5343 72 13.4298 69.6899 9.84559 67.6239M46.2059 67.0466C44.2034 64.5522 40.1985 58.7344 40.1985 55.418C40.1985 52.1017 40.8309 45.7452 41.1471 42.9816C44.098 43.8319 50 44.3847 50 39.7927C50 35.9661 50 35.9661 50 35.9661L42.7279 34.6909V29.9077C40.3039 28.9511 35.1397 27.9309 33.875 31.5021C32.6103 35.0733 31.6618 42.1309 31.3456 45.2132C29.5408 45.0236 27.0116 44.807 24.3897 44.6646C19.6626 44.4079 14.6344 44.3928 13.0074 45.2132C10.4779 46.4888 8.58088 51.272 7.94853 53.5042M9.84559 67.6239C11.5319 65.0432 15.0309 59.2441 15.5368 56.6931C16.0426 54.142 15.7475 51.5909 15.5368 50.6343"
        stroke="#4E4D4E" stroke-width="6" stroke-linecap="round" stroke-linejoin="round" />
    <path
        d="M93 79.6223C92.3905 80.1812 91.4327 80.887 90.1544 81.6239M51.8971 79.6223C52.345 80.033 52.981 80.5231 53.7941 81.0466M53.7941 81.0466C57.1896 83.2324 63.6734 86 72.4485 86C80.4657 86 86.5702 83.6899 90.1544 81.6239M53.7941 81.0466C55.7966 78.5522 59.8015 72.7344 59.8015 69.418C59.8015 66.1017 59.1691 59.7452 58.8529 56.9816C55.902 57.8319 50 58.3847 50 53.7927C50 49.9661 50 49.9661 50 49.9661L57.2721 48.6909V43.9077C59.6961 42.9511 64.8603 41.9309 66.125 45.5021C67.3897 49.0733 68.3382 56.1309 68.6544 59.2132C70.4592 59.0236 72.9884 58.807 75.6103 58.6646C80.3374 58.4079 85.3656 58.3928 86.9926 59.2132C89.5221 60.4888 91.4191 65.272 92.0515 67.5042M90.1544 81.6239C88.4681 79.0432 84.9691 73.2441 84.4632 70.6931C83.9574 68.142 84.2525 65.5909 84.4632 64.6343"
        stroke="#4E4D4E" stroke-width="6" stroke-linecap="round" stroke-linejoin="round" />
    <path d="M66 77L68 74H74.5L76 77" stroke="#4E4D4E" stroke-width="2" stroke-linecap="round"
        stroke-linejoin="round" />
    <path d="M22.5 62.5L24.5 59.5H31L32.5 62.5" stroke="#4E4D4E" stroke-width="2" stroke-linecap="round"
        stroke-linejoin="round" />
</svg>