<svg width="100" height="100" viewBox="0 0 100 100" fill="none" xmlns="http://www.w3.org/2000/svg">
    <g clip-path="url(#clip0_2044_1172)">
        <rect width="100" height="100" fill="#DD7CAC" />
        <path
            d="M39.1727 23.6883L54.1367 30.7013L62.554 12L71.1475 15.7059L62.554 34.9091L78.0738 42.1765L73.8115 51.1765L58.3607 43.7647L47.1223 69.5065H53.2014C56.1942 69.5065 59.1247 73.8701 60.2158 76.052C62.2422 74.3377 67.6043 70.9091 72.8417 70.9091C78.0791 70.9091 83.1295 79.6364 85 84H20C21.5588 79.6364 25.8924 72.3222 29.3525 70.9091C32.7869 69.5065 37.582 69.5065 37.582 69.5065L50.3689 40.0588L34.918 32.6471L39.1727 23.6883Z"
            stroke="#4E4D4E" stroke-width="6" stroke-linecap="round" stroke-linejoin="round" />
        <path fill-rule="evenodd" clip-rule="evenodd"
            d="M56.6774 36.1108C56.4822 35.8669 56.2026 35.6426 55.8244 35.4904C55.3316 35.2921 54.7988 35.2667 54.3223 35.4676C53.8402 35.671 53.4946 36.0749 53.3448 36.5726C53.2908 36.752 53.2865 36.9287 53.2906 37.0545C53.295 37.1915 53.3122 37.334 53.3347 37.4712C53.3797 37.7457 53.4555 38.0555 53.5417 38.3612C53.7147 38.9751 53.949 39.6407 54.1324 40.1099C54.2134 40.317 54.3694 40.4725 54.5571 40.5576C54.7413 40.6499 54.9604 40.6731 55.1722 40.6057C55.6523 40.4528 56.3169 40.2159 56.9028 39.9639C57.1946 39.8384 57.483 39.7023 57.7247 39.5645C57.8455 39.4956 57.967 39.4193 58.0762 39.3364C58.1765 39.2604 58.3111 39.1458 58.4165 38.991C58.709 38.5612 58.8052 38.0384 58.6597 37.5358C58.5159 37.0391 58.1607 36.6411 57.6964 36.3831C57.3401 36.185 56.9898 36.109 56.6774 36.1108Z"
            fill="#4E4D4E" />
        <rect x="-1" width="100" height="100" fill="#DC7BAB" fill-opacity="0.2" />
    </g>
    <defs>
        <clipPath id="clip0_2044_1172">
            <rect width="100" height="100" fill="white" />
        </clipPath>
    </defs>
</svg>