<svg width="100" height="100" viewBox="0 0 100 100" fill="none" xmlns="http://www.w3.org/2000/svg">
    <!-- <rect width="100" height="100" fill="#B5B8BB" /> -->
    <path fill-rule="evenodd" clip-rule="evenodd"
        d="M61.2783 53.281C61.9045 51.747 61.1685 49.9959 59.6345 49.3698C58.1005 48.7436 56.3494 49.4796 55.7233 51.0135L42.7233 82.862C42.0971 84.3959 42.8331 86.1471 44.3671 86.7732C45.901 87.3994 47.6522 86.6634 48.2783 85.1294L50.8761 78.7652H80.9794L83.7233 85.4873C84.3494 87.0213 86.1005 87.7572 87.6345 87.1311C89.1685 86.5049 89.9045 84.7538 89.2783 83.2198L85.7727 74.6315L82.2671 66.0431L79.0536 58.1705L76.2783 51.3714C75.6522 49.8374 73.901 49.1015 72.3671 49.7276C70.8331 50.3537 70.0971 52.1049 70.7233 53.6389L71.8112 56.3042H60.0443L61.2783 53.281ZM57.5952 62.3042L56.8308 64.1769H75.0247L74.2603 62.3042H57.5952ZM54.3817 70.1769L53.3252 72.7652H78.5303L77.4738 70.1769H54.3817Z"
        fill="#4E4D4E" />
    <path d="M11 68H28.5L34 83H11V68ZM11 68V15H28.5V23.5M28.5 23.5H20.5V29H41V23.5H28.5Z" stroke="#4E4D4E"
        stroke-width="6" stroke-linecap="round" stroke-linejoin="round" />
    <path fill-rule="evenodd" clip-rule="evenodd"
        d="M28.0647 43.6433C22.9086 44.4684 21.0778 49.2203 22.9991 52.1844C24.1453 53.9529 24.9995 54.1629 26.23 54.4656C26.6107 54.5592 27.0275 54.6617 27.5 54.8219C29.5 55.5 28.5647 56.5 27 58L32 54.8219C32.2259 54.6726 32.4582 54.5245 32.6926 54.3751C34.5329 53.202 36.5003 51.948 36.5003 49.3747C36.5003 45.4188 33.0094 42.8519 28.0647 43.6433ZM29.4999 49C29.4999 49.8284 28.8284 50.5 27.9999 50.5C27.1715 50.5 26.4999 49.8284 26.4999 49C26.4999 48.1716 27.1715 47.5 27.9999 47.5C28.8284 47.5 29.4999 48.1716 29.4999 49ZM32.9999 50.5C33.8284 50.5 34.4999 49.8284 34.4999 49C34.4999 48.1716 33.8284 47.5 32.9999 47.5C32.1715 47.5 31.4999 48.1716 31.4999 49C31.4999 49.8284 32.1715 50.5 32.9999 50.5Z"
        fill="#4E4D4E" />
    <path
        d="M22.9991 52.1844L22.5795 52.4564L22.9991 52.1844ZM28.0647 43.6433L28.1437 44.137L28.0647 43.6433ZM26.23 54.4656L26.1106 54.9511H26.1106L26.23 54.4656ZM27.5 54.8219L27.6606 54.3484L27.5 54.8219ZM27 58L26.654 57.6391C26.4685 57.8169 26.448 58.1064 26.6066 58.3086C26.7653 58.5108 27.0513 58.5598 27.2682 58.422L27 58ZM32 54.8219L32.2683 55.2439L32.2757 55.239L32 54.8219ZM32.6926 54.3751L32.9613 54.7967H32.9613L32.6926 54.3751ZM23.4186 51.9125C21.7331 49.312 23.2707 44.9168 28.1437 44.137L27.9856 43.1495C22.5465 44.02 20.4226 49.1286 22.5795 52.4564L23.4186 51.9125ZM26.3494 53.98C25.7237 53.8261 25.2778 53.7128 24.8433 53.4478C24.4167 53.1877 23.966 52.757 23.4186 51.9125L22.5795 52.4564C23.1784 53.3804 23.7279 53.9389 24.3226 54.3016C24.9094 54.6594 25.5059 54.8024 26.1106 54.9511L26.3494 53.98ZM27.6606 54.3484C27.1653 54.1804 26.7295 54.0735 26.3494 53.98L26.1106 54.9511C26.492 55.0449 26.8896 55.1429 27.3394 55.2954L27.6606 54.3484ZM27.346 58.3609C27.7359 57.9872 28.1027 57.6294 28.3954 57.2956C28.6817 56.9692 28.937 56.6221 29.0596 56.2652C29.1942 55.8734 29.1712 55.4521 28.8769 55.0823C28.617 54.7557 28.1886 54.5274 27.6606 54.3484L27.3394 55.2954C27.8114 55.4554 28.016 55.6064 28.0944 55.7049C28.1384 55.7602 28.1587 55.8098 28.1139 55.9403C28.0571 56.1057 27.9102 56.3322 27.6435 56.6363C27.3833 56.9331 27.0465 57.2628 26.654 57.6391L27.346 58.3609ZM31.7318 54.3999L26.7318 57.578L27.2682 58.422L32.2682 55.2439L31.7318 54.3999ZM32.4238 53.9535C32.1901 54.1025 31.9543 54.2528 31.7243 54.4048L32.2757 55.239C32.4976 55.0924 32.7263 54.9465 32.9613 54.7967L32.4238 53.9535ZM36.0003 49.3747C36.0003 51.6346 34.3096 52.7514 32.4238 53.9535L32.9613 54.7967C34.7563 53.6526 37.0003 52.2614 37.0003 49.3747H36.0003ZM28.1437 44.137C30.5179 43.757 32.4889 44.1913 33.8512 45.1392C35.2044 46.0807 36.0003 47.5563 36.0003 49.3747H37.0003C37.0003 47.2372 36.0508 45.4514 34.4223 44.3183C32.803 43.1916 30.5561 42.7382 27.9856 43.1495L28.1437 44.137ZM27.9999 51C29.1045 51 29.9999 50.1046 29.9999 49H28.9999C28.9999 49.5523 28.5522 50 27.9999 50V51ZM25.9999 49C25.9999 50.1046 26.8954 51 27.9999 51V50C27.4477 50 26.9999 49.5523 26.9999 49H25.9999ZM27.9999 47C26.8954 47 25.9999 47.8954 25.9999 49H26.9999C26.9999 48.4477 27.4477 48 27.9999 48V47ZM29.9999 49C29.9999 47.8954 29.1045 47 27.9999 47V48C28.5522 48 28.9999 48.4477 28.9999 49H29.9999ZM33.9999 49C33.9999 49.5523 33.5522 50 32.9999 50V51C34.1045 51 34.9999 50.1046 34.9999 49H33.9999ZM32.9999 48C33.5522 48 33.9999 48.4477 33.9999 49H34.9999C34.9999 47.8954 34.1045 47 32.9999 47V48ZM31.9999 49C31.9999 48.4477 32.4477 48 32.9999 48V47C31.8954 47 30.9999 47.8954 30.9999 49H31.9999ZM32.9999 50C32.4477 50 31.9999 49.5523 31.9999 49H30.9999C30.9999 50.1046 31.8954 51 32.9999 51V50Z"
        fill="#4E4D4E" />
    <path fill-rule="evenodd" clip-rule="evenodd"
        d="M58.7363 32.1433C64.0759 32.9684 65.9719 37.7203 63.9822 40.6844C62.7951 42.4529 61.9106 42.6629 60.6362 42.9656C60.242 43.0592 59.8104 43.1617 59.3211 43.3219C57.2499 44 58.2185 45 59.8389 46.5L54.6609 43.3219C54.4269 43.1726 54.1863 43.0245 53.9437 42.8751C52.0377 41.702 50.0003 40.448 50.0003 37.8747C50.0003 33.9188 53.6155 31.3519 58.7363 32.1433ZM57.251 37.5C57.251 38.3284 57.9465 39 58.8044 39C59.6624 39 60.3578 38.3284 60.3578 37.5C60.3578 36.6716 59.6624 36 58.8044 36C57.9465 36 57.251 36.6716 57.251 37.5ZM53.6264 39C52.7685 39 52.073 38.3284 52.073 37.5C52.073 36.6716 52.7685 36 53.6264 36C54.4844 36 55.1798 36.6716 55.1798 37.5C55.1798 38.3284 54.4844 39 53.6264 39Z"
        fill="#4E4D4E" />
    <path
        d="M63.9822 40.6844L63.5671 40.4058L63.9822 40.6844ZM58.7363 32.1433L58.8127 31.6491L58.7363 32.1433ZM60.6362 42.9656L60.7517 43.452L60.7517 43.452L60.6362 42.9656ZM59.3211 43.3219L59.1655 42.8467L59.3211 43.3219ZM59.8389 46.5L60.1785 46.1331C60.3672 46.3078 60.3927 46.5971 60.2373 46.8021C60.0819 47.007 59.7965 47.0607 59.5773 46.9261L59.8389 46.5ZM54.6609 43.3219L54.3993 43.7481L54.3919 43.7434L54.6609 43.3219ZM53.9437 42.8751L54.2057 42.4493V42.4493L53.9437 42.8751ZM63.5671 40.4058C65.2989 37.8258 63.7382 33.4221 58.6599 32.6374L58.8127 31.6491C64.4136 32.5147 66.6449 37.6149 64.3974 40.9631L63.5671 40.4058ZM60.5207 42.4791C61.1685 42.3253 61.6345 42.211 62.0882 41.9438C62.5332 41.6818 63.0006 41.2496 63.5671 40.4058L64.3974 40.9631C63.7767 41.8877 63.2084 42.4448 62.5957 42.8055C61.9918 43.1611 61.3783 43.3033 60.7517 43.452L60.5207 42.4791ZM59.1655 42.8467C59.677 42.6792 60.1271 42.5726 60.5207 42.4791L60.7517 43.452C60.3569 43.5458 59.9439 43.6441 59.4766 43.7971L59.1655 42.8467ZM59.4992 46.8669C59.0955 46.4932 58.7159 46.1357 58.4129 45.8021C58.1171 45.4764 57.8521 45.1289 57.7245 44.7703C57.5833 44.3734 57.6088 43.9466 57.9144 43.5757C58.1819 43.2511 58.6218 43.0247 59.1655 42.8467L59.4766 43.7971C58.9847 43.9581 58.769 44.111 58.6862 44.2116C58.6416 44.2657 58.6221 44.3098 58.6667 44.4351C58.7249 44.5988 58.8764 44.825 59.1533 45.1298C59.423 45.4268 59.772 45.7568 60.1785 46.1331L59.4992 46.8669ZM54.9224 42.8957L60.1004 46.0739L59.5773 46.9261L54.3993 43.748L54.9224 42.8957ZM54.2057 42.4493C54.4478 42.5983 54.6919 42.7485 54.9299 42.9004L54.3919 43.7434C54.1619 43.5966 53.9249 43.4507 53.6816 43.3009L54.2057 42.4493ZM50.5003 37.8747C50.5003 40.1265 52.2474 41.2439 54.2057 42.4493L53.6816 43.3009C51.8281 42.1601 49.5003 40.7694 49.5003 37.8747H50.5003ZM58.6599 32.6374C56.1935 32.2562 54.1437 32.6919 52.7269 33.6438C51.3207 34.5886 50.5003 36.0639 50.5003 37.8747H49.5003C49.5003 35.7296 50.4876 33.9436 52.1692 32.8137C53.8402 31.6911 56.1583 31.2389 58.8127 31.6491L58.6599 32.6374ZM58.8044 39.5C57.687 39.5 56.751 38.6209 56.751 37.5H57.751C57.751 38.0359 58.206 38.5 58.8044 38.5V39.5ZM60.8578 37.5C60.8578 38.6209 59.9219 39.5 58.8044 39.5V38.5C59.4028 38.5 59.8578 38.0359 59.8578 37.5H60.8578ZM58.8044 35.5C59.9219 35.5 60.8578 36.3791 60.8578 37.5H59.8578C59.8578 36.9641 59.4028 36.5 58.8044 36.5V35.5ZM56.751 37.5C56.751 36.3791 57.687 35.5 58.8044 35.5V36.5C58.206 36.5 57.751 36.9641 57.751 37.5H56.751ZM52.573 37.5C52.573 38.0359 53.028 38.5 53.6264 38.5V39.5C52.509 39.5 51.573 38.6209 51.573 37.5H52.573ZM53.6264 36.5C53.028 36.5 52.573 36.9641 52.573 37.5H51.573C51.573 36.3791 52.509 35.5 53.6264 35.5V36.5ZM54.6798 37.5C54.6798 36.9641 54.2248 36.5 53.6264 36.5V35.5C54.7439 35.5 55.6798 36.3791 55.6798 37.5H54.6798ZM53.6264 38.5C54.2248 38.5 54.6798 38.0359 54.6798 37.5H55.6798C55.6798 38.6209 54.7439 39.5 53.6264 39.5V38.5Z"
        fill="#4E4D4E" />
</svg>