<svg width="100" height="100" viewBox="0 0 100 100" fill="none" xmlns="http://www.w3.org/2000/svg">
    <g clip-path="url(#clip0_2044_1141)">
        <rect width="100" height="100" fill="#DD7CAC" />
        <path
            d="M12 79V49C12 48.4477 12.4477 48 13 48H44C44.5523 48 45 48.4477 45 49V79C45 79.5523 44.5523 80 44 80H13C12.4477 80 12 79.5523 12 79Z"
            stroke="#4E4D4E" stroke-width="6" stroke-linecap="round" />
        <path
            d="M57.6498 62.7684L45.4081 35.3798C45.1827 34.8755 45.4087 34.2841 45.913 34.0587L74.2146 21.409C74.7188 21.1836 75.3102 21.4096 75.5356 21.9139L87.7773 49.3025C88.0027 49.8067 87.7767 50.3982 87.2724 50.6235L58.9708 63.2733C58.4666 63.4987 57.8752 63.2727 57.6498 62.7684Z"
            stroke="#4E4D4E" stroke-width="6" stroke-linecap="round" />
        <path fill-rule="evenodd" clip-rule="evenodd"
            d="M29 56.1926C28.702 56.0599 28.3323 55.9797 27.9011 56.0045C27.3393 56.0368 26.8181 56.2381 26.454 56.6153C26.0856 56.9969 25.9391 57.4978 26.0229 57.9991C26.0531 58.1797 26.1296 58.3372 26.1908 58.4463C26.2575 58.5652 26.339 58.6834 26.423 58.7948C26.5913 59.0177 26.8052 59.2587 27.027 59.4917C27.4726 59.9598 28.0002 60.4476 28.3896 60.7839C28.5615 60.9323 28.7817 61.0038 29 60.9998C29.2183 61.0038 29.4385 60.9323 29.6104 60.7839C29.9998 60.4476 30.5274 59.9598 30.973 59.4917C31.1948 59.2587 31.4087 59.0177 31.577 58.7948C31.661 58.6834 31.7425 58.5652 31.8092 58.4463C31.8704 58.3372 31.9469 58.1797 31.9771 57.9991C32.0609 57.4978 31.9144 56.9969 31.546 56.6153C31.1819 56.2381 30.6607 56.0368 30.0989 56.0045C29.6677 55.9797 29.298 56.0599 29 56.1926Z"
            fill="#4E4D4E" />
        <path fill-rule="evenodd" clip-rule="evenodd"
            d="M29 66.1926C28.702 66.0599 28.3323 65.9797 27.9011 66.0045C27.3393 66.0368 26.8181 66.2381 26.454 66.6153C26.0856 66.9969 25.9391 67.4978 26.0229 67.9991C26.0531 68.1797 26.1296 68.3372 26.1908 68.4463C26.2575 68.5652 26.339 68.6834 26.423 68.7948C26.5913 69.0177 26.8052 69.2587 27.027 69.4917C27.4726 69.9598 28.0002 70.4476 28.3896 70.7839C28.5615 70.9323 28.7817 71.0038 29 70.9998C29.2183 71.0038 29.4385 70.9323 29.6104 70.7839C29.9998 70.4476 30.5274 69.9598 30.973 69.4917C31.1948 69.2587 31.4087 69.0177 31.577 68.7948C31.661 68.6834 31.7425 68.5652 31.8092 68.4463C31.8704 68.3372 31.9469 68.1797 31.9771 67.9991C32.0609 67.4978 31.9144 66.9969 31.546 66.6153C31.1819 66.2381 30.6607 66.0368 30.0989 66.0045C29.6677 65.9797 29.298 66.0599 29 66.1926Z"
            fill="#4E4D4E" />
        <path
            d="M67.4327 40.1315C67.4812 39.9552 67.7257 39.5711 68.316 39.4455C69.0537 39.2885 69.6006 39.6732 69.6744 40.2876C69.7305 40.7554 69.0004 42.2033 68.4682 43.1025C68.4322 43.1632 68.345 43.1629 68.3083 43.1025L67.2313 41.3287C67.2193 41.3089 67.215 41.2853 67.2193 41.2624L67.4327 40.1315Z"
            fill="#4E4D4E" />
        <path
            d="M64.8817 40.8976C64.6883 40.8406 64.2655 40.8349 63.8413 41.2035C63.272 41.6982 63.25 42.3665 63.6964 42.7952C64.0252 43.1109 65.6122 43.3779 66.6632 43.4988C66.7507 43.5089 66.8008 43.4039 66.739 43.3411L65.3 41.8789C65.2909 41.8697 65.2838 41.8587 65.2792 41.8466L64.9355 40.9495C64.9261 40.9249 64.907 40.905 64.8817 40.8976Z"
            fill="#4E4D4E" />
        <path
            d="M67.4327 40.1315C67.4812 39.9552 67.7257 39.5711 68.316 39.4455C69.0537 39.2885 69.6006 39.6732 69.6744 40.2876C69.7305 40.7554 69.0004 42.2033 68.4682 43.1025C68.4322 43.1632 68.345 43.1629 68.3083 43.1025L67.2313 41.3287C67.2193 41.3089 67.215 41.2853 67.2193 41.2624L67.4327 40.1315Z"
            stroke="#4E4D4E" stroke-linecap="round" />
        <path
            d="M64.8817 40.8976C64.6883 40.8406 64.2655 40.8349 63.8413 41.2035C63.272 41.6982 63.25 42.3665 63.6964 42.7952C64.0252 43.1109 65.6122 43.3779 66.6632 43.4988C66.7507 43.5089 66.8008 43.4039 66.739 43.3411L65.3 41.8789C65.2909 41.8697 65.2838 41.8587 65.2792 41.8466L64.9355 40.9495C64.9261 40.9249 64.907 40.905 64.8817 40.8976Z"
            stroke="#4E4D4E" stroke-linecap="round" />
        <rect x="-1" width="100" height="100" fill="#DC7BAB" fill-opacity="0.2" />
    </g>
    <defs>
        <clipPath id="clip0_2044_1141">
            <rect width="100" height="100" fill="white" />
        </clipPath>
    </defs>
</svg>