<svg width="100" height="100" viewBox="0 0 100 100" fill="none" xmlns="http://www.w3.org/2000/svg">
    <g clip-path="url(#clip0_2044_1193)">
        <rect width="100" height="100" fill="#DD7CAC" />
        <circle cx="38" cy="42" r="21" stroke="#4E4D4E" stroke-width="6" />
        <path d="M77.714 77.6847L55 59" stroke="#4E4D4E" stroke-width="6" stroke-linecap="round"
            stroke-linejoin="round" />
        <path fill-rule="evenodd" clip-rule="evenodd"
            d="M37.5 34.5779C36.6557 34.1796 35.6082 33.939 34.3865 34.0135C32.7947 34.1105 31.3179 34.7144 30.2863 35.8458C29.2425 36.9906 28.8276 38.4933 29.0649 39.9973C29.1504 40.5391 29.3672 41.0115 29.5407 41.3388C29.7297 41.6955 29.9604 42.0502 30.1986 42.3843C30.6754 43.053 31.2813 43.7761 31.9099 44.4752C33.1722 45.8794 34.6672 47.3429 35.7707 48.3516C36.2577 48.7968 36.8814 49.0113 37.5 48.9995C38.1186 49.0113 38.7423 48.7968 39.2293 48.3516C40.3328 47.3429 41.8278 45.8794 43.0901 44.4752C43.7187 43.7761 44.3246 43.053 44.8014 42.3843C45.0396 42.0502 45.2703 41.6955 45.4593 41.3388C45.6328 41.0115 45.8496 40.5391 45.9351 39.9973C46.1724 38.4933 45.7575 36.9906 44.7137 35.8458C43.6821 34.7144 42.2053 34.1105 40.6135 34.0135C39.3918 33.939 38.3443 34.1796 37.5 34.5779Z"
            fill="#4E4D4E" />
        <rect x="-1" width="100" height="100" fill="#DC7BAB" fill-opacity="0.2" />
    </g>
    <defs>
        <clipPath id="clip0_2044_1193">
            <rect width="100" height="100" fill="white" />
        </clipPath>
    </defs>
</svg>