<svg width="100" height="100" viewBox="0 0 100 100" fill="none" xmlns="http://www.w3.org/2000/svg">
    <!-- <rect width="100" height="100" fill="#84AC52" /> -->
    <path
        d="M25 79.5H66.5C69.1667 79.6667 74.5 78.2 74.5 71C74.5 63.8 69.1667 61 66.5 60.5H50.5C48.1667 60.5 43.5 58.7 43.5 51.5C43.5 44.3 48.1667 42.1667 50.5 42H66.5M25 79.5C25 79.5 17 72 17 64.5C17 63 18 57.5 24.5 57.5C31 57.5 32 63.5 32 64.5C32 72 25 79.5 25 79.5Z"
        stroke="#4E4D4E" stroke-width="6" stroke-linecap="round" stroke-linejoin="round" />
    <circle cx="24.5" cy="65" r="2" fill="#4E4D4E" />
    <path fill-rule="evenodd" clip-rule="evenodd"
        d="M67.5 20.5779C66.6557 20.1796 65.6082 19.939 64.3865 20.0135C62.7947 20.1105 61.3179 20.7144 60.2863 21.8458C59.2425 22.9906 58.8276 24.4933 59.0649 25.9973C59.1504 26.5391 59.3672 27.0115 59.5407 27.3388C59.7297 27.6955 59.9604 28.0502 60.1986 28.3843C60.6754 29.053 61.2813 29.7761 61.9099 30.4752C63.1722 31.8794 64.6672 33.3429 65.7707 34.3516C66.2577 34.7968 66.8814 35.0113 67.5 34.9995C68.1186 35.0113 68.7423 34.7968 69.2293 34.3516C70.3328 33.3429 71.8278 31.8794 73.0901 30.4752C73.7187 29.7761 74.3246 29.053 74.8014 28.3843C75.0396 28.0502 75.2703 27.6955 75.4593 27.3388C75.6328 27.0115 75.8496 26.5391 75.9351 25.9973C76.1724 24.4933 75.7575 22.9906 74.7137 21.8458C73.6821 20.7144 72.2053 20.1105 70.6135 20.0135C69.3918 19.939 68.3443 20.1796 67.5 20.5779Z"
        fill="#4E4D4E" />
</svg>