<svg width="100" height="100" viewBox="0 0 100 100" fill="none" xmlns="http://www.w3.org/2000/svg">
    <!-- <rect width="100" height="100" fill="#AA812A" /> -->
    <path d="M30 59.5V14H69V59.5H30Z" stroke="#4E4D4E" stroke-width="6" stroke-linecap="round"
        stroke-linejoin="round" />
    <path d="M21 85.5V68C22.8333 72 30.9 80 48.5 80C66.1 80 75.1667 72 77.5 68V85.5" stroke="#4E4D4E" stroke-width="6"
        stroke-linecap="round" stroke-linejoin="round" />
    <circle cx="21" cy="61" r="3" fill="#4E4D4E" />
    <circle cx="78" cy="61" r="3" fill="#4E4D4E" />
    <path fill-rule="evenodd" clip-rule="evenodd"
        d="M49.5 24.5779C48.6557 24.1796 47.6082 23.939 46.3865 24.0135C44.7947 24.1105 43.3179 24.7144 42.2863 25.8458C41.2425 26.9906 40.8276 28.4933 41.0649 29.9973C41.1504 30.5391 41.3672 31.0115 41.5407 31.3388C41.7297 31.6955 41.9604 32.0502 42.1986 32.3843C42.6754 33.053 43.2813 33.7761 43.9099 34.4752C45.1722 35.8794 46.6672 37.3429 47.7707 38.3516C48.2577 38.7968 48.8814 39.0113 49.5 38.9995C50.1186 39.0113 50.7423 38.7968 51.2293 38.3516C52.3328 37.3429 53.8278 35.8794 55.0901 34.4752C55.7187 33.7761 56.3246 33.053 56.8014 32.3843C57.0396 32.0502 57.2703 31.6955 57.4593 31.3388C57.6328 31.0115 57.8496 30.5391 57.9351 29.9973C58.1724 28.4933 57.7575 26.9906 56.7137 25.8458C55.6821 24.7144 54.2053 24.1105 52.6135 24.0135C51.3918 23.939 50.3443 24.1796 49.5 24.5779Z"
        fill="#4E4D4E" />
    <path
        d="M56 42.3764C56 40.2629 56.508 40.4761 57.2 38.9003C57.4308 39.6882 57.6615 40.1053 58.3077 40.4761C58.3077 40.4761 59 37.9424 59 37C60 38.0351 62 40.5596 62 42.3764C62 44.6475 59.9692 45.25 59.1385 45.25C58.3077 45.25 56 45.0183 56 42.3764Z"
        stroke="#4E4D4E" stroke-width="2" stroke-linecap="round" stroke-linejoin="round" />
    <path
        d="M38 43.3764C38 41.2629 38.508 41.4761 39.2 39.9003C39.4308 40.6882 39.6615 41.1053 40.3077 41.4761C40.3077 41.4761 41 38.9424 41 38C42 39.0351 44 41.5596 44 43.3764C44 45.6475 41.9692 46.25 41.1385 46.25C40.3077 46.25 38 46.0183 38 43.3764Z"
        stroke="#4E4D4E" stroke-width="2" stroke-linecap="round" stroke-linejoin="round" />
    <path
        d="M46 49.1685C46 46.3506 47 46 47.6 44.5337C47.9077 45.5843 48.2154 46.1405 49.0769 46.6348C49.0769 46.6348 50 43.2566 50 42C51.3333 43.3801 54 46.7461 54 49.1685C54 52.1966 51.2923 53 50.1846 53C49.0769 53 46 52.691 46 49.1685Z"
        stroke="#4E4D4E" stroke-width="2" stroke-linecap="round" stroke-linejoin="round" />
</svg>