<svg width="100" height="100" viewBox="0 0 100 100" fill="none" xmlns="http://www.w3.org/2000/svg">
    <g clip-path="url(#clip0_2044_1261)">
        <rect width="100" height="100" fill="#DD7CAC" />
        <path
            d="M12 62.5C18.5 62.5 19 58.5 24.75 58.5C30.5 58.5 31.5 62.5 37.5 62.5C43.5 62.5 44 58.5 50.25 58.5C56.5 58.5 57 62.5 63 62.5C69 62.5 70 58.5 75.75 58.5C81.5 58.5 83 62.5008 88.5 62.5"
            stroke="#4E4D4E" stroke-width="6" stroke-linecap="round" stroke-linejoin="round" />
        <path
            d="M12 77C18.5 77 19 73 24.75 73C30.5 73 31.5 77 37.5 77C43.5 77 44 73 50.25 73C56.5 73 57 77 63 77C69 77 70 73 75.75 73C81.5 73 83 77.0008 88.5 77"
            stroke="#4E4D4E" stroke-width="6" stroke-linecap="round" stroke-linejoin="round" />
        <path fill-rule="evenodd" clip-rule="evenodd"
            d="M41.5 25.3082C41.053 25.0958 40.4985 24.9675 39.8517 25.0072C39.009 25.0589 38.2271 25.381 37.681 25.9844C37.1284 26.595 36.9087 27.3964 37.0344 28.1985C37.0796 28.4875 37.1944 28.7395 37.2862 28.914C37.3863 29.1042 37.5084 29.2934 37.6346 29.4716C37.887 29.8283 38.2078 30.2139 38.5405 30.5868C39.2088 31.3357 40.0003 32.1162 40.5845 32.6542C40.8423 32.8916 41.1725 33.006 41.5 32.9998C41.8275 33.006 42.1577 32.8916 42.4155 32.6542C42.9997 32.1162 43.7912 31.3357 44.4595 30.5868C44.7922 30.2139 45.113 29.8283 45.3654 29.4716C45.4916 29.2934 45.6137 29.1042 45.7138 28.914C45.8056 28.7395 45.9204 28.4875 45.9656 28.1985C46.0913 27.3964 45.8716 26.595 45.319 25.9844C44.7729 25.381 43.991 25.0589 43.1483 25.0072C42.5015 24.9675 41.947 25.0958 41.5 25.3082Z"
            fill="#4E4D4E" />
        <path d="M56 43L61.25 40.5L66.5 43" stroke="#4E4D4E" stroke-width="4" stroke-linecap="round"
            stroke-linejoin="round" />
        <path d="M36 34.5L41.25 32L46.5 34.5" stroke="#4E4D4E" stroke-width="4" stroke-linecap="round"
            stroke-linejoin="round" />
        <path fill-rule="evenodd" clip-rule="evenodd"
            d="M61.5 33.3082C61.053 33.0958 60.4985 32.9675 59.8517 33.0072C59.009 33.0589 58.2271 33.381 57.681 33.9844C57.1284 34.595 56.9087 35.3964 57.0344 36.1985C57.0796 36.4875 57.1944 36.7395 57.2862 36.914C57.3863 37.1042 57.5084 37.2934 57.6346 37.4716C57.887 37.8283 58.2078 38.2139 58.5405 38.5868C59.2088 39.3357 60.0003 40.1162 60.5845 40.6542C60.8423 40.8916 61.1725 41.006 61.5 40.9998C61.8275 41.006 62.1577 40.8916 62.4155 40.6542C62.9997 40.1162 63.7912 39.3357 64.4595 38.5868C64.7922 38.2139 65.113 37.8283 65.3654 37.4716C65.4916 37.2934 65.6137 37.1042 65.7138 36.914C65.8056 36.7395 65.9204 36.4875 65.9656 36.1985C66.0913 35.3964 65.8716 34.595 65.319 33.9844C64.7729 33.381 63.991 33.0589 63.1483 33.0072C62.5015 32.9675 61.947 33.0958 61.5 33.3082Z"
            fill="#4E4D4E" />
        <rect x="-1" width="100" height="100" fill="#DC7BAB" fill-opacity="0.2" />
    </g>
    <defs>
        <clipPath id="clip0_2044_1261">
            <rect width="100" height="100" fill="white" />
        </clipPath>
    </defs>
</svg>