<svg width="100" height="100" viewBox="0 0 100 100" fill="none" xmlns="http://www.w3.org/2000/svg">
    <g clip-path="url(#clip0_1946_1469)">
        <!-- <rect width="100" height="100" fill="#EDE182" /> -->
        <circle cx="75" cy="40" r="10" stroke="#4E4D4E" stroke-width="6" />
        <path d="M69.5 34L80.5 46" stroke="#4E4D4E" stroke-width="6" stroke-linecap="round" stroke-linejoin="round" />
        <path
            d="M79 55.5C79 71.2401 66.2401 84 50.5 84C44.513 84 38.9572 82.1539 34.3708 79C32.7916 77.9141 26.8274 80.3741 25.5 79C24.2276 77.6828 27.581 72.5424 26.5795 71C23.6826 66.5385 22 61.2158 22 55.5C22 39.7599 34.7599 27 50.5 27C53.5 27 58 28 62 31"
            stroke="#4E4D4E" stroke-width="6" />
        <path fill-rule="evenodd" clip-rule="evenodd"
            d="M50.5 50.5779C49.6557 50.1796 48.6082 49.939 47.3865 50.0135C45.7947 50.1105 44.3179 50.7144 43.2863 51.8458C42.2425 52.9906 41.8276 54.4933 42.0649 55.9973C42.1504 56.5391 42.3672 57.0115 42.5407 57.3388C42.7297 57.6955 42.9604 58.0502 43.1986 58.3843C43.6754 59.053 44.2813 59.7761 44.9099 60.4752C46.1722 61.8794 47.6672 63.3429 48.7707 64.3516C49.2577 64.7968 49.8814 65.0113 50.5 64.9995C51.1186 65.0113 51.7423 64.7968 52.2293 64.3516C53.3328 63.3429 54.8278 61.8794 56.0901 60.4752C56.7187 59.7761 57.3246 59.053 57.8014 58.3843C58.0396 58.0502 58.2703 57.6955 58.4593 57.3388C58.6328 57.0115 58.8496 56.5391 58.9351 55.9973C59.1724 54.4933 58.7575 52.9906 57.7137 51.8458C56.6821 50.7144 55.2053 50.1105 53.6135 50.0135C52.3918 49.939 51.3443 50.1796 50.5 50.5779Z"
            fill="#4E4D4E" />
    </g>
    <defs>
        <clipPath id="clip0_1946_1469">
            <rect width="100" height="100" fill="white" />
        </clipPath>
    </defs>
</svg>