<svg width="100" height="100" viewBox="0 0 100 100" fill="none" xmlns="http://www.w3.org/2000/svg">
    <g clip-path="url(#clip0_1946_1475)">
        <!-- <rect width="100" height="100" fill="#B5B8BB" /> -->
        <path
            d="M22 49.4998H28M78 49.4998H70.5M70.5 49.4998C71.6667 41.6665 67 25.0007 64.5 24.9998C56.858 24.997 52.6667 28.6665 51.5 30.9998M70.5 49.4998H28M51.5 30.9998L53.5 32.4989M51.5 30.9998C49.1667 28.9998 42.9941 23.3135 38.5 24.9998C34.5 26.5007 29.5 41.3331 28 49.4998"
            stroke="#4E4D4E" stroke-width="6" stroke-linecap="round" stroke-linejoin="round" />
        <path d="M42 64C42 64 43.6 62 50 62C56.4 62 58 64 58 64" stroke="#4E4D4E" stroke-width="2"
            stroke-linecap="round" stroke-linejoin="round" />
        <path d="M28 17H16.5V28.5" stroke="#4E4D4E" stroke-width="6" stroke-linecap="round" stroke-linejoin="round" />
        <path d="M17 70V81.5H28.5" stroke="#4E4D4E" stroke-width="6" stroke-linecap="round" stroke-linejoin="round" />
        <path d="M70.5 17H82V28.5" stroke="#4E4D4E" stroke-width="6" stroke-linecap="round" stroke-linejoin="round" />
        <path d="M81.5 70V81.5H70" stroke="#4E4D4E" stroke-width="6" stroke-linecap="round" stroke-linejoin="round" />
        <path fill-rule="evenodd" clip-rule="evenodd"
            d="M37.5 58.5779C36.6557 58.1796 35.6082 57.939 34.3865 58.0135C32.7947 58.1105 31.3179 58.7144 30.2863 59.8458C29.2425 60.9906 28.8276 62.4933 29.0649 63.9973C29.1504 64.5391 29.3672 65.0115 29.5407 65.3388C29.7297 65.6955 29.9604 66.0502 30.1986 66.3843C30.6754 67.053 31.2813 67.7761 31.9099 68.4752C33.1722 69.8794 34.6672 71.3429 35.7707 72.3516C36.2577 72.7968 36.8814 73.0113 37.5 72.9995C38.1186 73.0113 38.7423 72.7968 39.2293 72.3516C40.3328 71.3429 41.8278 69.8794 43.0901 68.4752C43.7187 67.7761 44.3246 67.053 44.8014 66.3843C45.0396 66.0502 45.2703 65.6955 45.4593 65.3388C45.6328 65.0115 45.8496 64.5391 45.9351 63.9973C46.1724 62.4933 45.7575 60.9906 44.7137 59.8458C43.6821 58.7144 42.2053 58.1105 40.6135 58.0135C39.3918 57.939 38.3443 58.1796 37.5 58.5779Z"
            fill="#4E4D4E" />
        <path fill-rule="evenodd" clip-rule="evenodd"
            d="M63.5 58.5779C62.6557 58.1796 61.6082 57.939 60.3865 58.0135C58.7947 58.1105 57.3179 58.7144 56.2863 59.8458C55.2425 60.9906 54.8276 62.4933 55.0649 63.9973C55.1504 64.5391 55.3672 65.0115 55.5407 65.3388C55.7297 65.6955 55.9604 66.0502 56.1986 66.3843C56.6754 67.053 57.2813 67.7761 57.9099 68.4752C59.1722 69.8794 60.6672 71.3429 61.7707 72.3516C62.2577 72.7968 62.8814 73.0113 63.5 72.9995C64.1186 73.0113 64.7423 72.7968 65.2293 72.3516C66.3328 71.3429 67.8278 69.8794 69.0901 68.4752C69.7187 67.7761 70.3246 67.053 70.8014 66.3843C71.0396 66.0502 71.2703 65.6955 71.4593 65.3388C71.6328 65.0115 71.8496 64.5391 71.9351 63.9973C72.1724 62.4933 71.7575 60.9906 70.7137 59.8458C69.6821 58.7144 68.2053 58.1105 66.6135 58.0135C65.3918 57.939 64.3443 58.1796 63.5 58.5779Z"
            fill="#4E4D4E" />
    </g>
    <defs>
        <clipPath id="clip0_1946_1475">
            <rect width="100" height="100" fill="white" />
        </clipPath>
    </defs>
</svg>