<svg width="100" height="100" viewBox="0 0 100 100" fill="none" xmlns="http://www.w3.org/2000/svg">
    <g clip-path="url(#clip0_2044_1305)">
        <rect width="100" height="100" fill="#DD7CAC" />
        <path
            d="M45.33 19.88L43.8408 20.0597L44.0205 21.5489L44.9189 28.9949L37.8984 29.842L36.4092 30.0217L36.5889 31.5109L36.9483 34.4893L37.128 35.9785L38.6172 35.7988L45.6377 34.9517L46.5361 42.3977L46.7158 43.8869L48.205 43.7072L51.0416 43.3649L52.5308 43.1853L52.3511 41.6961L51.4526 34.2501L58.4732 33.403L59.9624 33.2233L59.7827 31.7341L59.4233 28.7557L59.2436 27.2665L57.7544 27.4462L50.7339 28.2933L49.8355 20.8473L49.6558 19.3581L48.1666 19.5378L45.33 19.88Z"
            stroke="#4E4D4E" stroke-width="3" />
        <path
            d="M45.0615 86.8691L15.774 90.4029C15.2256 90.4691 14.7275 90.0782 14.6614 89.5299L8.49965 38.4628C8.43349 37.9145 8.82435 37.4163 9.37265 37.3502L18.3078 36.2721C18.8562 36.2059 19.247 35.7078 19.1809 35.1595L16.8375 15.7378C16.7713 15.1895 17.1622 14.6914 17.7105 14.6253L71.818 8.09668C72.3663 8.03053 72.8645 8.42139 72.9306 8.96969L75.274 28.3913C75.3402 28.9396 75.8383 29.3305 76.3866 29.2643L86.811 28.0065C87.3593 27.9404 87.8574 28.3312 87.9236 28.8795L94.0853 79.9467C94.1515 80.495 93.7606 80.9931 93.2123 81.0592L63.9247 84.5931M45.0615 86.8691L42.3737 64.5931C42.3076 64.0448 42.6984 63.5467 43.2467 63.4806L60.1243 61.4441C60.6726 61.378 61.1708 61.7688 61.2369 62.3171L63.9247 84.5931M45.0615 86.8691L63.9247 84.5931"
            stroke="#4E4D4E" stroke-width="6" stroke-linecap="round" />
        <rect x="-1" width="100" height="100" fill="#DC7BAB" fill-opacity="0.2" />
    </g>
    <defs>
        <clipPath id="clip0_2044_1305">
            <rect width="100" height="100" fill="white" />
        </clipPath>
    </defs>
</svg>