<svg width="100" height="100" viewBox="0 0 100 100" fill="none" xmlns="http://www.w3.org/2000/svg">
    <!-- <rect width="100" height="100" fill="#2A6495" /> -->
    <path
        d="M45.0615 86.8688L15.774 90.4027C15.2256 90.4688 14.7275 90.078 14.6614 89.5296L8.49965 38.4625C8.43349 37.9142 8.82435 37.4161 9.37265 37.3499L18.3078 36.2718C18.8562 36.2057 19.247 35.7075 19.1809 35.1592L16.8375 15.7376C16.7713 15.1893 17.1622 14.6912 17.7105 14.625L71.818 8.09644C72.3663 8.03028 72.8645 8.42114 72.9306 8.96945L75.274 28.3911C75.3402 28.9394 75.8383 29.3303 76.3866 29.2641L86.811 28.0063C87.3593 27.9401 87.8574 28.331 87.9236 28.8793L94.0853 79.9464C94.1515 80.4947 93.7606 80.9928 93.2123 81.059L63.9247 84.5928M45.0615 86.8688L42.3737 64.5929C42.3076 64.0446 42.6984 63.5465 43.2467 63.4803L60.1243 61.4439C60.6726 61.3777 61.1708 61.7686 61.2369 62.3169L63.9247 84.5928M45.0615 86.8688L63.9247 84.5928"
        stroke="#FCFCFC" stroke-width="6" stroke-linecap="round" />
    <path
        d="M45.33 19.88L43.8408 20.0597L44.0205 21.5489L44.9189 28.9949L37.8984 29.842L36.4092 30.0217L36.5889 31.5109L36.9483 34.4893L37.128 35.9785L38.6172 35.7988L45.6377 34.9517L46.5361 42.3977L46.7158 43.8869L48.205 43.7072L51.0416 43.3649L52.5308 43.1853L52.3511 41.6961L51.4526 34.2501L58.4732 33.403L59.9624 33.2233L59.7827 31.7341L59.4233 28.7557L59.2436 27.2665L57.7544 27.4462L50.7339 28.2933L49.8355 20.8473L49.6558 19.3581L48.1666 19.5378L45.33 19.88Z"
        fill="#2A6495" stroke="white" stroke-width="3" />
    <path
        d="M45.0615 86.8688L15.774 90.4027C15.2256 90.4688 14.7275 90.078 14.6614 89.5296L8.49965 38.4625C8.43349 37.9142 8.82435 37.4161 9.37265 37.3499L18.3078 36.2718C18.8562 36.2057 19.247 35.7075 19.1809 35.1592L16.8375 15.7376C16.7713 15.1893 17.1622 14.6912 17.7105 14.625L71.818 8.09644C72.3663 8.03028 72.8645 8.42114 72.9306 8.96945L75.274 28.3911C75.3402 28.9394 75.8383 29.3303 76.3866 29.2641L86.811 28.0063C87.3593 27.9401 87.8574 28.331 87.9236 28.8793L94.0853 79.9464C94.1515 80.4947 93.7606 80.9928 93.2123 81.059L63.9247 84.5928M45.0615 86.8688L42.3737 64.5929C42.3076 64.0446 42.6984 63.5465 43.2467 63.4803L60.1243 61.4439C60.6726 61.3777 61.1708 61.7686 61.2369 62.3169L63.9247 84.5928M45.0615 86.8688L63.9247 84.5928"
        stroke="#FCFCFC" stroke-width="6" stroke-linecap="round" />
    <path
        d="M45.33 19.88L43.8408 20.0597L44.0205 21.5489L44.9189 28.9949L37.8984 29.842L36.4092 30.0217L36.5889 31.5109L36.9483 34.4893L37.128 35.9785L38.6172 35.7988L45.6377 34.9517L46.5361 42.3977L46.7158 43.8869L48.205 43.7072L51.0416 43.3649L52.5308 43.1853L52.3511 41.6961L51.4526 34.2501L58.4732 33.403L59.9624 33.2233L59.7827 31.7341L59.4233 28.7557L59.2436 27.2665L57.7544 27.4462L50.7339 28.2933L49.8355 20.8473L49.6558 19.3581L48.1666 19.5378L45.33 19.88Z"
        fill="#2A6495" stroke="white" stroke-width="3" />
</svg>