<svg width="100" height="100" viewBox="0 0 100 100" fill="none" xmlns="http://www.w3.org/2000/svg">
    <g clip-path="url(#clip0_2044_1129)">
        <rect width="100" height="100" fill="#DD7CAC" />
        <path
            d="M28 88.5L40.6085 37.581C40.7878 36.8569 40.1398 36.1985 39.413 36.3662L23.5488 40.0272C22.7281 40.2166 22.4949 41.2738 23.1598 41.7909L26 44"
            stroke="#4E4D4E" stroke-width="6" stroke-linecap="round" />
        <path
            d="M74 88.5L61.3915 37.581C61.2122 36.8569 61.8602 36.1985 62.587 36.3662L78.4512 40.0272C79.2719 40.2166 79.5051 41.2738 78.8402 41.7909L76 44"
            stroke="#4E4D4E" stroke-width="6" stroke-linecap="round" />
        <path d="M51 41V89" stroke="#4E4D4E" stroke-width="6" stroke-linecap="round" stroke-dasharray="6 10" />
        <path fill-rule="evenodd" clip-rule="evenodd"
            d="M50.371 9.72321C49.3408 9.22473 48.0629 8.92369 46.5722 9.01685C44.63 9.13824 42.8281 9.89399 41.5694 11.3099C40.2959 12.7425 39.7896 14.623 40.0792 16.5051C40.1835 17.1832 40.448 17.7743 40.6597 18.1839C40.8903 18.6302 41.1718 19.0741 41.4624 19.4922C42.0442 20.3291 42.7835 21.234 43.5504 22.1089C45.0907 23.8661 46.9147 25.6975 48.261 26.9598C48.8553 27.5169 49.6163 27.7854 50.371 27.7707C51.1258 27.7854 51.8868 27.5169 52.481 26.9598C53.8274 25.6975 55.6514 23.8661 57.1917 22.1089C57.9586 21.234 58.6979 20.3291 59.2797 19.4922C59.5703 19.0741 59.8518 18.6302 60.0824 18.1839C60.2941 17.7743 60.5586 17.1832 60.6629 16.5051C60.9525 14.623 60.4462 12.7425 59.1727 11.3099C57.914 9.89399 56.1121 9.13824 54.1699 9.01685C52.6792 8.92369 51.4013 9.22473 50.371 9.72321Z"
            fill="#4E4D4E" />
        <rect x="-1" width="100" height="100" fill="#DC7BAB" fill-opacity="0.2" />
    </g>
    <defs>
        <clipPath id="clip0_2044_1129">
            <rect width="100" height="100" fill="white" />
        </clipPath>
    </defs>
</svg>