<svg width="100" height="100" viewBox="0 0 100 100" fill="none" xmlns="http://www.w3.org/2000/svg">
    <!-- <rect width="100" height="100" fill="#84AC52" /> -->
    <path
        d="M85.0714 41.2167L48.7935 19.3143C48.4736 19.1212 48.0729 19.1225 47.7543 19.3176L13.3763 40.3737C12.7432 40.7614 12.7385 41.6795 13.3676 42.0738L25.1423 49.4534M85.0714 41.2167L72.9805 48.6862M85.0714 41.2167V60.3333M25.1423 49.4534L47.7456 63.6196C48.0684 63.8219 48.4781 63.8232 48.8022 63.623L72.9805 48.6862M25.1423 49.4534V67.4964C25.1423 67.8588 25.3384 68.1928 25.6548 68.3695L47.801 80.7365C48.0954 80.9009 48.453 80.9059 48.7518 80.7496L72.4438 68.3639C72.7737 68.1914 72.9805 67.85 72.9805 67.4777V48.6862"
        stroke="#4E4D4E" stroke-width="6" stroke-linecap="round" stroke-linejoin="round" />
    <path fill-rule="evenodd" clip-rule="evenodd"
        d="M86.0703 66.0119C85.3005 65.6591 84.3455 65.446 83.2316 65.5119C81.7802 65.5978 80.4337 66.1327 79.4931 67.1349C78.5414 68.1488 78.1631 69.4798 78.3795 70.8119C78.4574 71.2918 78.6551 71.7102 78.8133 72.0001C78.9856 72.316 79.1959 72.6302 79.4132 72.9261C79.8479 73.5184 80.4003 74.1588 80.9734 74.7781C82.1244 76.0218 83.4875 77.318 84.4936 78.2114C84.9376 78.6057 85.5063 78.7957 86.0703 78.7853C86.6343 78.7957 87.203 78.6057 87.6471 78.2114C88.6532 77.318 90.0162 76.0218 91.1672 74.7781C91.7403 74.1588 92.2927 73.5184 92.7275 72.9261C92.9447 72.6302 93.155 72.316 93.3274 72.0001C93.4855 71.7102 93.6832 71.2918 93.7611 70.8119C93.9775 69.4798 93.5992 68.1488 92.6475 67.1349C91.707 66.1327 90.3604 65.5978 88.9091 65.5119C87.7952 65.446 86.8402 65.6591 86.0703 66.0119Z"
        fill="#4E4D4E" />
</svg>