<svg width="100" height="100" viewBox="0 0 100 100" fill="none" xmlns="http://www.w3.org/2000/svg">
    <g clip-path="url(#clip0_2044_1234)">
        <rect width="100" height="100" fill="#DD7CAC" />
        <path
            d="M24.2579 17C20.9982 17.5964 14.39 20.0418 14.0344 25.0518C13.5899 31.3143 17.5904 34.4456 18.0349 40.7081C18.4794 46.9706 16.2572 65.3108 30.4812 65.3108M30.4812 65.3108C44.7052 65.3108 43.3717 46.5232 43.3717 40.7081C43.3717 34.8929 48.2612 30.4197 47.8167 25.0518C47.4611 20.7575 40.8529 17.8946 37.5932 17M30.4812 65.3108C30.4812 85 31 85 45 85C59 85 54.5 78.9456 54.5 61.5C54.5 44.0544 55 35.5 63 35.5M63 35.5L67 32V38.7081L63 35.5Z"
            stroke="#4E4D4E" stroke-width="6" stroke-linecap="round" stroke-linejoin="round" />
        <path fill-rule="evenodd" clip-rule="evenodd"
            d="M83.371 28.7232C82.3408 28.2247 81.0629 27.9237 79.5722 28.0169C77.63 28.1382 75.8281 28.894 74.5694 30.3099C73.2959 31.7425 72.7896 33.623 73.0792 35.5051C73.1835 36.1832 73.448 36.7743 73.6597 37.1839C73.8903 37.6302 74.1718 38.0741 74.4624 38.4922C75.0442 39.3291 75.7835 40.234 76.5504 41.1089C78.0907 42.8661 79.9147 44.6975 81.261 45.9598C81.8553 46.5169 82.6163 46.7854 83.371 46.7707C84.1258 46.7854 84.8868 46.5169 85.481 45.9598C86.8274 44.6975 88.6514 42.8661 90.1917 41.1089C90.9586 40.234 91.6979 39.3291 92.2797 38.4922C92.5703 38.0741 92.8518 37.6302 93.0824 37.1839C93.2941 36.7743 93.5586 36.1832 93.6629 35.5051C93.9525 33.623 93.4462 31.7425 92.1727 30.3099C90.914 28.894 89.1121 28.1382 87.1699 28.0169C85.6792 27.9237 84.4013 28.2247 83.371 28.7232Z"
            fill="#4E4D4E" />
        <rect x="-1" width="100" height="100" fill="#DC7BAB" fill-opacity="0.2" />
    </g>
    <defs>
        <clipPath id="clip0_2044_1234">
            <rect width="100" height="100" fill="white" />
        </clipPath>
    </defs>
</svg>