<svg width="100" height="100" viewBox="0 0 100 100" fill="none" xmlns="http://www.w3.org/2000/svg">
    <g clip-path="url(#clip0_2044_1101)">
        <rect width="100" height="100" fill="#DD7CAC" />
        <path fill-rule="evenodd" clip-rule="evenodd"
            d="M63 27.1066C62.7312 27.0792 62.4597 27.057 62.1857 27.0398C61.0593 26.9694 59.9971 26.9947 59 27.0972V65.9162C60.3179 64.5832 61.6667 63.188 63 61.7698V27.1066ZM66 58.5061C66.4071 58.0524 66.8091 57.5993 67.2044 57.1482C69.503 54.5259 71.6215 51.9223 73.2336 49.6036C74.0394 48.4445 74.7487 47.3139 75.2953 46.256C75.823 45.235 76.2917 44.1075 76.4637 42.9894C77.0917 38.9072 75.9931 34.996 73.3657 32.0404C71.504 29.9462 68.9798 28.445 66 27.6499V58.5061ZM42 27.0431C41.1906 26.9883 40.3406 26.9842 39.4505 27.0398C38.6085 27.0925 37.7906 27.1936 37 27.3415V60.0088C38.6429 61.7988 40.3398 63.5784 42 65.2703V27.0431ZM45 68.2741C46.2708 69.5241 47.4818 70.6867 48.5858 71.7218C49.2121 72.3091 50.0237 72.5756 50.8181 72.5278C51.6125 72.5756 52.4241 72.3091 53.0504 71.7218C53.9687 70.8609 54.9609 69.9118 56 68.8975V27.6766C53.8565 28.2982 52.1255 29.2811 50.8181 30.3383C49.3837 29.1784 47.4395 28.1079 45 27.506V68.2741ZM28.2705 32.0404C29.9982 30.0969 32.2965 28.6641 35 27.8325V57.7928C34.8092 57.5776 34.6197 57.3627 34.4318 57.1482C32.1332 54.5259 30.0147 51.9223 28.4026 49.6036C27.5968 48.4445 26.8875 47.3139 26.3409 46.256C25.8132 45.235 25.3446 44.1075 25.1725 42.9894C24.5445 38.9072 25.6431 34.996 28.2705 32.0404Z"
            fill="#4E4D4E" />
        <path
            d="M17 16H21.0301M84 16H80.4737M80.4737 16V85M80.4737 16H61.3233M61.3233 16V85M61.3233 16H39.9211M39.9211 16V85M39.9211 16H21.0301M21.0301 16V84C21.0301 84.5523 20.5824 85 20.0301 85H17H84"
            stroke="#4E4D4E" stroke-width="6" stroke-linecap="round" stroke-linejoin="round" />
        <rect x="-1" width="100" height="100" fill="#DC7BAB" fill-opacity="0.2" />
    </g>
    <defs>
        <clipPath id="clip0_2044_1101">
            <rect width="100" height="100" fill="white" />
        </clipPath>
    </defs>
</svg>