<svg width="100" height="100" viewBox="0 0 100 100" fill="none" xmlns="http://www.w3.org/2000/svg">
    <!-- <rect width="100" height="100" fill="#EDE182" /> -->
    <path d="M48 85V66M38 55L48 47.0588M55 41.5L48 47.0588M48 66H42.5H48.25H54M48 66V47.0588" stroke="#4E4D4E"
        stroke-width="6" stroke-linecap="round" stroke-linejoin="round" />
    <circle cx="60.5" cy="36.5" r="9.5" fill="#4E4D4E" />
    <path d="M16.5 87.5H80.5" stroke="#4E4D4E" stroke-width="6" stroke-linecap="round" stroke-linejoin="round" />
    <path fill-rule="evenodd" clip-rule="evenodd"
        d="M80.371 8.72321C79.3408 8.22473 78.0629 7.92369 76.5722 8.01685C74.63 8.13824 72.8281 8.89399 71.5694 10.3099C70.2959 11.7425 69.7896 13.623 70.0792 15.5051C70.1835 16.1832 70.448 16.7743 70.6597 17.1839C70.8903 17.6302 71.1718 18.0741 71.4624 18.4922C72.0442 19.3291 72.7835 20.234 73.5504 21.1089C75.0907 22.8661 76.9147 24.6975 78.261 25.9598C78.8553 26.5169 79.6163 26.7854 80.371 26.7707C81.1258 26.7854 81.8868 26.5169 82.481 25.9598C83.8274 24.6975 85.6514 22.8661 87.1917 21.1089C87.9586 20.234 88.6979 19.3291 89.2797 18.4922C89.5703 18.0741 89.8518 17.6302 90.0824 17.1839C90.2941 16.7743 90.5586 16.1832 90.6629 15.5051C90.9525 13.623 90.4462 11.7425 89.1727 10.3099C87.914 8.89399 86.1121 8.13824 84.1699 8.01685C82.6792 7.92369 81.4013 8.22473 80.371 8.72321Z"
        fill="#4E4D4E" />
</svg>