<svg   fill="none" viewBox="0 0 14 14">
    <g transform="matrix(1,0,0,-1,0,28)">
        <path d="M6.99995859375,16.15380859375C9.676488593750001,16.15380859375,11.84611859375,18.323428593750002,11.84611859375,20.99995859375C11.84611859375,23.67648859375,9.67649859375,25.84611859375,6.99995859375,25.84611859375C4.32342859375,25.84611859375,2.15380859375,23.67648859375,2.15380859375,20.99995859375C2.15380859375,18.323428593750002,4.32342859375,16.15380859375,6.99995859375,16.15380859375ZM6.99995859375,16.88073159375C4.72493859375,16.88073159375,2.88073159375,18.72493859375,2.88073159375,20.99995859375C2.88073159375,23.27498859375,4.72493859375,25.11918859375,6.99995859375,25.11918859375C9.274988593749999,25.11918859375,11.11918859375,23.27498859375,11.11918859375,20.99995859375C11.11918859375,18.72493859375,9.274988593749999,16.88073159375,6.99995859375,16.88073159375ZM6.99995859375,22.69611859375C7.26760859375,22.69611859375,7.48457859375,22.91308859375,7.48457859375,23.18072859375C7.48457859375,23.44837859375,7.26760859375,23.66534859375,6.99995859375,23.66534859375C6.73231859375,23.66534859375,6.51534859375,23.44837859375,6.51534859375,23.18072859375C6.51534859375,22.91308859375,6.73231859375,22.69611859375,6.99995859375,22.69611859375ZM6.99995859375,18.57688859375C7.20069859375,18.57688859375,7.36342859375,18.73960859375,7.36342859375,18.94034859375L7.36342859375,21.84803859375C7.36342859375,22.04877859375,7.20069859375,22.21149859375,6.99995859375,22.21149859375C6.79922859375,22.21149859375,6.63649859375,22.04877859375,6.63649859375,21.84803859375L6.63649859375,18.94034859375C6.63649859375,18.73960859375,6.79922859375,18.57688859375,6.99995859375,18.57688859375Z" fill="currentColor" fill-opacity="1" />
    </g>
</svg>