<svg   viewBox="0 0 1205 1024">
    <path d="M1157.01 463.841H924.792c-26.346 0-47.685 21.453-47.685 47.874v14.943c0 26.459 21.34 47.874 47.685 47.874h232.218c26.346 0 47.685-21.415 47.685-47.874v-14.943c0-26.42-21.34-47.874-47.685-47.874zM618.204 52.962C545.98 110.396 394.83 190.9 286.061 268.282l-0.151 0.075c-1.243 0.753-2.484 5.044-3.726 5.758-12.872 7.226-18.63 27.212-88.484 27.212H57.417c-34.964 0-56.68 16.37-56.68 53.293v328.19c0 36.921 19.908 55.138 56.68 55.138h136.846c69.515 0.113 75.16 19.947 87.957 27.174 1.243 0.714 2.446 5.006 3.726 5.758l0.151 0.075c105.345 77.38 257.51 164.172 332.143 219.234 22.469 16.597 97.215 45.767 97.215-56.794V105.389c0-102.597-75.348-69.815-97.253-52.428l0.002 0.001z m214.454 226.272c12.345 21.753 36.771 27.211 54.611 12.194l190.893-160.897c17.839-15.016 22.281-44.825 9.973-66.616l-7-12.307c-12.308-21.753-36.771-27.212-54.574-12.194L835.668 200.273c-17.84 15.054-22.319 44.862-9.974 66.616l6.963 12.345h0.001z m54.573 468.538c-17.839-15.016-42.266-9.56-54.61 12.157l-6.964 12.307c-12.345 21.753-7.828 51.562 9.974 66.617l190.893 160.858c17.839 15.017 42.265 9.56 54.573-12.157l7.001-12.307c12.307-21.753 7.829-51.562-9.973-66.616L887.232 747.772z" fill="currentColor"></path>
</svg>