<svg viewBox="0 0 20 20"><g transform="translate(-238 -657)"><rect fill="none" width="20" height="20" transform="translate(238 657)"/><g transform="translate(113.278 252.591)"><path fill="currentColor" d="M136.921,413.389s.035,6.288.035,6.5h.845s-.035-3.906.07-4.4.563-3.59.563-3.59Z"/><path fill="none" stroke="currentColor" stroke-miterlimit="10" d="M125.746,419.014a11.087,11.087,0,0,1,3.244-2.528s2.652-.082,2.986-.5,3.537-6.582,4.382-7.11,4.329,2.358.739,4.153c0,0-2.393.2-4.046,6.057a.768.768,0,0,1-.688.562c-1.328.077-4.752.195-6.584-.483A.092.092,0,0,1,125.746,419.014Z"/></g></g></svg>