<svg   viewBox="0 0 28 28">
    <g transform="translate(-1490 -226)">
        <path fill="currentColor" stroke-width="0" d="M16284.648-4017.5h-16.666a2.423,2.423,0,0,1-2.42-2.42v-.609l5.171-3.982,3.426,2.939a.755.755,0,0,0,.489.181.755.755,0,0,0,.5-.193l5.049-4.554,6.863,6.24A2.426,2.426,0,0,1,16284.648-4017.5Zm2.416-4.427h0l-6.354-5.775a.744.744,0,0,0-.5-.195.741.741,0,0,0-.5.195l-5.064,4.562-3.39-2.906a.748.748,0,0,0-.487-.181.744.744,0,0,0-.456.156l-4.742,3.649v-14.159a2.423,2.423,0,0,1,2.42-2.42h16.666a2.421,2.421,0,0,1,2.416,2.42v14.656Zm-14.078-13.188a3.536,3.536,0,0,0-3.532,3.532,3.536,3.536,0,0,0,3.532,3.532,3.533,3.533,0,0,0,3.527-3.532A3.533,3.533,0,0,0,16272.986-4035.111Zm0,5.563a2.035,2.035,0,0,1-2.032-2.032,2.034,2.034,0,0,1,2.032-2.031,2.034,2.034,0,0,1,2.031,2.031A2.034,2.034,0,0,1,16272.986-4029.547Z" transform="translate(-14772.563 4267.998)" />
    </g>
</svg>