<svg   viewBox="0 0 28.228 28">
    <g transform="translate(-1423 -600.854)">
        <path fill="currentColor" stroke-width="0.1px" d="M2.628-.75h0a15.042,15.042,0,0,1,2.864.582A34.494,34.494,0,0,0,9.328.658a6.421,6.421,0,0,0,.786.052,4.494,4.494,0,0,0,1.6-.288,2.873,2.873,0,0,1,.937-.2,1.667,1.667,0,0,1,.823.218c.372.2.961.777,2.511,3.47.975,1.692,1.9,3.476,2.158,3.983a4.564,4.564,0,0,0,2.914,2.139c.4.128.876.24,1.38.358,1.611.379,3.277.77,3.812,1.955a2.114,2.114,0,0,1-.159,1.909c-.112.258-.453.805-3.287,1.5a24.2,24.2,0,0,1-5.514.72,8.1,8.1,0,0,1-4.192-.9,12.046,12.046,0,0,1-2.358-1.84c-.757-.735-1.3-1.266-4.23-2.232-1.958-.646-3.273-1-4.233-1.254C.761,9.849.071,9.665-.36,8.9l-.016-.029-.014-.03c-.742-1.641-.193-3.992.4-5.675C.456,1.888,1.386-.181,1.961-.573A1.161,1.161,0,0,1,2.628-.75Zm7.486,2.96a7.923,7.923,0,0,1-.971-.063,35.494,35.494,0,0,1-4.019-.861A22.95,22.95,0,0,0,2.766.758,15.661,15.661,0,0,0,1.359,3.847c-.641,1.9-.782,3.436-.4,4.337.132.193.558.315,1.7.62.923.246,2.317.619,4.316,1.279,3.1,1.022,3.844,1.647,4.805,2.581a10.468,10.468,0,0,0,2.1,1.638,6.811,6.811,0,0,0,3.407.675,20.091,20.091,0,0,0,7.5-1.472.723.723,0,0,0,.095-.544c-.231-.511-1.77-.873-2.788-1.112-.535-.126-1.04-.244-1.5-.39l-.007,0a5.979,5.979,0,0,1-3.782-2.879c-.249-.484-1.133-2.192-2.073-3.831a12.643,12.643,0,0,0-1.995-3,.17.17,0,0,0-.089-.027,2.032,2.032,0,0,0-.46.123A5.939,5.939,0,0,1,10.114,2.21Z" transform="translate(1424.818 606.56) rotate(3)" />
    </g>
</svg>