<svg   viewBox="0 0 32 32">
  <g transform="translate(-1356 -2962)">
    <rect width="32" height="32" transform="translate(1356 2962)" fill="none" opacity="0.999" />
    <g transform="translate(1361 2969)">
      <path d="M458.535,945.807a4.261,4.261,0,0,0,5.493.437h0l5.876,2.4s.689.286.588.786a.793.793,0,0,1-.588.579l-11.719.241a2.8,2.8,0,0,1-1.811-1.531c-.707-1.183-2.215-6.111-8.135-9.5a5.576,5.576,0,0,1,2.045-5.855s3.065,3.94,4.066,5.583,1.918,3.757,2.875,5.312a6.973,6.973,0,0,0,1.309,1.545" transform="translate(-448.065 -933.367)" fill="none" stroke="currentColor" stroke-miterlimit="10" stroke-width="0.8" />
      <path d="M451.678,958.239h-.919s-.3-6.845-1.834-11.035a15.158,15.158,0,0,1,2.753,1.864Z" transform="translate(-448.542 -941.041)" fill="none" stroke="currentColor" stroke-miterlimit="10" stroke-width="0.8" />
    </g>
  </g>
</svg>