<svg   viewBox="0 0 32 32">
  <g transform="translate(-1266 -3000)">
    <rect width="32" height="32" transform="translate(1266 3000)" fill="none" opacity="0.999" />
    <g transform="translate(-165.998 -6)">
      <g transform="translate(1455.43 3019.892)">
        <path d="M353.518,1020.561c0,2.63-.576,3.087-.576,8.526" transform="translate(-351.759 -1020.561)" fill="none" stroke="currentColor" stroke-miterlimit="10" stroke-width="0.8" fill-rule="evenodd" />
        <path d="M351.735,1030.835a4.019,4.019,0,0,1-.011.524l-.647.021s-.409-5.657-.524-7.3" transform="translate(-350.553 -1022.339)" fill="none" stroke="currentColor" stroke-miterlimit="10" stroke-width="0.8" fill-rule="evenodd" />
      </g>
      <path d="M334.1,1005.978a14.625,14.625,0,0,1,1.136,3.6,3.218,3.218,0,0,1-.647,2.958,20.681,20.681,0,0,0-5.935,9.542c-.278.889-3.319,1.622-5.437,1.894-2.613.335-7.753.6-7.858-.349-.125-1.127,2.088-1.085,4.907-3.382,2.892-2.353,5.547-7.6,6.908-9.69s4.314-6.059,5.758-5.925c.652.06.9.762,1.168,1.353" transform="translate(1122.648 2007.378)" fill="none" stroke="currentColor" stroke-miterlimit="10" stroke-width="0.8" fill-rule="evenodd" />
      <path d="M328.308,1019c1.8.918,4.906-.277,5.972-1.211,1.293-1.14,4.265-5.708,5.136-7.058a8.507,8.507,0,0,0,1.1-4.466c-.077-.762-.272-1.555-1.035-1.619" transform="translate(1116.107 2007.366)" fill="none" stroke="currentColor" stroke-miterlimit="10" stroke-width="0.8" fill-rule="evenodd" />
      <path d="M341.763,1014.656c-3.174-.084-3.8,5.486-9.8,9.687" transform="translate(1114.262 2002.313)" fill="none" stroke="currentColor" stroke-miterlimit="10" stroke-width="0.8" fill-rule="evenodd" />
    </g>
  </g>
</svg>