<svg   viewBox="0 0 32 32">
  <g transform="translate(-1309 -2962)">
    <rect width="32" height="32" transform="translate(1309 2962)" fill="none" opacity="0.999" />
    <g transform="translate(1321 2967)">
      <path d="M405.312,933.95c-1.506-.067-2.255,1.547-2.375,5.787-.1,3.386-.655,7.3-.526,9.006a3.1,3.1,0,0,0,3.112,2.623,2.8,2.8,0,0,0,3.067-2.745c.162-1.777-.727-6.5-1.019-9.357C407.449,938.066,407.165,934.033,405.312,933.95Z" transform="translate(-401.098 -933.948)" fill="none" stroke="currentColor" stroke-miterlimit="10" stroke-width="0.8" />
      <path d="M402.3,937.236a10.3,10.3,0,0,0-1.023,3.5c-.078.623-.121,7.412-.754,8.777a5.688,5.688,0,0,0-.108,4.469c.509,1.168,2.692,4.092,4.254,4.092,1.4,0,4.444-4.882,4.092-6.623-1.242-6.146-1.252-8.185-1.777-11.092a7.186,7.186,0,0,0-.969-2.746" transform="translate(-399.999 -935.459)" fill="none" stroke="currentColor" stroke-miterlimit="10" stroke-width="0.8" />
      <path d="M408.713,952.109c.162-2.221-1.173-5.225-1.395-7.859-.093-1.108-.309-4.831-1.717-4.907-1.145-.062-1.713,1.428-1.8,5.341-.073,3.126-.876,5.813-.777,7.384" transform="translate(-401.382 -936.425)" fill="none" stroke="currentColor" stroke-miterlimit="10" stroke-width="0.8" />
    </g>
  </g>
</svg>