<svg   viewBox="0 0 28 28">
    <g transform="translate(-37 -87)">
        <g transform="translate(35 84)">
            <path fill="currentColor" d="M10648.738-4387.595v-9.285l-.011.007-3.467,2.424a12.593,12.593,0,0,0-3.6,3.86l-2.028,3.381a.754.754,0,0,1-.645.363h-12.242a.752.752,0,0,1-.751-.751v-2.331a.747.747,0,0,1,.39-.657c1.353-.743,5.622-3.354,7.522-4.63a.759.759,0,0,1,.791-.029,3.552,3.552,0,0,0,1.748.537c2.254,0,3.63-3.269,4.29-4.841,1.083-2.574,3.393-4.811,5.079-6.444.291-.283.569-.551.8-.789a.752.752,0,0,1,.531-.222.729.729,0,0,1,.388.109c.043.024.091.054.145.085.858.5,3.133,1.82,3.133,4.638a8.984,8.984,0,0,1-.6,3.316.778.778,0,0,1,.021.18v11.077a.752.752,0,0,1-.751.751A.749.749,0,0,1,10648.738-4387.595Z" transform="translate(-10622.75 4414.25)" />
            <path fill="currentColor" d="M43,21V32.077" transform="translate(-16.263 -5.421)" />
        </g>
    </g>
</svg>