<svg   viewBox="0 0 28.437 24.781">
  <path d="M95.681,149.741a.908.908,0,0,1-.427.1.935.935,0,0,1-.825-.487l-.067-.129-2.6-5.6a.419.419,0,0,1-.032-.195.448.448,0,0,1,.462-.456.528.528,0,0,1,.3.1l3.065,2.147a1.609,1.609,0,0,0,.79.226,1.316,1.316,0,0,0,.494-.1l14.371-6.309A15.313,15.313,0,0,0,99.571,134.1c-7.844,0-14.238,5.237-14.238,11.707a11,11,0,0,0,4.91,8.846.957.957,0,0,1,.395.748.886.886,0,0,1-.067.292c-.229.877-.628,2.311-.628,2.374a1.176,1.176,0,0,0-.067.358.448.448,0,0,0,.462.456.376.376,0,0,0,.264-.1l3.1-1.789a1.588,1.588,0,0,1,.758-.226,1.831,1.831,0,0,1,.427.066,16.756,16.756,0,0,0,4.648.651c7.844,0,14.238-5.237,14.238-11.707a10.182,10.182,0,0,0-1.615-5.432L95.78,149.675l-.1.066Z" transform="translate(-85.333 -134.095)" fill="currentColor" />
</svg>