<svg width="100" height="100" viewBox="0 0 100 100" fill="none" xmlns="http://www.w3.org/2000/svg">
    <path d="M51 36.5V30.5" stroke="#D2D2D2" stroke-width="6" stroke-linecap="round" stroke-linejoin="round" />
    <path d="M22.6427 27.22C22.6427 27.22 18.8205 25.0679 14.6346 28.153C10.4486 31.238 11.3727 35.5259 11.3727 35.5259"
        stroke="white" stroke-width="6" stroke-linecap="round" stroke-linejoin="round" />
    <path
        d="M88.4181 36.3285C88.4181 36.3285 89.7502 32.1493 85.8803 28.676C82.0103 25.2028 77.999 26.9774 77.999 26.9774"
        stroke="#E7E4DC" stroke-width="6" stroke-linecap="round" stroke-linejoin="round" />
    <path
        d="M25.0836 55.3855C25.0836 50.6886 25.749 48.0257 26.3882 46.6922C26.6748 46.0944 26.6797 45.1939 26.2316 44.7053C24.7274 43.0657 23.0335 40.5283 24.6681 38.8627C26.4499 37.0471 28.9164 38.4736 30.115 39.7048C30.3614 39.9579 30.6999 40.1085 31.0509 40.069C34.9575 39.6296 43.3845 38.8627 50.0301 38.8627C56.6754 38.8627 65.6037 39.6295 69.798 40.069C70.1719 40.1081 70.5304 39.9299 70.8141 39.6833C72.1557 38.5172 75.5366 37.3629 76.6417 38.8629C77.7976 40.4319 75.939 43.5843 74.1618 45.0649C73.7291 45.4255 73.539 46.0487 73.7658 46.5642C74.4802 48.1881 75.3927 51.134 75.3927 55.8092C75.3927 60.7276 74.3828 64.9669 73.6561 67.1566C73.482 67.6812 73.7259 68.2781 74.1703 68.6068C75.6772 69.7211 77.6715 72.1327 76.6417 73.603C75.0535 75.8704 72.8318 74.9663 70.7037 73.7734C70.5085 73.664 70.2854 73.6206 70.0636 73.6502C66.7912 74.0864 57.4058 74.874 50.0301 74.874C42.6401 74.874 34.3966 74.0833 30.846 73.6476C30.6141 73.6192 30.3831 73.6733 30.1761 73.7817C28.785 74.5104 25.4348 75.5535 24.6681 73.603C23.9141 71.6847 25.2844 69.8197 26.5647 68.6181C26.904 68.2997 27.0172 67.8009 26.8528 67.3656C26.1241 65.4362 25.0836 61.2591 25.0836 55.3855Z"
        fill="#E7E7E8" />
    <path
        d="M35.8164 49.4541C35.262 50.019 34.1533 52.0811 34.1533 55.8092C34.1533 59.5373 35.262 63.0113 35.8164 64.2822M25.0836 55.3855C25.0836 50.6886 25.749 48.0257 26.3882 46.6922C26.6748 46.0944 26.6797 45.1939 26.2316 44.7053C24.7274 43.0657 23.0335 40.5283 24.6681 38.8627C26.4499 37.0471 28.9164 38.4736 30.115 39.7048C30.3614 39.9579 30.6999 40.1085 31.0509 40.069C34.9575 39.6296 43.3845 38.8627 50.0301 38.8627C56.6754 38.8627 65.6037 39.6295 69.798 40.069C70.1719 40.1081 70.5304 39.9299 70.8141 39.6833C72.1557 38.5172 75.5366 37.3629 76.6417 38.8629C77.7976 40.4319 75.939 43.5843 74.1618 45.0649C73.7291 45.4255 73.539 46.0487 73.7658 46.5642C74.4802 48.1881 75.3927 51.134 75.3927 55.8092C75.3927 60.7276 74.3828 64.9669 73.6561 67.1566C73.482 67.6812 73.7259 68.2781 74.1703 68.6068C75.6772 69.7211 77.6715 72.1327 76.6417 73.603C75.0535 75.8704 72.8318 74.9663 70.7037 73.7734C70.5085 73.664 70.2854 73.6206 70.0636 73.6502C66.7912 74.0864 57.4058 74.874 50.0301 74.874C42.6401 74.874 34.3966 74.0833 30.846 73.6476C30.6141 73.6192 30.3831 73.6733 30.1761 73.7817C28.785 74.5104 25.4348 75.5535 24.6681 73.603C23.9141 71.6847 25.2844 69.8197 26.5647 68.6181C26.904 68.2996 27.0172 67.8009 26.8528 67.3656C26.1241 65.4362 25.0836 61.2591 25.0836 55.3855Z"
        stroke="url(#paint0_linear_1958_2178)" stroke-width="6" stroke-linecap="round" />
    <g filter="url(#filter0_f_1958_2178)">
        <path fill-rule="evenodd" clip-rule="evenodd"
            d="M51 18.5009C50.3047 18.1556 49.4421 17.9472 48.436 18.0117C47.1251 18.0957 45.9088 18.6191 45.0593 19.5997C44.1997 20.5918 43.858 21.8942 44.0534 23.1976C44.1239 23.6672 44.3024 24.0766 44.4452 24.3603C44.6009 24.6694 44.7909 24.9768 44.9871 25.2664C45.3798 25.8459 45.8787 26.4726 46.3964 27.0785C47.436 28.2955 48.6671 29.5638 49.5758 30.438C49.9769 30.8239 50.4906 31.0098 51 30.9996C51.5094 31.0098 52.0231 30.8239 52.4242 30.438C53.3329 29.5638 54.564 28.2955 55.6036 27.0785C56.1213 26.4726 56.6202 25.8459 57.0129 25.2664C57.2091 24.9768 57.3991 24.6694 57.5548 24.3603C57.6976 24.0766 57.8761 23.6672 57.9466 23.1976C58.142 21.8942 57.8003 20.5918 56.9407 19.5997C56.0912 18.6191 54.8749 18.0957 53.564 18.0117C52.5579 17.9472 51.6953 18.1556 51 18.5009Z"
            fill="url(#paint1_radial_1958_2178)" fill-opacity="0.8" />
    </g>
    <path fill-rule="evenodd" clip-rule="evenodd"
        d="M51 18.5009C50.3047 18.1556 49.4421 17.9472 48.436 18.0117C47.1251 18.0957 45.9088 18.6191 45.0593 19.5997C44.1997 20.5918 43.858 21.8942 44.0534 23.1976C44.1239 23.6672 44.3024 24.0766 44.4452 24.3603C44.6009 24.6694 44.7909 24.9768 44.9871 25.2664C45.3798 25.8459 45.8787 26.4726 46.3964 27.0785C47.436 28.2955 48.6671 29.5638 49.5758 30.438C49.9769 30.8239 50.4906 31.0098 51 30.9996C51.5094 31.0098 52.0231 30.8239 52.4242 30.438C53.3329 29.5638 54.564 28.2955 55.6036 27.0785C56.1213 26.4726 56.6202 25.8459 57.0129 25.2664C57.2091 24.9768 57.3991 24.6694 57.5548 24.3603C57.6976 24.0766 57.8761 23.6672 57.9466 23.1976C58.142 21.8942 57.8003 20.5918 56.9407 19.5997C56.0912 18.6191 54.8749 18.0957 53.564 18.0117C52.5579 17.9472 51.6953 18.1556 51 18.5009Z"
        fill="url(#paint2_radial_1958_2178)" />
    <defs>
        <filter id="filter0_f_1958_2178" x="40" y="14" width="22" height="21" filterUnits="userSpaceOnUse"
            color-interpolation-filters="sRGB">
            <feFlood flood-opacity="0" result="BackgroundImageFix" />
            <feBlend mode="normal" in="SourceGraphic" in2="BackgroundImageFix" result="shape" />
            <feGaussianBlur stdDeviation="2" result="effect1_foregroundBlur_1958_2178" />
        </filter>
        <linearGradient id="paint0_linear_1958_2178" x1="50.5" y1="38" x2="50.5" y2="75" gradientUnits="userSpaceOnUse">
            <stop stop-color="white" />
            <stop offset="1" stop-color="#819399" />
        </linearGradient>
        <radialGradient id="paint1_radial_1958_2178" cx="0" cy="0" r="1" gradientUnits="userSpaceOnUse"
            gradientTransform="translate(51 24.5) rotate(90) scale(6.5 7)">
            <stop offset="0.65625" stop-color="#EC6039" />
            <stop offset="1" stop-color="#CB6346" />
        </radialGradient>
        <radialGradient id="paint2_radial_1958_2178" cx="0" cy="0" r="1" gradientUnits="userSpaceOnUse"
            gradientTransform="translate(51 24.5) rotate(90) scale(6.5 7)">
            <stop offset="0.65625" stop-color="#EC6039" />
            <stop offset="1" stop-color="#CB6346" />
        </radialGradient>
    </defs>
</svg>