<svg width="100" height="100" viewBox="0 0 100 100" fill="none" xmlns="http://www.w3.org/2000/svg">
    <path
        d="M25.4949 83.6547L29.107 73.8366C29.2517 73.4432 29.6263 73.1818 30.0455 73.1818H40.7609L43.9964 31.688C44.0129 31.4772 44.0957 31.277 44.233 31.1163L48.6552 25.9383C49.068 25.4549 49.8211 25.4743 50.2085 25.9783L54.1711 31.1337C54.2865 31.2839 54.3569 31.4638 54.3741 31.6525L58.1522 73.1818H69.9545C70.3737 73.1818 70.7483 73.4432 70.893 73.8366L74.5051 83.6547C74.7452 84.3075 74.2621 85 73.5666 85H26.4334C25.7379 85 25.2548 84.3075 25.4949 83.6547Z"
        fill="#4E2126" />
    <path
        d="M40.7609 73.1818H30.0455C29.6263 73.1818 29.2517 73.4432 29.107 73.8366L25.4949 83.6547C25.2548 84.3075 25.7379 85 26.4334 85H73.5666C74.2621 85 74.7452 84.3075 74.5051 83.6547L70.893 73.8365C70.7483 73.4432 70.3737 73.1818 69.9545 73.1818H58.1522M40.7609 73.1818L43.9964 31.688C44.0129 31.4772 44.0957 31.277 44.233 31.1163L48.6552 25.9383C49.068 25.4549 49.8211 25.4743 50.2085 25.9783L54.1711 31.1337C54.2865 31.2839 54.3569 31.4638 54.3741 31.6525L58.1522 73.1818M40.7609 73.1818H58.1522"
        stroke="url(#paint0_linear_1958_2228)" stroke-width="6" stroke-linecap="round" stroke-linejoin="round" />
    <g filter="url(#filter0_f_1958_2228)">
        <path fill-rule="evenodd" clip-rule="evenodd"
            d="M49.5 12.3082C49.053 12.0958 48.4985 11.9675 47.8517 12.0072C47.009 12.0589 46.2271 12.381 45.681 12.9844C45.1284 13.595 44.9087 14.3964 45.0344 15.1985C45.0796 15.4875 45.1944 15.7395 45.2862 15.914C45.3863 16.1042 45.5084 16.2934 45.6346 16.4716C45.887 16.8283 46.2078 17.2139 46.5405 17.5868C47.2088 18.3357 48.0003 19.1162 48.5845 19.6542C48.8423 19.8916 49.1725 20.006 49.5 19.9998C49.8275 20.006 50.1577 19.8916 50.4155 19.6542C50.9997 19.1162 51.7912 18.3357 52.4595 17.5868C52.7922 17.2139 53.113 16.8283 53.3654 16.4716C53.4916 16.2934 53.6137 16.1042 53.7138 15.914C53.8056 15.7395 53.9204 15.4875 53.9656 15.1985C54.0913 14.3964 53.8716 13.595 53.319 12.9844C52.7729 12.381 51.991 12.0589 51.1483 12.0072C50.5015 11.9675 49.947 12.0958 49.5 12.3082Z"
            fill="url(#paint1_radial_1958_2228)" fill-opacity="0.8" />
    </g>
    <path fill-rule="evenodd" clip-rule="evenodd"
        d="M49.5 12.3082C49.053 12.0958 48.4985 11.9675 47.8517 12.0072C47.009 12.0589 46.2271 12.381 45.681 12.9844C45.1284 13.595 44.9087 14.3964 45.0344 15.1985C45.0796 15.4875 45.1944 15.7395 45.2862 15.914C45.3863 16.1042 45.5084 16.2934 45.6346 16.4716C45.887 16.8283 46.2078 17.2139 46.5405 17.5868C47.2088 18.3357 48.0003 19.1162 48.5845 19.6542C48.8423 19.8916 49.1725 20.006 49.5 19.9998C49.8275 20.006 50.1577 19.8916 50.4155 19.6542C50.9997 19.1162 51.7912 18.3357 52.4595 17.5868C52.7922 17.2139 53.113 16.8283 53.3654 16.4716C53.4916 16.2934 53.6137 16.1042 53.7138 15.914C53.8056 15.7395 53.9204 15.4875 53.9656 15.1985C54.0913 14.3964 53.8716 13.595 53.319 12.9844C52.7729 12.381 51.991 12.0589 51.1483 12.0072C50.5015 11.9675 49.947 12.0958 49.5 12.3082Z"
        fill="url(#paint2_radial_1958_2228)" />
    <defs>
        <filter id="filter0_f_1958_2228" x="41" y="8" width="17" height="16" filterUnits="userSpaceOnUse"
            color-interpolation-filters="sRGB">
            <feFlood flood-opacity="0" result="BackgroundImageFix" />
            <feBlend mode="normal" in="SourceGraphic" in2="BackgroundImageFix" result="shape" />
            <feGaussianBlur stdDeviation="2" result="effect1_foregroundBlur_1958_2228" />
        </filter>
        <linearGradient id="paint0_linear_1958_2228" x1="50" y1="25" x2="50" y2="85" gradientUnits="userSpaceOnUse">
            <stop stop-color="#F6C7CC" />
            <stop offset="1" stop-color="#4E2125" />
        </linearGradient>
        <radialGradient id="paint1_radial_1958_2228" cx="0" cy="0" r="1" gradientUnits="userSpaceOnUse"
            gradientTransform="translate(49.5 16) rotate(90) scale(4 4.5)">
            <stop offset="0.65625" stop-color="#EC6039" />
            <stop offset="1" stop-color="#CB6346" />
        </radialGradient>
        <radialGradient id="paint2_radial_1958_2228" cx="0" cy="0" r="1" gradientUnits="userSpaceOnUse"
            gradientTransform="translate(49.5 16) rotate(90) scale(4 4.5)">
            <stop offset="0.65625" stop-color="#EC6039" />
            <stop offset="1" stop-color="#CB6346" />
        </radialGradient>
    </defs>
</svg>