<svg width="100" height="100" viewBox="0 0 100 100" fill="none" xmlns="http://www.w3.org/2000/svg">
    <path
        d="M58 50.6129C56 49.6133 53 49.6138 53 52.3138C53 53.7441 54.0631 54.5195 55.2431 55.0414C56.1183 55.4286 55.9874 56.1719 55.0562 56.3924C53.9473 56.6549 53 57.2396 53 58.6138C53 61.3064 56 61.6146 58 60.6146"
        stroke="#E287DF" stroke-width="2" stroke-linecap="round" stroke-linejoin="round" />
    <circle cx="47" cy="43" r="3" fill="#E287DF" />
    <circle cx="67" cy="43" r="3" fill="#E287DF" />
    <path
        d="M24 58.6129C26 57.6133 29 57.6138 29 60.3138C29 61.7441 27.9369 62.5195 26.7569 63.0414C25.8817 63.4286 26.0126 64.1719 26.9438 64.3924C28.0527 64.6549 29 65.2396 29 66.6138C29 69.3064 26 69.6146 24 68.6146"
        stroke="#E7ACDA" stroke-width="2" stroke-linecap="round" stroke-linejoin="round" />
    <circle r="3" transform="matrix(-1 0 0 1 35 51)" fill="#E7ACDA" />
    <circle r="3" transform="matrix(-1 0 0 1 15 51)" fill="#E7ACDA" />
    <path fill-rule="evenodd" clip-rule="evenodd"
        d="M53.4048 29.929C52.5147 28.4866 48.4846 24.5508 40.6381 25.0423C35.6357 25.3556 32.0112 27.2075 29.7961 29.7046C27.5952 32.1856 26.5806 35.5247 27.1599 39.2985C27.4114 40.9361 26.2876 42.4676 24.6499 42.719C23.0122 42.9704 21.4808 41.8466 21.2294 40.209C20.3952 34.7752 21.8543 29.6158 25.3077 25.7229C28.7468 21.8461 33.957 19.449 40.2631 19.054C47.6482 18.5915 52.91 21.1763 55.9997 23.8938C59.0895 21.1763 64.3512 18.5915 71.7364 19.054C78.0425 19.449 83.2527 21.8461 86.6918 25.7229C90.1452 29.6158 91.6043 34.7752 90.7701 40.209C90.557 41.597 89.9642 43.0539 89.2437 44.4512C88.5042 45.8852 87.5337 47.4383 86.4132 49.0533C84.172 52.2838 81.2109 55.9327 77.9768 59.6302C73.0371 65.2776 67.3611 71.151 62.4127 76H76C77.6569 76 79 77.3431 79 79C79 80.6569 77.6569 82 76 82H12C10.3431 82 9 80.6569 9 79C9 77.3431 10.3431 76 12 76H53.7635C53.821 75.9359 53.8817 75.8737 53.9456 75.8136C59.5453 70.5526 67.1425 62.9033 73.4606 55.68C76.6228 52.0647 79.4221 48.6044 81.4835 45.6332C82.5144 44.1472 83.3307 42.8264 83.911 41.7012C84.5101 40.5394 84.7699 39.752 84.8395 39.2985C85.4189 35.5247 84.4043 32.1856 82.2034 29.7046C79.9883 27.2075 76.3637 25.3556 71.3614 25.0423C63.5149 24.5508 59.4848 28.4866 58.5947 29.929C58.4659 30.1513 58.3075 30.3587 58.1212 30.5447C57.8634 30.8028 57.5645 31.0072 57.2417 31.1537C56.8422 31.336 56.4188 31.4234 55.9997 31.423C55.5807 31.4234 55.1573 31.336 54.7577 31.1537C54.4349 31.0072 54.1361 30.8028 53.8783 30.5447C53.692 30.3587 53.5336 30.1513 53.4048 29.929Z"
        fill="url(#paint0_linear_1958_2233)" />
    <defs>
        <linearGradient id="paint0_linear_1958_2233" x1="49.9997" y1="19" x2="49.9997" y2="82"
            gradientUnits="userSpaceOnUse">
            <stop stop-color="white" />
            <stop offset="0.197917" stop-color="#D495DA" />
            <stop offset="1" stop-color="#E369C8" />
        </linearGradient>
    </defs>
</svg>