<svg width="100" height="100" viewBox="0 0 100 100" fill="none" xmlns="http://www.w3.org/2000/svg">
    <path d="M54.5 53C54.5 53 63 57.2644 63 66.1646C63 74 57.3333 77.3544 55.5 79M55.5 79H27M55.5 79H86"
        stroke="url(#paint0_linear_1958_2247)" stroke-width="6" stroke-linecap="round" stroke-linejoin="round" />
    <path fill-rule="evenodd" clip-rule="evenodd"
        d="M41.432 39.7099C40.6237 39.8542 39.747 40.2133 38.9008 40.8842C37.7982 41.7583 37.0306 42.9343 36.8471 44.2596C36.6613 45.6005 37.1081 46.8774 38.0269 47.8253C38.358 48.1668 38.7494 48.3925 39.0375 48.5372C39.3514 48.6948 39.6944 48.83 40.0326 48.9467C40.7096 49.1803 41.5069 49.3872 42.3087 49.5657C43.9191 49.9242 45.727 50.207 47.026 50.365C47.5993 50.4348 48.1567 50.2716 48.5981 49.9503C49.0512 49.6457 49.3954 49.1778 49.5263 48.6153C49.8228 47.3408 50.1764 45.5454 50.3912 43.9097C50.4982 43.0953 50.5769 42.2753 50.5894 41.5593C50.5956 41.2015 50.5861 40.8329 50.5455 40.484C50.5083 40.1639 50.4303 39.7188 50.2228 39.2908C49.6471 38.1028 48.6004 37.2457 47.277 36.9608C45.969 36.6793 44.6013 36.9976 43.4023 37.734C42.4822 38.2992 41.8445 38.9999 41.432 39.7099Z"
        fill="#C1E2D0" />
    <g filter="url(#filter0_f_1958_2247)">
        <path fill-rule="evenodd" clip-rule="evenodd"
            d="M41.5166 22.0359C40.7488 21.7448 39.8121 21.6029 38.7415 21.7443C37.3466 21.9285 36.0842 22.5437 35.2463 23.5868C34.3986 24.6422 34.1265 25.9674 34.4285 27.2525C34.5373 27.7155 34.7574 28.1102 34.9303 28.3822C35.1188 28.6786 35.3438 28.9707 35.5741 29.2445C36.0352 29.7925 36.6132 30.3794 37.2097 30.9441C38.4077 32.0784 39.814 33.2492 40.8476 34.0516C41.3038 34.4058 41.866 34.5519 42.4097 34.5027C42.9549 34.4739 43.4905 34.2491 43.8916 33.8336C44.8003 32.892 46.0253 31.5327 47.0494 30.2392C47.5593 29.5952 48.0477 28.9319 48.426 28.3238C48.615 28.02 48.796 27.6988 48.9403 27.3785C49.0727 27.0847 49.2342 26.6627 49.2759 26.1889C49.3917 24.8738 48.9334 23.6009 47.9439 22.6772C46.9659 21.7641 45.6288 21.3352 44.2218 21.3517C43.142 21.3644 42.2351 21.6384 41.5166 22.0359Z"
            fill="url(#paint1_radial_1958_2247)" fill-opacity="0.8" />
    </g>
    <g filter="url(#filter1_f_1958_2247)">
        <path fill-rule="evenodd" clip-rule="evenodd"
            d="M62.6336 30.2759C62.4383 29.4783 62.0244 28.6261 61.3011 27.8242C60.3588 26.7793 59.1365 26.0879 57.8023 25.9887C56.4523 25.8884 55.2063 26.4152 54.3186 27.3924C53.9988 27.7444 53.7983 28.1494 53.6722 28.446C53.5348 28.7693 53.4216 29.1202 53.3266 29.4652C53.1364 30.1556 52.9805 30.9644 52.8532 31.776C52.5976 33.4058 52.43 35.228 52.3547 36.5344C52.3215 37.1109 52.5197 37.6569 52.8683 38.077C53.2011 38.5099 53.6898 38.8238 54.2595 38.9187C55.5502 39.1338 57.3644 39.3727 59.0105 39.4834C59.83 39.5385 60.6533 39.5651 61.3688 39.5321C61.7262 39.5156 62.0934 39.4827 62.439 39.4201C62.7562 39.3627 63.1954 39.2566 63.6094 39.0224C64.7585 38.3725 65.5475 37.2736 65.7478 35.9348C65.9458 34.6115 65.5414 33.2668 64.7305 32.1169C64.108 31.2344 63.3683 30.6425 62.6336 30.2759Z"
            fill="url(#paint2_radial_1958_2247)" fill-opacity="0.8" />
    </g>
    <g filter="url(#filter2_f_1958_2247)">
        <path fill-rule="evenodd" clip-rule="evenodd"
            d="M24.0408 33.82C23.3802 34.3077 22.7536 35.0183 22.2925 35.9948C21.6918 37.2672 21.5252 38.6615 21.9482 39.9309C22.3762 41.2151 23.3428 42.1616 24.5867 42.6038C25.0348 42.7632 25.4858 42.792 25.8081 42.7939C26.1593 42.7961 26.5267 42.7651 26.8816 42.7198C27.592 42.629 28.3984 42.461 29.1963 42.2655C30.7986 41.8729 32.5445 41.3249 33.7789 40.8906C34.3237 40.6989 34.751 40.3055 35.0042 39.8218C35.2752 39.3479 35.3764 38.776 35.2443 38.2137C34.9451 36.9399 34.466 35.1738 33.9334 33.6124C33.6682 32.8349 33.3752 32.0651 33.0689 31.4177C32.9158 31.0943 32.7439 30.7682 32.5528 30.4734C32.3775 30.2029 32.1103 29.8386 31.7346 29.5469C30.6918 28.7373 29.3736 28.4331 28.0611 28.7645C26.7639 29.092 25.6791 29.9837 24.9309 31.1754C24.3566 32.09 24.0957 33.0007 24.0408 33.82Z"
            fill="url(#paint3_radial_1958_2247)" fill-opacity="0.8" />
    </g>
    <g filter="url(#filter3_f_1958_2247)">
        <path fill-rule="evenodd" clip-rule="evenodd"
            d="M24.9324 55.5289C25.1076 56.331 25.5001 57.1933 26.2031 58.0131C27.1189 59.0813 28.3235 59.8031 29.6549 59.9356C31.0019 60.0696 32.2608 59.5742 33.1726 58.6195C33.5012 58.2756 33.7117 57.8758 33.8452 57.5824C33.9906 57.2627 34.1125 56.9147 34.2161 56.5722C34.4236 55.8868 34.5997 55.0821 34.7472 54.274C35.0435 52.6511 35.2567 50.8336 35.3647 49.5296C35.4123 48.954 35.2278 48.4032 34.8898 47.9745C34.568 47.5335 34.0873 47.2075 33.5202 47.0983C32.2352 46.851 30.4275 46.5667 28.7848 46.4149C27.9668 46.3393 27.1445 46.2921 26.4284 46.3072C26.0707 46.3148 25.7028 46.3384 25.3557 46.3924C25.0372 46.4419 24.5955 46.5369 24.1757 46.7607C23.0107 47.3816 22.1945 48.4605 21.9607 49.7938C21.7297 51.1117 22.1003 52.4661 22.8822 53.6359C23.4824 54.5337 24.2071 55.144 24.9324 55.5289Z"
            fill="url(#paint4_radial_1958_2247)" fill-opacity="0.8" />
    </g>
    <path fill-rule="evenodd" clip-rule="evenodd"
        d="M41.5166 22.0364C40.7488 21.7453 39.8121 21.6034 38.7415 21.7448C37.3466 21.929 36.0842 22.5442 35.2463 23.5873C34.3986 24.6427 34.1265 25.9679 34.4285 27.253C34.5373 27.716 34.7574 28.1107 34.9303 28.3827C35.1188 28.6791 35.3438 28.9712 35.5741 29.245C36.0352 29.793 36.6132 30.3799 37.2097 30.9446C38.4077 32.0789 39.814 33.2497 40.8476 34.0521C41.3038 34.4063 41.866 34.5524 42.4097 34.5032C42.9549 34.4744 43.4905 34.2496 43.8916 33.834C44.8003 32.8925 46.0253 31.5332 47.0494 30.2397C47.5593 29.5957 48.0477 28.9324 48.426 28.3243C48.615 28.0205 48.796 27.6993 48.9403 27.379C49.0727 27.0852 49.2342 26.6632 49.2759 26.1893C49.3917 24.8743 48.9334 23.6014 47.9439 22.6776C46.9659 21.7646 45.6288 21.3357 44.2218 21.3522C43.142 21.3648 42.2351 21.6388 41.5166 22.0364Z"
        fill="url(#paint5_radial_1958_2247)" />
    <path fill-rule="evenodd" clip-rule="evenodd"
        d="M62.6336 30.2764C62.4383 29.4788 62.0244 28.6266 61.3011 27.8247C60.3588 26.7798 59.1365 26.0883 57.8023 25.9892C56.4523 25.8889 55.2063 26.4157 54.3186 27.3929C53.9988 27.7449 53.7983 28.1499 53.6722 28.4465C53.5348 28.7698 53.4216 29.1207 53.3266 29.4656C53.1364 30.1561 52.9805 30.9649 52.8532 31.7764C52.5976 33.4063 52.43 35.2285 52.3547 36.5348C52.3215 37.1114 52.5197 37.6574 52.8683 38.0775C53.2011 38.5103 53.6898 38.8243 54.2595 38.9192C55.5502 39.1343 57.3644 39.3732 59.0105 39.4839C59.83 39.539 60.6533 39.5656 61.3688 39.5326C61.7262 39.5161 62.0934 39.4832 62.439 39.4206C62.7562 39.3631 63.1954 39.2571 63.6094 39.0229C64.7585 38.3729 65.5475 37.274 65.7478 35.9353C65.9458 34.612 65.5414 33.2672 64.7305 32.1174C64.108 31.2349 63.3683 30.643 62.6336 30.2764Z"
        fill="url(#paint6_radial_1958_2247)" />
    <path fill-rule="evenodd" clip-rule="evenodd"
        d="M24.0408 33.8205C23.3802 34.3082 22.7536 35.0188 22.2925 35.9953C21.6918 37.2677 21.5252 38.662 21.9482 39.9313C22.3762 41.2156 23.3428 42.1621 24.5867 42.6043C25.0348 42.7637 25.4858 42.7925 25.8081 42.7944C26.1593 42.7965 26.5267 42.7656 26.8816 42.7203C27.592 42.6295 28.3984 42.4615 29.1963 42.266C30.7986 41.8734 32.5445 41.3254 33.7789 40.8911C34.3237 40.6994 34.751 40.306 35.0042 39.8223C35.2752 39.3484 35.3764 38.7764 35.2443 38.2142C34.9451 36.9404 34.466 35.1743 33.9334 33.6129C33.6682 32.8354 33.3752 32.0656 33.0689 31.4182C32.9158 31.0948 32.7439 30.7686 32.5528 30.4739C32.3775 30.2034 32.1103 29.8391 31.7346 29.5474C30.6918 28.7378 29.3736 28.4336 28.0611 28.765C26.7639 29.0925 25.6791 29.9842 24.9309 31.1759C24.3566 32.0904 24.0957 33.0012 24.0408 33.8205Z"
        fill="url(#paint7_radial_1958_2247)" />
    <path fill-rule="evenodd" clip-rule="evenodd"
        d="M24.9324 55.5293C25.1076 56.3315 25.5001 57.1938 26.2031 58.0136C27.1189 59.0818 28.3235 59.8036 29.6549 59.9361C31.0019 60.0701 32.2608 59.5747 33.1726 58.62C33.5012 58.2761 33.7117 57.8763 33.8452 57.5829C33.9906 57.2631 34.1125 56.9152 34.2161 56.5727C34.4236 55.8872 34.5997 55.0826 34.7472 54.2745C35.0435 52.6516 35.2567 50.8341 35.3647 49.5301C35.4123 48.9545 35.2278 48.4037 34.8898 47.975C34.568 47.534 34.0873 47.2079 33.5202 47.0988C32.2352 46.8515 30.4275 46.5672 28.7848 46.4153C27.9668 46.3397 27.1445 46.2926 26.4284 46.3077C26.0707 46.3152 25.7028 46.3389 25.3557 46.3928C25.0372 46.4423 24.5955 46.5374 24.1757 46.7611C23.0107 47.3821 22.1945 48.4609 21.9607 49.7943C21.7297 51.1121 22.1003 52.4666 22.8822 53.6364C23.4824 54.5342 24.2071 55.1445 24.9324 55.5293Z"
        fill="url(#paint8_radial_1958_2247)" />
    <defs>
        <filter id="filter0_f_1958_2247" x="30.3086" y="17.3511" width="22.9844" height="21.1611"
            filterUnits="userSpaceOnUse" color-interpolation-filters="sRGB">
            <feFlood flood-opacity="0" result="BackgroundImageFix" />
            <feBlend mode="normal" in="SourceGraphic" in2="BackgroundImageFix" result="shape" />
            <feGaussianBlur stdDeviation="2" result="effect1_foregroundBlur_1958_2247" />
        </filter>
        <filter id="filter1_f_1958_2247" x="48.3516" y="21.9766" width="21.4453" height="21.5698"
            filterUnits="userSpaceOnUse" color-interpolation-filters="sRGB">
            <feFlood flood-opacity="0" result="BackgroundImageFix" />
            <feBlend mode="normal" in="SourceGraphic" in2="BackgroundImageFix" result="shape" />
            <feGaussianBlur stdDeviation="2" result="effect1_foregroundBlur_1958_2247" />
        </filter>
        <filter id="filter2_f_1958_2247" x="17.7109" y="24.6323" width="21.5898" height="22.1616"
            filterUnits="userSpaceOnUse" color-interpolation-filters="sRGB">
            <feFlood flood-opacity="0" result="BackgroundImageFix" />
            <feBlend mode="normal" in="SourceGraphic" in2="BackgroundImageFix" result="shape" />
            <feGaussianBlur stdDeviation="2" result="effect1_foregroundBlur_1958_2247" />
        </filter>
        <filter id="filter3_f_1958_2247" x="17.8945" y="42.3042" width="21.4766" height="21.6528"
            filterUnits="userSpaceOnUse" color-interpolation-filters="sRGB">
            <feFlood flood-opacity="0" result="BackgroundImageFix" />
            <feBlend mode="normal" in="SourceGraphic" in2="BackgroundImageFix" result="shape" />
            <feGaussianBlur stdDeviation="2" result="effect1_foregroundBlur_1958_2247" />
        </filter>
        <linearGradient id="paint0_linear_1958_2247" x1="56.5" y1="53" x2="56.5" y2="79" gradientUnits="userSpaceOnUse">
            <stop stop-color="#246B42" />
            <stop offset="1" stop-color="#074923" />
        </linearGradient>
        <radialGradient id="paint1_radial_1958_2247" cx="0" cy="0" r="1" gradientUnits="userSpaceOnUse"
            gradientTransform="translate(41.9453 28.0197) rotate(85.9024) scale(6.5 7.5)">
            <stop offset="0.65625" stop-color="#EC6039" />
            <stop offset="1" stop-color="#CB6346" />
        </radialGradient>
        <radialGradient id="paint2_radial_1958_2247" cx="0" cy="0" r="1" gradientUnits="userSpaceOnUse"
            gradientTransform="translate(57.9465 34.0203) rotate(141.38) scale(6.5 7.5)">
            <stop offset="0.65625" stop-color="#EC6039" />
            <stop offset="1" stop-color="#CB6346" />
        </radialGradient>
        <radialGradient id="paint3_radial_1958_2247" cx="0" cy="0" r="1" gradientUnits="userSpaceOnUse"
            gradientTransform="translate(29.303 36.7008) rotate(28.6981) scale(6.5 7.5)">
            <stop offset="0.65625" stop-color="#EC6039" />
            <stop offset="1" stop-color="#CB6346" />
        </radialGradient>
        <radialGradient id="paint4_radial_1958_2247" cx="0" cy="0" r="1" gradientUnits="userSpaceOnUse"
            gradientTransform="translate(29.7117 51.9029) rotate(-37.1862) scale(6.5 7.5)">
            <stop offset="0.65625" stop-color="#EC6039" />
            <stop offset="1" stop-color="#CB6346" />
        </radialGradient>
        <radialGradient id="paint5_radial_1958_2247" cx="0" cy="0" r="1" gradientUnits="userSpaceOnUse"
            gradientTransform="translate(41.9453 28.0202) rotate(85.9024) scale(6.5 7.5)">
            <stop offset="0.65625" stop-color="#EC6039" />
            <stop offset="1" stop-color="#CB6346" />
        </radialGradient>
        <radialGradient id="paint6_radial_1958_2247" cx="0" cy="0" r="1" gradientUnits="userSpaceOnUse"
            gradientTransform="translate(57.9465 34.0208) rotate(141.38) scale(6.5 7.5)">
            <stop offset="0.65625" stop-color="#EC6039" />
            <stop offset="1" stop-color="#CB6346" />
        </radialGradient>
        <radialGradient id="paint7_radial_1958_2247" cx="0" cy="0" r="1" gradientUnits="userSpaceOnUse"
            gradientTransform="translate(29.303 36.7012) rotate(28.6981) scale(6.5 7.5)">
            <stop offset="0.65625" stop-color="#EC6039" />
            <stop offset="1" stop-color="#CB6346" />
        </radialGradient>
        <radialGradient id="paint8_radial_1958_2247" cx="0" cy="0" r="1" gradientUnits="userSpaceOnUse"
            gradientTransform="translate(29.7117 51.9034) rotate(-37.1862) scale(6.5 7.5)">
            <stop offset="0.65625" stop-color="#EC6039" />
            <stop offset="1" stop-color="#CB6346" />
        </radialGradient>
    </defs>
</svg>