<svg width="100" height="100" viewBox="0 0 100 100" fill="none" xmlns="http://www.w3.org/2000/svg">
    <path d="M26.5 16V84H72.5V16H26.5Z" fill="#81CBD6" stroke="url(#paint0_linear_1958_2215)" stroke-width="6"
        stroke-linecap="round" stroke-linejoin="round" />
    <path
        d="M11.257 27.6501L8.76231 29.833C8.34289 30.2 8.30442 30.839 8.67677 31.2537L29.8822 54.8688C29.9601 54.9556 30.0527 55.0281 30.1556 55.083L34.8561 57.5899C35.7037 58.042 36.6391 57.1552 36.2328 56.2847L34.0628 51.6347C34.0212 51.5454 33.9665 51.4627 33.9007 51.3894L12.6596 27.7345C12.2939 27.3273 11.6689 27.2897 11.257 27.6501Z"
        stroke="url(#paint1_linear_1958_2215)" stroke-width="6" stroke-linecap="round" stroke-linejoin="round" />
    <path
        d="M87.215 11.6652L85.0578 9.14828C84.6951 8.72512 84.0565 8.68009 83.638 9.04817L59.8068 30.0104C59.7192 30.0875 59.6458 30.1793 59.5898 30.2816L57.0349 34.9562C56.5741 35.7991 57.4513 36.7435 58.3259 36.3462L62.9979 34.224C63.0876 34.1833 63.1708 34.1295 63.2448 34.0644L87.1162 13.0669C87.5271 12.7054 87.5711 12.0808 87.215 11.6652Z"
        stroke="url(#paint2_linear_1958_2215)" stroke-width="6" stroke-linecap="round" stroke-linejoin="round" />
    <path fill-rule="evenodd" clip-rule="evenodd"
        d="M46.3432 48.0029C47.4739 46.1184 50.5531 43.7295 55.2807 44.025C58.1772 44.206 60.7246 45.3195 62.4605 47.2722C64.2111 49.2415 64.9261 51.8377 64.5173 54.4951C64.3891 55.3283 64.0527 56.1084 63.7297 56.7335C63.3876 57.3954 62.9554 58.0813 62.4832 58.7605C61.5383 60.1196 60.3129 61.6231 59.0063 63.1139C56.3865 66.1028 53.2682 69.2344 50.9676 71.3913C50.362 71.9591 49.5833 72.227 48.8144 72.201C48.0455 72.227 47.2667 71.9591 46.6611 71.3913C44.839 69.683 42.5142 67.3729 40.3317 65.0109C39.2073 63.794 39.2823 61.896 40.4993 60.7716C41.7162 59.6472 43.6142 59.7222 44.7386 60.9391C46.0945 62.4066 47.5127 63.8574 48.8144 65.1383C50.6471 63.3348 52.7058 61.1994 54.4942 59.159C55.7289 57.7504 56.7922 56.4353 57.5568 55.3355C57.9393 54.7853 58.217 54.3318 58.3993 53.979C58.5283 53.7295 58.5756 53.5948 58.5887 53.5572C58.5906 53.552 58.5917 53.5486 58.5924 53.5471C58.7334 52.5712 58.4661 51.8096 57.9762 51.2586C57.4655 50.6841 56.5029 50.113 54.9064 50.0133C52.5274 49.8646 51.5468 51.0209 51.4907 51.087C51.4888 51.0893 51.4879 51.0903 51.4882 51.0899C50.6357 52.5106 48.793 52.9713 47.3722 52.1189C45.9515 51.2664 45.4908 49.4237 46.3432 48.0029Z"
        fill="#ED6139" />
    <defs>
        <linearGradient id="paint0_linear_1958_2215" x1="49.8538" y1="11.75" x2="49.8538" y2="92.5"
            gradientUnits="userSpaceOnUse">
            <stop stop-color="#FEF6EA" />
            <stop offset="0.473958" stop-color="#D2C7B8" />
            <stop offset="0.75" stop-color="#55442A" />
            <stop offset="1" stop-color="#251A0A" />
        </linearGradient>
        <linearGradient id="paint1_linear_1958_2215" x1="22.75" y1="27" x2="22.75" y2="59"
            gradientUnits="userSpaceOnUse">
            <stop stop-color="#D2D2D2" />
            <stop offset="1" stop-color="#565656" />
        </linearGradient>
        <linearGradient id="paint2_linear_1958_2215" x1="87.7472" y1="23.1643" x2="55.7489" y2="22.8363"
            gradientUnits="userSpaceOnUse">
            <stop stop-color="#D2D2D2" />
            <stop offset="1" stop-color="#565656" />
        </linearGradient>
    </defs>
</svg>