<svg width="100" height="100" viewBox="0 0 100 100" fill="none" xmlns="http://www.w3.org/2000/svg">
    <path
        d="M46.2059 67.0466C42.8104 69.2324 36.3266 72 27.5515 72C19.5343 72 13.4298 69.6899 9.84559 67.6239C11.5319 65.0432 15.0309 59.2441 15.5368 56.6931C16.0248 54.2322 15.7674 51.7714 15.5594 50.7417C15.5449 50.6698 15.5211 50.6007 15.4901 50.5343L13.0074 45.2132C14.6344 44.3928 19.6626 44.4079 24.3897 44.6646C26.5586 44.7824 28.6641 44.951 30.3486 45.1131C30.8993 45.1661 31.3911 44.7671 31.4544 44.2175C31.8476 40.8023 32.7322 34.729 33.875 31.5021C35.0374 28.2197 39.494 28.8161 42.0895 29.6768C42.4792 29.806 42.7279 30.1775 42.7279 30.5881V33.851C42.7279 34.3367 43.0769 34.7521 43.5552 34.836L49.1727 35.8211C49.6511 35.905 50 36.319 50 36.8046V39.7927C50 43.8454 45.4029 43.8908 42.2946 43.261C41.6883 43.1382 41.0832 43.5413 41.0174 44.1563C40.6845 47.2677 40.1985 52.5109 40.1985 55.418C40.1985 58.7344 44.2034 64.5522 46.2059 67.0466Z"
        fill="#304472" />
    <path
        d="M7 65.6223C7.60955 66.1812 8.56727 66.887 9.84559 67.6239M48.1029 65.6223C47.655 66.033 47.019 66.5231 46.2059 67.0466M46.2059 67.0466C42.8104 69.2324 36.3266 72 27.5515 72C19.5343 72 13.4298 69.6899 9.84559 67.6239M46.2059 67.0466C44.2034 64.5522 40.1985 58.7344 40.1985 55.418C40.1985 52.5109 40.6845 47.2677 41.0174 44.1563C41.0832 43.5413 41.6883 43.1382 42.2946 43.261C45.4029 43.8908 50 43.8454 50 39.7927C50 38.2731 50 37.357 50 36.8046C50 36.319 49.6511 35.905 49.1727 35.8211L43.5552 34.836C43.0769 34.7521 42.7279 34.3367 42.7279 33.851V30.5881C42.7279 30.1775 42.4792 29.806 42.0895 29.6768C39.494 28.8161 35.0374 28.2197 33.875 31.5021C32.7322 34.729 31.8476 40.8023 31.4544 44.2175C31.3911 44.7671 30.8993 45.1661 30.3486 45.1131C28.6641 44.951 26.5586 44.7824 24.3897 44.6646C19.6626 44.4079 14.6344 44.3928 13.0074 45.2132M13.0074 45.2132C10.4779 46.4888 8.58088 51.272 7.94853 53.5042M13.0074 45.2132L15.4901 50.5343C15.5211 50.6007 15.5449 50.6698 15.5594 50.7417C15.7674 51.7714 16.0248 54.2322 15.5368 56.6931C15.0309 59.2441 11.5319 65.0432 9.84559 67.6239"
        stroke="url(#paint0_linear_1958_2259)" stroke-width="6" stroke-linecap="round" />
    <path
        d="M53.7941 81.0466C57.1896 83.2324 63.6734 86 72.4485 86C80.4657 86 86.5702 83.6899 90.1544 81.6239C88.4681 79.0432 84.9691 73.2441 84.4632 70.6931C83.9574 68.142 84.2525 65.5909 84.4632 64.6343L86.9926 59.2132C85.3656 58.3928 80.3374 58.4079 75.6103 58.6646C72.9884 58.807 70.4592 59.0236 68.6544 59.2132C68.3382 56.1309 67.3897 49.0733 66.125 45.5021C64.8603 41.9309 59.6961 42.9511 57.2721 43.9077V48.6909L50 49.9661V53.7927C50 58.3847 55.902 57.8319 58.8529 56.9816C59.1691 59.7452 59.8015 66.1017 59.8015 69.418C59.8015 72.7344 55.7966 78.5522 53.7941 81.0466Z"
        fill="#2F4438" />
    <path
        d="M93 79.6223C92.3905 80.1812 91.4327 80.887 90.1544 81.6239M51.8971 79.6223C52.345 80.033 52.981 80.5231 53.7941 81.0466M53.7941 81.0466C57.1896 83.2324 63.6734 86 72.4485 86C80.4657 86 86.5702 83.6899 90.1544 81.6239M53.7941 81.0466C55.7966 78.5522 59.8015 72.7344 59.8015 69.418C59.8015 66.1017 59.1691 59.7452 58.8529 56.9816C55.902 57.8319 50 58.3847 50 53.7927C50 49.9661 50 49.9661 50 49.9661L57.2721 48.6909V43.9077C59.6961 42.9511 64.8603 41.9309 66.125 45.5021C67.3897 49.0733 68.3382 56.1309 68.6544 59.2132C70.4592 59.0236 72.9884 58.807 75.6103 58.6646C80.3374 58.4079 85.3656 58.3928 86.9926 59.2132M86.9926 59.2132C89.5221 60.4888 91.4191 65.272 92.0515 67.5042M86.9926 59.2132L84.4632 64.6343C84.2525 65.5909 83.9574 68.142 84.4632 70.6931C84.9691 73.2441 88.4681 79.0432 90.1544 81.6239"
        stroke="url(#paint1_linear_1958_2259)" stroke-width="6" stroke-linecap="round" stroke-linejoin="round" />
    <path d="M66 77L68 74H74.5L76 77" stroke="#566E60" stroke-width="2" stroke-linecap="round"
        stroke-linejoin="round" />
    <path d="M22.5 62.5L24.5 59.5H31L32.5 62.5" stroke="#4F6AAB" stroke-width="2" stroke-linecap="round"
        stroke-linejoin="round" />
    <defs>
        <linearGradient id="paint0_linear_1958_2259" x1="28.5" y1="29" x2="28.5" y2="72" gradientUnits="userSpaceOnUse">
            <stop stop-color="#7E9ADF" />
            <stop offset="1" stop-color="#3A5494" />
        </linearGradient>
        <linearGradient id="paint1_linear_1958_2259" x1="71.5" y1="43" x2="71.5" y2="86" gradientUnits="userSpaceOnUse">
            <stop stop-color="#C1E2CF" />
            <stop offset="1" stop-color="#2F4438" />
        </linearGradient>
    </defs>
</svg>