<svg width="100" height="100" viewBox="0 0 100 100" fill="none" xmlns="http://www.w3.org/2000/svg">
    <path
        d="M39.1727 23.6883L54.1367 30.7013L62.554 12L71.1475 15.7059L62.554 34.9091L78.0738 42.1765L73.8115 51.1765L58.3607 43.7647L47.1223 69.5065H53.2014C56.1942 69.5065 59.1247 73.8701 60.2158 76.052C62.2422 74.3377 67.6043 70.9091 72.8417 70.9091C78.0791 70.9091 83.1295 79.6364 85 84H20C21.5588 79.6364 25.8924 72.3222 29.3525 70.9091C32.7869 69.5065 37.582 69.5065 37.582 69.5065L50.3689 40.0588L34.918 32.6471L39.1727 23.6883Z"
        fill="#251D11" stroke="url(#paint0_linear_1958_2264)" stroke-width="6" stroke-linecap="round"
        stroke-linejoin="round" />
    <path fill-rule="evenodd" clip-rule="evenodd"
        d="M56.6774 36.111C56.4822 35.8672 56.2026 35.6428 55.8244 35.4907C55.3316 35.2924 54.7988 35.2669 54.3223 35.4679C53.8402 35.6712 53.4946 36.0751 53.3448 36.5729C53.2908 36.7522 53.2865 36.9289 53.2906 37.0547C53.295 37.1918 53.3122 37.3342 53.3347 37.4714C53.3797 37.7459 53.4555 38.0558 53.5417 38.3614C53.7147 38.9754 53.949 39.6409 54.1324 40.1101C54.2134 40.3172 54.3694 40.4728 54.5571 40.5578C54.7413 40.6501 54.9604 40.6734 55.1722 40.6059C55.6523 40.4531 56.3169 40.2161 56.9028 39.9641C57.1946 39.8387 57.483 39.7025 57.7247 39.5647C57.8455 39.4958 57.967 39.4195 58.0762 39.3367C58.1765 39.2606 58.3111 39.146 58.4165 38.9912C58.709 38.5615 58.8052 38.0387 58.6597 37.5361C58.5159 37.0393 58.1607 36.6414 57.6964 36.3833C57.3401 36.1852 56.9898 36.1092 56.6774 36.111Z"
        fill="url(#paint1_radial_1958_2264)" />
    <defs>
        <linearGradient id="paint0_linear_1958_2264" x1="53" y1="7.5" x2="53" y2="93" gradientUnits="userSpaceOnUse">
            <stop stop-color="#FEF6EA" />
            <stop offset="0.473958" stop-color="#D2C7B8" />
            <stop offset="0.75" stop-color="#55442A" />
            <stop offset="1" stop-color="#251A0A" />
        </linearGradient>
        <radialGradient id="paint1_radial_1958_2264" cx="0" cy="0" r="1" gradientUnits="userSpaceOnUse"
            gradientTransform="translate(55.6597 38.2454) rotate(115.493) scale(2.56201 2.831)">
            <stop offset="0.65625" stop-color="#EC6039" />
            <stop offset="1" stop-color="#CB6346" />
        </radialGradient>
    </defs>
</svg>