<svg width="100" height="100" viewBox="0 0 100 100" fill="none" xmlns="http://www.w3.org/2000/svg">
    <path fill-rule="evenodd" clip-rule="evenodd"
        d="M61.2783 53.281C61.9045 51.747 61.1685 49.9959 59.6345 49.3698C58.1005 48.7436 56.3494 49.4796 55.7233 51.0135L42.7233 82.862C42.0971 84.3959 42.8331 86.1471 44.3671 86.7732C45.901 87.3994 47.6522 86.6634 48.2783 85.1294L50.8761 78.7652H80.9794L83.7233 85.4873C84.3494 87.0213 86.1005 87.7572 87.6345 87.1311C89.1685 86.5049 89.9045 84.7538 89.2783 83.2198L85.7727 74.6315L82.2671 66.0431L79.0536 58.1705L76.2783 51.3714C75.6522 49.8374 73.901 49.1015 72.3671 49.7276C70.8331 50.3537 70.0971 52.1049 70.7233 53.6389L71.8112 56.3042H60.0443L61.2783 53.281ZM57.5952 62.3042L56.8308 64.1769H75.0247L74.2603 62.3042H57.5952ZM54.3817 70.1769L53.3252 72.7652H78.5303L77.4738 70.1769H54.3817Z"
        fill="url(#paint0_linear_1958_2291)" />
    <path
        d="M11 68H27.8016C28.2211 68 28.596 68.2619 28.7404 68.6557L33.5071 81.6557C33.7464 82.3084 33.2633 83 32.5682 83H12C11.4477 83 11 82.5523 11 82V68ZM11 68V16C11 15.4477 11.4477 15 12 15H27.5C28.0523 15 28.5 15.4477 28.5 16V23.5M28.5 23.5H21.5C20.9477 23.5 20.5 23.9477 20.5 24.5V28C20.5 28.5523 20.9477 29 21.5 29H40C40.5523 29 41 28.5523 41 28V24.5C41 23.9477 40.5523 23.5 40 23.5H28.5Z"
        stroke="url(#paint1_linear_1958_2291)" stroke-width="6" stroke-linecap="round" stroke-linejoin="round" />
    <path fill-rule="evenodd" clip-rule="evenodd"
        d="M28.0647 43.6433C22.9086 44.4684 21.0778 49.2203 22.9991 52.1844C24.1453 53.9529 24.9995 54.1629 26.23 54.4656C26.6107 54.5592 27.0275 54.6617 27.5 54.8219C29.5 55.5 28.5647 56.5 27 58L32 54.8219C32.2259 54.6726 32.4582 54.5245 32.6926 54.3751C34.5329 53.202 36.5003 51.948 36.5003 49.3747C36.5003 45.4188 33.0094 42.8519 28.0647 43.6433ZM29.4999 49C29.4999 49.8284 28.8284 50.5 27.9999 50.5C27.1715 50.5 26.4999 49.8284 26.4999 49C26.4999 48.1716 27.1715 47.5 27.9999 47.5C28.8284 47.5 29.4999 48.1716 29.4999 49ZM32.9999 50.5C33.8284 50.5 34.4999 49.8284 34.4999 49C34.4999 48.1716 33.8284 47.5 32.9999 47.5C32.1715 47.5 31.4999 48.1716 31.4999 49C31.4999 49.8284 32.1715 50.5 32.9999 50.5Z"
        fill="#0049FF" />
    <path
        d="M22.9991 52.1844L22.5795 52.4564L22.9991 52.1844ZM28.0647 43.6433L28.1437 44.137L28.0647 43.6433ZM26.23 54.4656L26.1106 54.9511H26.1106L26.23 54.4656ZM27.5 54.8219L27.6606 54.3484L27.5 54.8219ZM27 58L26.654 57.6391C26.4685 57.8169 26.448 58.1064 26.6066 58.3086C26.7653 58.5108 27.0513 58.5598 27.2682 58.422L27 58ZM32 54.8219L32.2683 55.2439L32.2757 55.239L32 54.8219ZM32.6926 54.3751L32.9613 54.7967H32.9613L32.6926 54.3751ZM23.4186 51.9125C21.7331 49.312 23.2707 44.9168 28.1437 44.137L27.9856 43.1495C22.5465 44.02 20.4226 49.1286 22.5795 52.4564L23.4186 51.9125ZM26.3494 53.98C25.7237 53.8261 25.2778 53.7128 24.8433 53.4478C24.4167 53.1877 23.966 52.757 23.4186 51.9125L22.5795 52.4564C23.1784 53.3804 23.7279 53.9389 24.3226 54.3016C24.9094 54.6594 25.5059 54.8024 26.1106 54.9511L26.3494 53.98ZM27.6606 54.3484C27.1653 54.1804 26.7295 54.0735 26.3494 53.98L26.1106 54.9511C26.492 55.0449 26.8896 55.1429 27.3394 55.2954L27.6606 54.3484ZM27.346 58.3609C27.7359 57.9872 28.1027 57.6294 28.3954 57.2956C28.6817 56.9692 28.937 56.6221 29.0596 56.2652C29.1942 55.8734 29.1712 55.4521 28.8769 55.0823C28.617 54.7557 28.1886 54.5274 27.6606 54.3484L27.3394 55.2954C27.8114 55.4554 28.016 55.6064 28.0944 55.7049C28.1384 55.7602 28.1587 55.8098 28.1139 55.9403C28.0571 56.1057 27.9102 56.3322 27.6435 56.6363C27.3833 56.9331 27.0465 57.2628 26.654 57.6391L27.346 58.3609ZM31.7318 54.3999L26.7318 57.578L27.2682 58.422L32.2682 55.2439L31.7318 54.3999ZM32.4238 53.9535C32.1901 54.1025 31.9543 54.2528 31.7243 54.4048L32.2757 55.239C32.4976 55.0924 32.7263 54.9465 32.9613 54.7967L32.4238 53.9535ZM36.0003 49.3747C36.0003 51.6346 34.3096 52.7514 32.4238 53.9535L32.9613 54.7967C34.7563 53.6526 37.0003 52.2614 37.0003 49.3747H36.0003ZM28.1437 44.137C30.5179 43.757 32.4889 44.1913 33.8512 45.1392C35.2044 46.0807 36.0003 47.5563 36.0003 49.3747H37.0003C37.0003 47.2372 36.0508 45.4514 34.4223 44.3183C32.803 43.1916 30.5561 42.7382 27.9856 43.1495L28.1437 44.137ZM27.9999 51C29.1045 51 29.9999 50.1046 29.9999 49H28.9999C28.9999 49.5523 28.5522 50 27.9999 50V51ZM25.9999 49C25.9999 50.1046 26.8954 51 27.9999 51V50C27.4477 50 26.9999 49.5523 26.9999 49H25.9999ZM27.9999 47C26.8954 47 25.9999 47.8954 25.9999 49H26.9999C26.9999 48.4477 27.4477 48 27.9999 48V47ZM29.9999 49C29.9999 47.8954 29.1045 47 27.9999 47V48C28.5522 48 28.9999 48.4477 28.9999 49H29.9999ZM33.9999 49C33.9999 49.5523 33.5522 50 32.9999 50V51C34.1045 51 34.9999 50.1046 34.9999 49H33.9999ZM32.9999 48C33.5522 48 33.9999 48.4477 33.9999 49H34.9999C34.9999 47.8954 34.1045 47 32.9999 47V48ZM31.9999 49C31.9999 48.4477 32.4477 48 32.9999 48V47C31.8954 47 30.9999 47.8954 30.9999 49H31.9999ZM32.9999 50C32.4477 50 31.9999 49.5523 31.9999 49H30.9999C30.9999 50.1046 31.8954 51 32.9999 51V50Z"
        fill="#0049FF" />
    <path fill-rule="evenodd" clip-rule="evenodd"
        d="M54.7363 37.1433C60.0759 37.9684 61.9719 42.7203 59.9822 45.6844C58.7951 47.4529 57.9106 47.6629 56.6362 47.9656C56.242 48.0592 55.8104 48.1617 55.3211 48.3219C53.2499 49 54.2185 50 55.8389 51.5L50.6609 48.3219C50.4269 48.1726 50.1863 48.0245 49.9437 47.8751C48.0377 46.702 46.0003 45.448 46.0003 42.8747C46.0003 38.9188 49.6155 36.3519 54.7363 37.1433ZM53.251 42.5C53.251 43.3284 53.9465 44 54.8044 44C55.6624 44 56.3578 43.3284 56.3578 42.5C56.3578 41.6716 55.6624 41 54.8044 41C53.9465 41 53.251 41.6716 53.251 42.5ZM49.6264 44C48.7685 44 48.073 43.3284 48.073 42.5C48.073 41.6716 48.7685 41 49.6264 41C50.4844 41 51.1798 41.6716 51.1798 42.5C51.1798 43.3284 50.4844 44 49.6264 44Z"
        fill="#0049FF" />
    <path
        d="M59.9822 45.6844L59.5671 45.4058L59.9822 45.6844ZM54.7363 37.1433L54.8127 36.6491L54.7363 37.1433ZM56.6362 47.9656L56.7517 48.452L56.7517 48.452L56.6362 47.9656ZM55.3211 48.3219L55.1655 47.8467L55.3211 48.3219ZM55.8389 51.5L56.1785 51.1331C56.3672 51.3078 56.3927 51.5971 56.2373 51.8021C56.0819 52.007 55.7965 52.0607 55.5773 51.9261L55.8389 51.5ZM50.6609 48.3219L50.3993 48.7481L50.3919 48.7434L50.6609 48.3219ZM49.9437 47.8751L50.2057 47.4493V47.4493L49.9437 47.8751ZM59.5671 45.4058C61.2989 42.8258 59.7382 38.4221 54.6599 37.6374L54.8127 36.6491C60.4136 37.5147 62.6449 42.6149 60.3974 45.9631L59.5671 45.4058ZM56.5207 47.4791C57.1685 47.3253 57.6345 47.211 58.0882 46.9438C58.5332 46.6818 59.0006 46.2496 59.5671 45.4058L60.3974 45.9631C59.7767 46.8877 59.2084 47.4448 58.5957 47.8055C57.9918 48.1611 57.3783 48.3033 56.7517 48.452L56.5207 47.4791ZM55.1655 47.8467C55.677 47.6792 56.1271 47.5726 56.5207 47.4791L56.7517 48.452C56.3569 48.5458 55.9439 48.6441 55.4766 48.7971L55.1655 47.8467ZM55.4992 51.8669C55.0955 51.4932 54.7159 51.1357 54.4129 50.8021C54.1171 50.4764 53.8521 50.1289 53.7245 49.7703C53.5833 49.3734 53.6088 48.9466 53.9144 48.5757C54.1819 48.2511 54.6218 48.0247 55.1655 47.8467L55.4766 48.7971C54.9847 48.9581 54.769 49.111 54.6862 49.2116C54.6416 49.2657 54.6221 49.3098 54.6667 49.4351C54.7249 49.5988 54.8764 49.825 55.1533 50.1298C55.423 50.4268 55.772 50.7568 56.1785 51.1331L55.4992 51.8669ZM50.9224 47.8957L56.1004 51.0739L55.5773 51.9261L50.3993 48.748L50.9224 47.8957ZM50.2057 47.4493C50.4478 47.5983 50.6919 47.7485 50.9299 47.9004L50.3919 48.7434C50.1619 48.5966 49.9249 48.4507 49.6816 48.3009L50.2057 47.4493ZM46.5003 42.8747C46.5003 45.1265 48.2474 46.2439 50.2057 47.4493L49.6816 48.3009C47.8281 47.1601 45.5003 45.7694 45.5003 42.8747H46.5003ZM54.6599 37.6374C52.1935 37.2562 50.1437 37.6919 48.7269 38.6438C47.3207 39.5886 46.5003 41.0639 46.5003 42.8747H45.5003C45.5003 40.7296 46.4876 38.9436 48.1692 37.8137C49.8402 36.6911 52.1583 36.2389 54.8127 36.6491L54.6599 37.6374ZM54.8044 44.5C53.687 44.5 52.751 43.6209 52.751 42.5H53.751C53.751 43.0359 54.206 43.5 54.8044 43.5V44.5ZM56.8578 42.5C56.8578 43.6209 55.9219 44.5 54.8044 44.5V43.5C55.4028 43.5 55.8578 43.0359 55.8578 42.5H56.8578ZM54.8044 40.5C55.9219 40.5 56.8578 41.3791 56.8578 42.5H55.8578C55.8578 41.9641 55.4028 41.5 54.8044 41.5V40.5ZM52.751 42.5C52.751 41.3791 53.687 40.5 54.8044 40.5V41.5C54.206 41.5 53.751 41.9641 53.751 42.5H52.751ZM48.573 42.5C48.573 43.0359 49.028 43.5 49.6264 43.5V44.5C48.509 44.5 47.573 43.6209 47.573 42.5H48.573ZM49.6264 41.5C49.028 41.5 48.573 41.9641 48.573 42.5H47.573C47.573 41.3791 48.509 40.5 49.6264 40.5V41.5ZM50.6798 42.5C50.6798 41.9641 50.2248 41.5 49.6264 41.5V40.5C50.7439 40.5 51.6798 41.3791 51.6798 42.5H50.6798ZM49.6264 43.5C50.2248 43.5 50.6798 43.0359 50.6798 42.5H51.6798C51.6798 43.6209 50.7439 44.5 49.6264 44.5V43.5Z"
        fill="#0049FF" />
    <defs>
        <linearGradient id="paint0_linear_1958_2291" x1="66.0008" y1="49.1465" x2="66.0008" y2="87.3543"
            gradientUnits="userSpaceOnUse">
            <stop stop-color="#323232" />
            <stop offset="1" stop-color="#565656" />
        </linearGradient>
        <linearGradient id="paint1_linear_1958_2291" x1="26" y1="15" x2="26" y2="83" gradientUnits="userSpaceOnUse">
            <stop stop-color="#D2D2D2" />
            <stop offset="1" stop-color="#565656" />
        </linearGradient>
    </defs>
</svg>