<svg width="100" height="100" viewBox="0 0 100 100" fill="none" xmlns="http://www.w3.org/2000/svg">
    <path
        d="M15 78.999V48.999C15 48.4467 15.4477 47.999 16 47.999H47C47.5523 47.999 48 48.4467 48 48.999V78.999C48 79.5513 47.5523 79.999 47 79.999H16C15.4477 79.999 15 79.5513 15 78.999Z"
        fill="#773D39" stroke="url(#paint0_linear_1958_2190)" stroke-width="6" stroke-linecap="round" />
    <path
        d="M60.6498 62.7675L48.4081 35.3788C48.1827 34.8746 48.4087 34.2831 48.913 34.0578L77.2146 21.408C77.7188 21.1826 78.3102 21.4087 78.5356 21.9129L90.7773 49.3016C91.0027 49.8058 90.7767 50.3972 90.2724 50.6226L61.9708 63.2724C61.4666 63.4977 60.8752 63.2717 60.6498 62.7675Z"
        fill="#304472" stroke="url(#paint1_linear_1958_2190)" stroke-width="6" stroke-linecap="round" />
    <path fill-rule="evenodd" clip-rule="evenodd"
        d="M32 56.1917C31.702 56.0589 31.3323 55.9787 30.9011 56.0035C30.3393 56.0358 29.8181 56.2371 29.454 56.6143C29.0856 56.9959 28.9391 57.4968 29.0229 57.9981C29.0531 58.1787 29.1296 58.3362 29.1908 58.4453C29.2575 58.5642 29.339 58.6824 29.423 58.7938C29.5913 59.0167 29.8052 59.2577 30.027 59.4908C30.4726 59.9588 31.0002 60.4467 31.3896 60.7829C31.5615 60.9313 31.7817 61.0028 32 60.9989C32.2183 61.0028 32.4385 60.9313 32.6104 60.7829C32.9998 60.4467 33.5274 59.9588 33.973 59.4908C34.1948 59.2577 34.4087 59.0167 34.577 58.7938C34.661 58.6824 34.7425 58.5642 34.8092 58.4453C34.8704 58.3362 34.9469 58.1787 34.9771 57.9981C35.0609 57.4968 34.9144 56.9959 34.546 56.6143C34.1819 56.2371 33.6607 56.0358 33.0989 56.0035C32.6677 55.9787 32.298 56.0589 32 56.1917Z"
        fill="#FFDBD1" />
    <path fill-rule="evenodd" clip-rule="evenodd"
        d="M32 66.1917C31.702 66.0589 31.3323 65.9787 30.9011 66.0035C30.3393 66.0358 29.8181 66.2371 29.454 66.6143C29.0856 66.9959 28.9391 67.4968 29.0229 67.9981C29.0531 68.1787 29.1296 68.3362 29.1908 68.4453C29.2575 68.5642 29.339 68.6824 29.423 68.7938C29.5913 69.0167 29.8052 69.2577 30.027 69.4908C30.4726 69.9588 31.0002 70.4467 31.3896 70.7829C31.5615 70.9313 31.7817 71.0028 32 70.9989C32.2183 71.0028 32.4385 70.9313 32.6104 70.7829C32.9998 70.4467 33.5274 69.9588 33.973 69.4908C34.1948 69.2577 34.4087 69.0167 34.577 68.7938C34.661 68.6824 34.7425 68.5642 34.8092 68.4453C34.8704 68.3362 34.9469 68.1787 34.9771 67.9981C35.0609 67.4968 34.9144 66.9959 34.546 66.6143C34.1819 66.2371 33.6607 66.0358 33.0989 66.0035C32.6677 65.9787 32.298 66.0589 32 66.1917Z"
        fill="#FFA9A2" />
    <path
        d="M70.4327 40.1306C70.4812 39.9542 70.7257 39.5701 71.316 39.4445C72.0537 39.2876 72.6006 39.6722 72.6744 40.2867C72.7305 40.7545 72.0004 42.2023 71.4682 43.1015C71.4322 43.1622 71.345 43.1619 71.3083 43.1015L70.2313 41.3278C70.2193 41.3079 70.215 41.2843 70.2193 41.2615L70.4327 40.1306Z"
        fill="#6480C3" />
    <path
        d="M67.8817 40.8966C67.6883 40.8397 67.2655 40.8339 66.8413 41.2025C66.272 41.6972 66.25 42.3655 66.6964 42.7942C67.0252 43.1099 68.6122 43.3769 69.6632 43.4979C69.7507 43.5079 69.8008 43.4029 69.739 43.3401L68.3 41.878C68.2909 41.8687 68.2838 41.8577 68.2792 41.8456L67.9355 40.9485C67.9261 40.9239 67.907 40.9041 67.8817 40.8966Z"
        fill="#6480C3" />
    <path
        d="M70.4327 40.1306C70.4812 39.9542 70.7257 39.5701 71.316 39.4445C72.0537 39.2876 72.6006 39.6722 72.6744 40.2867C72.7305 40.7545 72.0004 42.2023 71.4682 43.1015C71.4322 43.1622 71.345 43.1619 71.3083 43.1015L70.2313 41.3278C70.2193 41.3079 70.215 41.2843 70.2193 41.2615L70.4327 40.1306Z"
        stroke="#6480C3" stroke-linecap="round" />
    <path
        d="M67.8817 40.8966C67.6883 40.8397 67.2655 40.8339 66.8413 41.2025C66.272 41.6972 66.25 42.3655 66.6964 42.7942C67.0252 43.1099 68.6122 43.3769 69.6632 43.4979C69.7507 43.5079 69.8008 43.4029 69.739 43.3401L68.3 41.878C68.2909 41.8687 68.2838 41.8577 68.2792 41.8456L67.9355 40.9485C67.9261 40.9239 67.907 40.9041 67.8817 40.8966Z"
        stroke="#6480C3" stroke-linecap="round" />
    <defs>
        <linearGradient id="paint0_linear_1958_2190" x1="31.5" y1="47.999" x2="31.5" y2="79.999"
            gradientUnits="userSpaceOnUse">
            <stop stop-color="#FEF6EA" />
            <stop offset="1" stop-color="#FF9F99" />
        </linearGradient>
        <linearGradient id="paint1_linear_1958_2190" x1="63.0638" y1="27.7329" x2="76.1216" y2="56.9475"
            gradientUnits="userSpaceOnUse">
            <stop stop-color="#7E9ADF" />
            <stop offset="1" stop-color="#3A5494" />
        </linearGradient>
    </defs>
</svg>