<svg width="100" height="100" viewBox="0 0 100 100" fill="none" xmlns="http://www.w3.org/2000/svg">
    <path
        d="M25 79.5H66.5C69.1667 79.6667 74.5 78.2 74.5 71C74.5 63.8 69.1667 61 66.5 60.5H50.5C48.1667 60.5 43.5 58.7 43.5 51.5C43.5 44.3 48.1667 42.1667 50.5 42H66.5M25 79.5C25 79.5 17 72 17 64.5C17 63 18 57.5 24.5 57.5C31 57.5 32 63.5 32 64.5C32 72 25 79.5 25 79.5Z"
        stroke="url(#paint0_linear_1958_2100)" stroke-width="6" stroke-linecap="round" stroke-linejoin="round" />
    <circle cx="24.5" cy="65" r="2" fill="#EE673A" />
    <g filter="url(#filter0_f_1958_2100)">
        <path fill-rule="evenodd" clip-rule="evenodd"
            d="M67.9427 20.6236C67.0544 20.1938 65.9524 19.9342 64.6671 20.0145C62.9924 20.1192 61.4386 20.7709 60.3533 21.9918C59.2551 23.227 58.8186 24.8486 59.0683 26.4714C59.1582 27.0562 59.3863 27.5659 59.5688 27.919C59.7677 28.3039 60.0104 28.6867 60.261 29.0472C60.7627 29.7688 61.4001 30.549 62.0614 31.3035C63.3895 32.8187 64.9623 34.3979 66.1233 35.4863C66.6357 35.9667 67.2919 36.1982 67.9427 36.1855C68.5935 36.1982 69.2497 35.9667 69.7621 35.4863C70.923 34.3979 72.4958 32.8187 73.824 31.3035C74.4853 30.549 75.1227 29.7688 75.6244 29.0472C75.875 28.6867 76.1177 28.3039 76.3166 27.919C76.4991 27.5659 76.7272 27.0562 76.8171 26.4714C77.0668 24.8486 76.6303 23.227 75.5321 21.9918C74.4468 20.7709 72.893 20.1192 71.2183 20.0145C69.933 19.9342 68.831 20.1938 67.9427 20.6236Z"
            fill="url(#paint1_radial_1958_2100)" fill-opacity="0.8" />
    </g>
    <path fill-rule="evenodd" clip-rule="evenodd"
        d="M67.9427 20.6236C67.0544 20.1938 65.9524 19.9342 64.6671 20.0145C62.9924 20.1192 61.4386 20.7709 60.3533 21.9918C59.2551 23.227 58.8186 24.8486 59.0683 26.4714C59.1582 27.0562 59.3863 27.5659 59.5688 27.919C59.7677 28.3039 60.0104 28.6867 60.261 29.0472C60.7627 29.7688 61.4001 30.549 62.0614 31.3035C63.3895 32.8187 64.9623 34.3979 66.1233 35.4863C66.6357 35.9667 67.2919 36.1982 67.9427 36.1855C68.5935 36.1982 69.2497 35.9667 69.7621 35.4863C70.923 34.3979 72.4958 32.8187 73.824 31.3035C74.4853 30.549 75.1227 29.7688 75.6244 29.0472C75.875 28.6867 76.1177 28.3039 76.3166 27.919C76.4991 27.5659 76.7272 27.0562 76.8171 26.4714C77.0668 24.8486 76.6303 23.227 75.5321 21.9918C74.4468 20.7709 72.893 20.1192 71.2183 20.0145C69.933 19.9342 68.831 20.1938 67.9427 20.6236Z"
        fill="url(#paint2_radial_1958_2100)" />
    <defs>
        <filter id="filter0_f_1958_2100" x="55" y="16" width="25.8867" height="24.186" filterUnits="userSpaceOnUse"
            color-interpolation-filters="sRGB">
            <feFlood flood-opacity="0" result="BackgroundImageFix" />
            <feBlend mode="normal" in="SourceGraphic" in2="BackgroundImageFix" result="shape" />
            <feGaussianBlur stdDeviation="2" result="effect1_foregroundBlur_1958_2100" />
        </filter>
        <linearGradient id="paint0_linear_1958_2100" x1="45.75" y1="42" x2="45.75" y2="79.5123"
            gradientUnits="userSpaceOnUse">
            <stop stop-color="#C1E2CF" />
            <stop offset="1" stop-color="#2F4438" />
        </linearGradient>
        <radialGradient id="paint1_radial_1958_2100" cx="0" cy="0" r="1" gradientUnits="userSpaceOnUse"
            gradientTransform="translate(67.9427 28.093) rotate(90) scale(8.09299 8.9427)">
            <stop offset="0.65625" stop-color="#EC6039" />
            <stop offset="1" stop-color="#CB6346" />
        </radialGradient>
        <radialGradient id="paint2_radial_1958_2100" cx="0" cy="0" r="1" gradientUnits="userSpaceOnUse"
            gradientTransform="translate(67.9427 28.093) rotate(90) scale(8.09299 8.9427)">
            <stop offset="0.65625" stop-color="#EC6039" />
            <stop offset="1" stop-color="#CB6346" />
        </radialGradient>
    </defs>
</svg>