<svg width="100" height="100" viewBox="0 0 100 100" fill="none" xmlns="http://www.w3.org/2000/svg">
    <path d="M30 59.5V14H69V59.5H30Z" fill="#4B3B23" stroke="url(#paint0_linear_1958_2136)" stroke-width="6"
        stroke-linecap="round" stroke-linejoin="round" />
    <path
        d="M21 85.5V72.5819C21 71.5082 22.9431 70.9099 23.7016 71.6699C27.6052 75.5813 35.4198 80 48.5 80C62.4803 80 71.0764 74.9522 75.1903 70.8711C75.915 70.1523 77.5 70.6782 77.5 71.6989V85.5"
        stroke="url(#paint1_linear_1958_2136)" stroke-width="6" stroke-linecap="round" stroke-linejoin="round" />
    <circle cx="21" cy="61" r="3" fill="#E4B6BB" />
    <circle cx="78" cy="61" r="3" fill="#E4B6BB" />
    <path
        d="M56 42.3764C56 40.2629 56.508 40.4761 57.2 38.9003C57.4308 39.6882 57.6615 40.1053 58.3077 40.4761C58.3077 40.4761 59 37.9424 59 37C60 38.0351 62 40.5596 62 42.3764C62 44.6475 59.9692 45.25 59.1385 45.25C58.3077 45.25 56 45.0183 56 42.3764Z"
        stroke="#EE673A" stroke-width="2" stroke-linecap="round" stroke-linejoin="round" />
    <path
        d="M38 43.3764C38 41.2629 38.508 41.4761 39.2 39.9003C39.4308 40.6882 39.6615 41.1053 40.3077 41.4761C40.3077 41.4761 41 38.9424 41 38C42 39.0351 44 41.5596 44 43.3764C44 45.6475 41.9692 46.25 41.1385 46.25C40.3077 46.25 38 46.0183 38 43.3764Z"
        stroke="#EE673A" stroke-width="2" stroke-linecap="round" stroke-linejoin="round" />
    <path
        d="M46 49.1685C46 46.3506 47 46 47.6 44.5337C47.9077 45.5843 48.2154 46.1405 49.0769 46.6348C49.0769 46.6348 50 43.2566 50 42C51.3333 43.3801 54 46.7461 54 49.1685C54 52.1966 51.2923 53 50.1846 53C49.0769 53 46 52.691 46 49.1685Z"
        stroke="#EE673A" stroke-width="2" stroke-linecap="round" stroke-linejoin="round" />
    <g filter="url(#filter0_f_1958_2136)">
        <path fill-rule="evenodd" clip-rule="evenodd"
            d="M49.9427 23.6236C49.0544 23.1938 47.9524 22.9342 46.6671 23.0145C44.9924 23.1192 43.4386 23.7709 42.3533 24.9918C41.2551 26.227 40.8186 27.8486 41.0683 29.4714C41.1582 30.0562 41.3863 30.5659 41.5688 30.919C41.7677 31.3039 42.0104 31.6867 42.261 32.0472C42.7627 32.7688 43.4001 33.549 44.0614 34.3035C45.3895 35.8187 46.9623 37.3979 48.1233 38.4863C48.6357 38.9667 49.2919 39.1982 49.9427 39.1855C50.5935 39.1982 51.2497 38.9667 51.7621 38.4863C52.923 37.3979 54.4958 35.8187 55.824 34.3035C56.4853 33.549 57.1227 32.7688 57.6244 32.0472C57.875 31.6867 58.1177 31.3039 58.3166 30.919C58.4991 30.5659 58.7272 30.0562 58.8171 29.4714C59.0668 27.8486 58.6303 26.227 57.5321 24.9918C56.4468 23.7709 54.893 23.1192 53.2183 23.0145C51.933 22.9342 50.831 23.1938 49.9427 23.6236Z"
            fill="url(#paint2_radial_1958_2136)" fill-opacity="0.8" />
    </g>
    <path fill-rule="evenodd" clip-rule="evenodd"
        d="M49.9427 23.6236C49.0544 23.1938 47.9524 22.9342 46.6671 23.0145C44.9924 23.1192 43.4386 23.7709 42.3533 24.9918C41.2551 26.227 40.8186 27.8486 41.0683 29.4714C41.1582 30.0562 41.3863 30.5659 41.5688 30.919C41.7677 31.3039 42.0104 31.6867 42.261 32.0472C42.7627 32.7688 43.4001 33.549 44.0614 34.3035C45.3895 35.8187 46.9623 37.3979 48.1233 38.4863C48.6357 38.9667 49.2919 39.1982 49.9427 39.1855C50.5935 39.1982 51.2497 38.9667 51.7621 38.4863C52.923 37.3979 54.4958 35.8187 55.824 34.3035C56.4853 33.549 57.1227 32.7688 57.6244 32.0472C57.875 31.6867 58.1177 31.3039 58.3166 30.919C58.4991 30.5659 58.7272 30.0562 58.8171 29.4714C59.0668 27.8486 58.6303 26.227 57.5321 24.9918C56.4468 23.7709 54.893 23.1192 53.2183 23.0145C51.933 22.9342 50.831 23.1938 49.9427 23.6236Z"
        fill="url(#paint3_radial_1958_2136)" />
    <defs>
        <filter id="filter0_f_1958_2136" x="37" y="19" width="25.8867" height="24.186" filterUnits="userSpaceOnUse"
            color-interpolation-filters="sRGB">
            <feFlood flood-opacity="0" result="BackgroundImageFix" />
            <feBlend mode="normal" in="SourceGraphic" in2="BackgroundImageFix" result="shape" />
            <feGaussianBlur stdDeviation="2" result="effect1_foregroundBlur_1958_2136" />
        </filter>
        <linearGradient id="paint0_linear_1958_2136" x1="49.8" y1="11.1562" x2="49.8" y2="65.1875"
            gradientUnits="userSpaceOnUse">
            <stop stop-color="#FEF6EA" />
            <stop offset="0.473958" stop-color="#D2C7B8" />
            <stop offset="0.75" stop-color="#55442A" />
            <stop offset="1" stop-color="#251A0A" />
        </linearGradient>
        <linearGradient id="paint1_linear_1958_2136" x1="49.25" y1="68" x2="49.25" y2="85.5"
            gradientUnits="userSpaceOnUse">
            <stop stop-color="#F6C7CC" />
            <stop offset="1" stop-color="#4E2125" />
        </linearGradient>
        <radialGradient id="paint2_radial_1958_2136" cx="0" cy="0" r="1" gradientUnits="userSpaceOnUse"
            gradientTransform="translate(49.9427 31.093) rotate(90) scale(8.09299 8.9427)">
            <stop offset="0.65625" stop-color="#EC6039" />
            <stop offset="1" stop-color="#CB6346" />
        </radialGradient>
        <radialGradient id="paint3_radial_1958_2136" cx="0" cy="0" r="1" gradientUnits="userSpaceOnUse"
            gradientTransform="translate(49.9427 31.093) rotate(90) scale(8.09299 8.9427)">
            <stop offset="0.65625" stop-color="#EC6039" />
            <stop offset="1" stop-color="#CB6346" />
        </radialGradient>
    </defs>
</svg>