<svg width="100" height="100" viewBox="0 0 100 100" fill="none" xmlns="http://www.w3.org/2000/svg">
    <g clip-path="url(#clip0_1958_2105)">
        <path fill-rule="evenodd" clip-rule="evenodd"
            d="M12 65.5C16.0541 65.5 18.3679 64.1785 20.2069 63.0682L20.2956 63.0146C21.858 62.0709 22.8031 61.5 24.75 61.5C26.767 61.5 27.8547 62.1227 29.5226 63.093C31.3403 64.1507 33.6694 65.5 37.5 65.5C41.3061 65.5 43.5188 64.1634 45.2552 63.1145L45.3319 63.0682C46.849 62.1522 47.9582 61.5 50.25 61.5C52.5418 61.5 53.651 62.1522 55.1681 63.0682L55.2448 63.1145C56.9812 64.1634 59.1939 65.5 63 65.5C66.8306 65.5 69.1597 64.1507 70.9774 63.093C72.6453 62.1227 73.733 61.5 75.75 61.5C77.7981 61.5 79.0287 62.1498 80.75 63.1162L80.89 63.1949C82.665 64.1929 84.9907 65.5005 88.5005 65.5C90.1573 65.4997 91.5003 64.1564 91.5 62.4995C91.4997 60.8427 90.1564 59.4997 88.4995 59.5C86.6023 59.5003 85.4574 58.8782 83.6875 57.8844L83.6708 57.8751C81.8318 56.8425 79.4407 55.5 75.75 55.5C72.0933 55.5 69.8237 56.8217 68.0691 57.8435L67.9601 57.907C66.3403 58.8493 65.1694 59.5 63 59.5C60.8667 59.5 59.838 58.8789 58.2788 57.9375L58.2694 57.9318C56.474 56.8478 54.2082 55.5 50.25 55.5C46.2918 55.5 44.026 56.8478 42.2306 57.9318L42.2212 57.9375C40.662 58.8789 39.6333 59.5 37.5 59.5C35.3306 59.5 34.1597 58.8493 32.5399 57.907L32.4309 57.8435C30.6763 56.8217 28.4067 55.5 24.75 55.5C21.1207 55.5 18.9632 56.8068 17.293 57.8184L17.1056 57.9318C15.6321 58.8215 14.4459 59.5 12 59.5C10.3431 59.5 9 60.8431 9 62.5C9 64.1569 10.3431 65.5 12 65.5ZM12 80C16.0541 80 18.3679 78.6785 20.2069 77.5682L20.2956 77.5146C21.858 76.5709 22.8031 76 24.75 76C26.767 76 27.8547 76.6227 29.5226 77.593C31.3403 78.6507 33.6694 80 37.5 80C41.3061 80 43.5188 78.6634 45.2552 77.6145L45.3319 77.5682C46.849 76.6522 47.9582 76 50.25 76C52.5418 76 53.651 76.6522 55.1681 77.5682L55.2448 77.6145C56.9812 78.6634 59.1939 80 63 80C66.8306 80 69.1597 78.6507 70.9774 77.593C72.6453 76.6227 73.733 76 75.75 76C77.7981 76 79.0287 76.6498 80.75 77.6162L80.89 77.6949C82.665 78.6929 84.9907 80.0005 88.5005 80C90.1573 79.9997 91.5003 78.6564 91.5 76.9995C91.4997 75.3427 90.1564 73.9997 88.4995 74C86.6023 74.0003 85.4574 73.3782 83.6875 72.3844L83.6708 72.3751C81.8318 71.3425 79.4407 70 75.75 70C72.0933 70 69.8237 71.3217 68.0691 72.3435L67.9601 72.407C66.3403 73.3493 65.1694 74 63 74C60.8667 74 59.838 73.3789 58.2788 72.4375L58.2694 72.4318C56.474 71.3478 54.2082 70 50.25 70C46.2918 70 44.026 71.3478 42.2306 72.4318L42.2212 72.4375C40.662 73.3789 39.6333 74 37.5 74C35.3306 74 34.1597 73.3493 32.5399 72.407L32.4309 72.3435C30.6763 71.3217 28.4067 70 24.75 70C21.1207 70 18.9632 71.3068 17.293 72.3184L17.1056 72.4318C15.6321 73.3215 14.4459 74 12 74C10.3431 74 9 75.3431 9 77C9 78.6569 10.3431 80 12 80Z"
            fill="url(#paint0_linear_1958_2105)" />
        <path d="M56 43L61.25 40.5L66.5 43" stroke="white" stroke-width="4" stroke-linecap="round"
            stroke-linejoin="round" />
        <path d="M36 34.5L41.25 32L46.5 34.5" stroke="white" stroke-width="4" stroke-linecap="round"
            stroke-linejoin="round" />
        <g filter="url(#filter0_f_1958_2105)">
            <path fill-rule="evenodd" clip-rule="evenodd"
                d="M41.5 25.3082C41.053 25.0958 40.4985 24.9675 39.8517 25.0072C39.009 25.0589 38.2271 25.381 37.681 25.9844C37.1284 26.595 36.9087 27.3964 37.0344 28.1985C37.0796 28.4875 37.1944 28.7395 37.2862 28.914C37.3863 29.1042 37.5084 29.2934 37.6346 29.4716C37.887 29.8283 38.2078 30.2139 38.5405 30.5868C39.2088 31.3357 40.0003 32.1162 40.5845 32.6542C40.8423 32.8916 41.1725 33.006 41.5 32.9998C41.8275 33.006 42.1577 32.8916 42.4155 32.6542C42.9997 32.1162 43.7912 31.3357 44.4595 30.5868C44.7922 30.2139 45.113 29.8283 45.3654 29.4716C45.4916 29.2934 45.6137 29.1042 45.7138 28.914C45.8056 28.7395 45.9204 28.4875 45.9656 28.1985C46.0913 27.3964 45.8716 26.595 45.319 25.9844C44.7729 25.381 43.991 25.0589 43.1483 25.0072C42.5015 24.9675 41.947 25.0958 41.5 25.3082Z"
                fill="url(#paint1_radial_1958_2105)" fill-opacity="0.8" />
        </g>
        <path fill-rule="evenodd" clip-rule="evenodd"
            d="M41.5 25.3082C41.053 25.0958 40.4985 24.9675 39.8517 25.0072C39.009 25.0589 38.2271 25.381 37.681 25.9844C37.1284 26.595 36.9087 27.3964 37.0344 28.1985C37.0796 28.4875 37.1944 28.7395 37.2862 28.914C37.3863 29.1042 37.5084 29.2934 37.6346 29.4716C37.887 29.8283 38.2078 30.2139 38.5405 30.5868C39.2088 31.3357 40.0003 32.1162 40.5845 32.6542C40.8423 32.8916 41.1725 33.006 41.5 32.9998C41.8275 33.006 42.1577 32.8916 42.4155 32.6542C42.9997 32.1162 43.7912 31.3357 44.4595 30.5868C44.7922 30.2139 45.113 29.8283 45.3654 29.4716C45.4916 29.2934 45.6137 29.1042 45.7138 28.914C45.8056 28.7395 45.9204 28.4875 45.9656 28.1985C46.0913 27.3964 45.8716 26.595 45.319 25.9844C44.7729 25.381 43.991 25.0589 43.1483 25.0072C42.5015 24.9675 41.947 25.0958 41.5 25.3082Z"
            fill="url(#paint2_radial_1958_2105)" />
        <g filter="url(#filter1_f_1958_2105)">
            <path fill-rule="evenodd" clip-rule="evenodd"
                d="M61.5 33.3082C61.053 33.0958 60.4985 32.9675 59.8517 33.0072C59.009 33.0589 58.2271 33.381 57.681 33.9844C57.1284 34.595 56.9087 35.3964 57.0344 36.1985C57.0796 36.4875 57.1944 36.7395 57.2862 36.914C57.3863 37.1042 57.5084 37.2934 57.6346 37.4716C57.887 37.8283 58.2078 38.2139 58.5405 38.5868C59.2088 39.3357 60.0003 40.1162 60.5845 40.6542C60.8423 40.8916 61.1725 41.006 61.5 40.9998C61.8275 41.006 62.1577 40.8916 62.4155 40.6542C62.9997 40.1162 63.7912 39.3357 64.4595 38.5868C64.7922 38.2139 65.113 37.8283 65.3654 37.4716C65.4916 37.2934 65.6137 37.1042 65.7138 36.914C65.8056 36.7395 65.9204 36.4875 65.9656 36.1985C66.0913 35.3964 65.8716 34.595 65.319 33.9844C64.7729 33.381 63.991 33.0589 63.1483 33.0072C62.5015 32.9675 61.947 33.0958 61.5 33.3082Z"
                fill="url(#paint3_radial_1958_2105)" fill-opacity="0.8" />
        </g>
        <path fill-rule="evenodd" clip-rule="evenodd"
            d="M61.5 33.3082C61.053 33.0958 60.4985 32.9675 59.8517 33.0072C59.009 33.0589 58.2271 33.381 57.681 33.9844C57.1284 34.595 56.9087 35.3964 57.0344 36.1985C57.0796 36.4875 57.1944 36.7395 57.2862 36.914C57.3863 37.1042 57.5084 37.2934 57.6346 37.4716C57.887 37.8283 58.2078 38.2139 58.5405 38.5868C59.2088 39.3357 60.0003 40.1162 60.5845 40.6542C60.8423 40.8916 61.1725 41.006 61.5 40.9998C61.8275 41.006 62.1577 40.8916 62.4155 40.6542C62.9997 40.1162 63.7912 39.3357 64.4595 38.5868C64.7922 38.2139 65.113 37.8283 65.3654 37.4716C65.4916 37.2934 65.6137 37.1042 65.7138 36.914C65.8056 36.7395 65.9204 36.4875 65.9656 36.1985C66.0913 35.3964 65.8716 34.595 65.319 33.9844C64.7729 33.381 63.991 33.0589 63.1483 33.0072C62.5015 32.9675 61.947 33.0958 61.5 33.3082Z"
            fill="url(#paint4_radial_1958_2105)" />
    </g>
    <defs>
        <filter id="filter0_f_1958_2105" x="33" y="21" width="17" height="16" filterUnits="userSpaceOnUse"
            color-interpolation-filters="sRGB">
            <feFlood flood-opacity="0" result="BackgroundImageFix" />
            <feBlend mode="normal" in="SourceGraphic" in2="BackgroundImageFix" result="shape" />
            <feGaussianBlur stdDeviation="2" result="effect1_foregroundBlur_1958_2105" />
        </filter>
        <filter id="filter1_f_1958_2105" x="53" y="29" width="17" height="16" filterUnits="userSpaceOnUse"
            color-interpolation-filters="sRGB">
            <feFlood flood-opacity="0" result="BackgroundImageFix" />
            <feBlend mode="normal" in="SourceGraphic" in2="BackgroundImageFix" result="shape" />
            <feGaussianBlur stdDeviation="2" result="effect1_foregroundBlur_1958_2105" />
        </filter>
        <linearGradient id="paint0_linear_1958_2105" x1="50.25" y1="55.5" x2="50.25" y2="80"
            gradientUnits="userSpaceOnUse">
            <stop stop-color="#7E9ADF" />
            <stop offset="1" stop-color="#3A5494" />
        </linearGradient>
        <radialGradient id="paint1_radial_1958_2105" cx="0" cy="0" r="1" gradientUnits="userSpaceOnUse"
            gradientTransform="translate(41.5 29) rotate(90) scale(4 4.5)">
            <stop offset="0.65625" stop-color="#EC6039" />
            <stop offset="1" stop-color="#CB6346" />
        </radialGradient>
        <radialGradient id="paint2_radial_1958_2105" cx="0" cy="0" r="1" gradientUnits="userSpaceOnUse"
            gradientTransform="translate(41.5 29) rotate(90) scale(4 4.5)">
            <stop offset="0.65625" stop-color="#EC6039" />
            <stop offset="1" stop-color="#CB6346" />
        </radialGradient>
        <radialGradient id="paint3_radial_1958_2105" cx="0" cy="0" r="1" gradientUnits="userSpaceOnUse"
            gradientTransform="translate(61.5 37) rotate(90) scale(4 4.5)">
            <stop offset="0.65625" stop-color="#EC6039" />
            <stop offset="1" stop-color="#CB6346" />
        </radialGradient>
        <radialGradient id="paint4_radial_1958_2105" cx="0" cy="0" r="1" gradientUnits="userSpaceOnUse"
            gradientTransform="translate(61.5 37) rotate(90) scale(4 4.5)">
            <stop offset="0.65625" stop-color="#EC6039" />
            <stop offset="1" stop-color="#CB6346" />
        </radialGradient>
        <clipPath id="clip0_1958_2105">
            <rect width="100" height="100" fill="white" />
        </clipPath>
    </defs>
</svg>