<svg width="100" height="100" viewBox="0 0 100 100" fill="none" xmlns="http://www.w3.org/2000/svg">
    <g clip-path="url(#clip0_1958_2115)">
        <path fill-rule="evenodd" clip-rule="evenodd"
            d="M77.0636 46.6909C76.4113 46.8918 75.7183 47 75 47C71.134 47 68 43.866 68 40C68 39.0673 68.1824 38.1772 68.5135 37.3635L77.0636 46.6909ZM81.4865 42.6365L72.9364 33.3091C73.5887 33.1082 74.2817 33 75 33C78.866 33 82 36.134 82 40C82 40.9327 81.8176 41.8228 81.4865 42.6365ZM88 40C88 47.1797 82.1797 53 75 53C67.8203 53 62 47.1797 62 40C62 32.8203 67.8203 27 75 27C82.1797 27 88 32.8203 88 40Z"
            fill="#7A96DB" />
        <path
            d="M79 57C79 71 66.2401 84 50.5 84C44.513 84 38.9572 82.1539 34.3708 79C32.7916 77.9141 26.8274 80.3741 25.5 79C24.2276 77.6828 27.581 72.5424 26.5795 71C23.6826 66.5385 22 61.2158 22 55.5C22 39.7599 34.7599 27 50.5 27C53.5 27 57.5 28 60.5 30"
            stroke="url(#paint0_linear_1958_2115)" stroke-width="6" stroke-linecap="round" />
        <g filter="url(#filter0_f_1958_2115)">
            <path fill-rule="evenodd" clip-rule="evenodd"
                d="M50.5 50.5779C49.6557 50.1796 48.6082 49.939 47.3865 50.0135C45.7947 50.1105 44.3179 50.7144 43.2863 51.8458C42.2425 52.9906 41.8276 54.4933 42.0649 55.9973C42.1504 56.5391 42.3672 57.0115 42.5407 57.3388C42.7297 57.6955 42.9604 58.0502 43.1986 58.3843C43.6754 59.053 44.2813 59.7761 44.9099 60.4752C46.1722 61.8794 47.6672 63.3429 48.7707 64.3516C49.2577 64.7968 49.8814 65.0113 50.5 64.9995C51.1186 65.0113 51.7423 64.7968 52.2293 64.3516C53.3328 63.3429 54.8278 61.8794 56.0901 60.4752C56.7187 59.7761 57.3246 59.053 57.8014 58.3843C58.0396 58.0502 58.2703 57.6955 58.4593 57.3388C58.6328 57.0115 58.8496 56.5391 58.9351 55.9973C59.1724 54.4933 58.7575 52.9906 57.7137 51.8458C56.6821 50.7144 55.2053 50.1105 53.6135 50.0135C52.3918 49.939 51.3443 50.1796 50.5 50.5779Z"
                fill="url(#paint1_radial_1958_2115)" fill-opacity="0.8" />
        </g>
        <path fill-rule="evenodd" clip-rule="evenodd"
            d="M50.5 50.5779C49.6557 50.1796 48.6082 49.939 47.3865 50.0135C45.7947 50.1105 44.3179 50.7144 43.2863 51.8458C42.2425 52.9906 41.8276 54.4933 42.0649 55.9973C42.1504 56.5391 42.3672 57.0115 42.5407 57.3388C42.7297 57.6955 42.9604 58.0502 43.1986 58.3843C43.6754 59.053 44.2813 59.7761 44.9099 60.4752C46.1722 61.8794 47.6672 63.3429 48.7707 64.3516C49.2577 64.7968 49.8814 65.0113 50.5 64.9995C51.1186 65.0113 51.7423 64.7968 52.2293 64.3516C53.3328 63.3429 54.8278 61.8794 56.0901 60.4752C56.7187 59.7761 57.3246 59.053 57.8014 58.3843C58.0396 58.0502 58.2703 57.6955 58.4593 57.3388C58.6328 57.0115 58.8496 56.5391 58.9351 55.9973C59.1724 54.4933 58.7575 52.9906 57.7137 51.8458C56.6821 50.7144 55.2053 50.1105 53.6135 50.0135C52.3918 49.939 51.3443 50.1796 50.5 50.5779Z"
            fill="url(#paint2_radial_1958_2115)" />
    </g>
    <defs>
        <filter id="filter0_f_1958_2115" x="38" y="46" width="25" height="23" filterUnits="userSpaceOnUse"
            color-interpolation-filters="sRGB">
            <feFlood flood-opacity="0" result="BackgroundImageFix" />
            <feBlend mode="normal" in="SourceGraphic" in2="BackgroundImageFix" result="shape" />
            <feGaussianBlur stdDeviation="2" result="effect1_foregroundBlur_1958_2115" />
        </filter>
        <linearGradient id="paint0_linear_1958_2115" x1="50.5" y1="27" x2="50.5" y2="84" gradientUnits="userSpaceOnUse">
            <stop stop-color="#7E9ADF" />
            <stop offset="1" stop-color="#3A5494" />
        </linearGradient>
        <radialGradient id="paint1_radial_1958_2115" cx="0" cy="0" r="1" gradientUnits="userSpaceOnUse"
            gradientTransform="translate(50.5 57.5) rotate(90) scale(7.5 8.5)">
            <stop offset="0.65625" stop-color="#EC6039" />
            <stop offset="1" stop-color="#CB6346" />
        </radialGradient>
        <radialGradient id="paint2_radial_1958_2115" cx="0" cy="0" r="1" gradientUnits="userSpaceOnUse"
            gradientTransform="translate(50.5 57.5) rotate(90) scale(7.5 8.5)">
            <stop offset="0.65625" stop-color="#EC6039" />
            <stop offset="1" stop-color="#CB6346" />
        </radialGradient>
        <clipPath id="clip0_1958_2115">
            <rect width="100" height="100" fill="white" />
        </clipPath>
    </defs>
</svg>