<svg width="100" height="100" viewBox="0 0 100 100" fill="none" xmlns="http://www.w3.org/2000/svg">
    <g clip-path="url(#clip0_1958_2123)">
        <g clip-path="url(#clip1_1958_2123)">
            <path
                d="M64.5 24.9998C67 25.0007 71.6667 41.6665 70.5 49.4998H28C29.5 41.3331 34.5 26.5007 38.5 24.9998C42.9941 23.3135 49.1667 28.9998 51.5 30.9998C52.6667 28.6665 56.858 24.997 64.5 24.9998Z"
                fill="#4F4124" />
            <path
                d="M22 49.4998H28M78 49.4998H70.5M70.5 49.4998C71.6667 41.6665 67 25.0007 64.5 24.9998C56.858 24.997 52.6667 28.6665 51.5 30.9998M70.5 49.4998H28M51.5 30.9998L53.5 32.4989M51.5 30.9998C49.1667 28.9998 42.9941 23.3135 38.5 24.9998C34.5 26.5007 29.5 41.3331 28 49.4998"
                stroke="#8A8883" stroke-width="6" stroke-linecap="round" />
            <path d="M42 64C42 64 43.6 62 50 62C56.4 62 58 64 58 64" stroke="#8A8883" stroke-width="2"
                stroke-linecap="round" stroke-linejoin="round" />
            <path fill-rule="evenodd" clip-rule="evenodd"
                d="M16.5 14C14.8431 14 13.5 15.3431 13.5 17V28.5C13.5 30.1569 14.8431 31.5 16.5 31.5C18.1569 31.5 19.5 30.1569 19.5 28.5V20H28C29.6569 20 31 18.6569 31 17C31 15.3431 29.6569 14 28 14H16.5ZM14 81.5C14 83.1569 15.3431 84.5 17 84.5H28.5C30.1569 84.5 31.5 83.1569 31.5 81.5C31.5 79.8431 30.1569 78.5 28.5 78.5H20V70C20 68.3431 18.6569 67 17 67C15.3431 67 14 68.3431 14 70V81.5ZM85 17C85 15.3431 83.6569 14 82 14H70.5C68.8431 14 67.5 15.3431 67.5 17C67.5 18.6569 68.8431 20 70.5 20H79V28.5C79 30.1569 80.3431 31.5 82 31.5C83.6569 31.5 85 30.1569 85 28.5V17ZM84.5 81.5C84.5 83.1569 83.1569 84.5 81.5 84.5H70C68.3431 84.5 67 83.1569 67 81.5C67 79.8431 68.3431 78.5 70 78.5H78.5V70C78.5 68.3431 79.8431 67 81.5 67C83.1569 67 84.5 68.3431 84.5 70V81.5Z"
                fill="#B9B8B5" />
            <g filter="url(#filter0_f_1958_2123)">
                <path fill-rule="evenodd" clip-rule="evenodd"
                    d="M37.9427 57.6236C37.0544 57.1938 35.9524 56.9342 34.6671 57.0145C32.9924 57.1192 31.4386 57.7709 30.3533 58.9918C29.2551 60.227 28.8186 61.8486 29.0683 63.4714C29.1582 64.0562 29.3863 64.5659 29.5688 64.919C29.7677 65.3039 30.0104 65.6867 30.261 66.0472C30.7627 66.7688 31.4001 67.549 32.0614 68.3035C33.3895 69.8187 34.9623 71.3979 36.1233 72.4863C36.6357 72.9667 37.2919 73.1982 37.9427 73.1855C38.5935 73.1982 39.2497 72.9667 39.7621 72.4863C40.923 71.3979 42.4958 69.8187 43.824 68.3035C44.4853 67.549 45.1227 66.7688 45.6244 66.0472C45.875 65.6867 46.1177 65.3039 46.3166 64.919C46.4991 64.5659 46.7272 64.0562 46.8171 63.4714C47.0668 61.8486 46.6303 60.227 45.5321 58.9918C44.4468 57.7709 42.893 57.1192 41.2183 57.0145C39.933 56.9342 38.831 57.1938 37.9427 57.6236Z"
                    fill="url(#paint0_radial_1958_2123)" fill-opacity="0.8" />
            </g>
            <path fill-rule="evenodd" clip-rule="evenodd"
                d="M37.9427 57.6236C37.0544 57.1938 35.9524 56.9342 34.6671 57.0145C32.9924 57.1192 31.4386 57.7709 30.3533 58.9918C29.2551 60.227 28.8186 61.8486 29.0683 63.4714C29.1582 64.0562 29.3863 64.5659 29.5688 64.919C29.7677 65.3039 30.0104 65.6867 30.261 66.0472C30.7627 66.7688 31.4001 67.549 32.0614 68.3035C33.3895 69.8187 34.9623 71.3979 36.1233 72.4863C36.6357 72.9667 37.2919 73.1982 37.9427 73.1855C38.5935 73.1982 39.2497 72.9667 39.7621 72.4863C40.923 71.3979 42.4958 69.8187 43.824 68.3035C44.4853 67.549 45.1227 66.7688 45.6244 66.0472C45.875 65.6867 46.1177 65.3039 46.3166 64.919C46.4991 64.5659 46.7272 64.0562 46.8171 63.4714C47.0668 61.8486 46.6303 60.227 45.5321 58.9918C44.4468 57.7709 42.893 57.1192 41.2183 57.0145C39.933 56.9342 38.831 57.1938 37.9427 57.6236Z"
                fill="url(#paint1_radial_1958_2123)" />
            <g filter="url(#filter1_f_1958_2123)">
                <path fill-rule="evenodd" clip-rule="evenodd"
                    d="M62.9427 57.6236C62.0544 57.1938 60.9524 56.9342 59.6671 57.0145C57.9924 57.1192 56.4386 57.7709 55.3533 58.9918C54.2551 60.227 53.8186 61.8486 54.0683 63.4714C54.1582 64.0562 54.3863 64.5659 54.5688 64.919C54.7677 65.3039 55.0104 65.6867 55.261 66.0472C55.7627 66.7688 56.4001 67.549 57.0614 68.3035C58.3895 69.8187 59.9623 71.3979 61.1233 72.4863C61.6357 72.9667 62.2919 73.1982 62.9427 73.1855C63.5935 73.1982 64.2497 72.9667 64.7621 72.4863C65.923 71.3979 67.4958 69.8187 68.824 68.3035C69.4853 67.549 70.1227 66.7688 70.6244 66.0472C70.875 65.6867 71.1177 65.3039 71.3166 64.919C71.4991 64.5659 71.7272 64.0562 71.8171 63.4714C72.0668 61.8486 71.6303 60.227 70.5321 58.9918C69.4468 57.7709 67.893 57.1192 66.2183 57.0145C64.933 56.9342 63.831 57.1938 62.9427 57.6236Z"
                    fill="url(#paint2_radial_1958_2123)" fill-opacity="0.8" />
            </g>
            <path fill-rule="evenodd" clip-rule="evenodd"
                d="M62.9427 57.6236C62.0544 57.1938 60.9524 56.9342 59.6671 57.0145C57.9924 57.1192 56.4386 57.7709 55.3533 58.9918C54.2551 60.227 53.8186 61.8486 54.0683 63.4714C54.1582 64.0562 54.3863 64.5659 54.5688 64.919C54.7677 65.3039 55.0104 65.6867 55.261 66.0472C55.7627 66.7688 56.4001 67.549 57.0614 68.3035C58.3895 69.8187 59.9623 71.3979 61.1233 72.4863C61.6357 72.9667 62.2919 73.1982 62.9427 73.1855C63.5935 73.1982 64.2497 72.9667 64.7621 72.4863C65.923 71.3979 67.4958 69.8187 68.824 68.3035C69.4853 67.549 70.1227 66.7688 70.6244 66.0472C70.875 65.6867 71.1177 65.3039 71.3166 64.919C71.4991 64.5659 71.7272 64.0562 71.8171 63.4714C72.0668 61.8486 71.6303 60.227 70.5321 58.9918C69.4468 57.7709 67.893 57.1192 66.2183 57.0145C64.933 56.9342 63.831 57.1938 62.9427 57.6236Z"
                fill="url(#paint3_radial_1958_2123)" />
        </g>
    </g>
    <defs>
        <filter id="filter0_f_1958_2123" x="25" y="53" width="25.8867" height="24.186" filterUnits="userSpaceOnUse"
            color-interpolation-filters="sRGB">
            <feFlood flood-opacity="0" result="BackgroundImageFix" />
            <feBlend mode="normal" in="SourceGraphic" in2="BackgroundImageFix" result="shape" />
            <feGaussianBlur stdDeviation="2" result="effect1_foregroundBlur_1958_2123" />
        </filter>
        <filter id="filter1_f_1958_2123" x="50" y="53" width="25.8867" height="24.186" filterUnits="userSpaceOnUse"
            color-interpolation-filters="sRGB">
            <feFlood flood-opacity="0" result="BackgroundImageFix" />
            <feBlend mode="normal" in="SourceGraphic" in2="BackgroundImageFix" result="shape" />
            <feGaussianBlur stdDeviation="2" result="effect1_foregroundBlur_1958_2123" />
        </filter>
        <radialGradient id="paint0_radial_1958_2123" cx="0" cy="0" r="1" gradientUnits="userSpaceOnUse"
            gradientTransform="translate(37.9427 65.093) rotate(90) scale(8.09299 8.9427)">
            <stop offset="0.65625" stop-color="#EC6039" />
            <stop offset="1" stop-color="#CB6346" />
        </radialGradient>
        <radialGradient id="paint1_radial_1958_2123" cx="0" cy="0" r="1" gradientUnits="userSpaceOnUse"
            gradientTransform="translate(37.9427 65.093) rotate(90) scale(8.09299 8.9427)">
            <stop offset="0.65625" stop-color="#EC6039" />
            <stop offset="1" stop-color="#CB6346" />
        </radialGradient>
        <radialGradient id="paint2_radial_1958_2123" cx="0" cy="0" r="1" gradientUnits="userSpaceOnUse"
            gradientTransform="translate(62.9427 65.093) rotate(90) scale(8.09299 8.9427)">
            <stop offset="0.65625" stop-color="#EC6039" />
            <stop offset="1" stop-color="#CB6346" />
        </radialGradient>
        <radialGradient id="paint3_radial_1958_2123" cx="0" cy="0" r="1" gradientUnits="userSpaceOnUse"
            gradientTransform="translate(62.9427 65.093) rotate(90) scale(8.09299 8.9427)">
            <stop offset="0.65625" stop-color="#EC6039" />
            <stop offset="1" stop-color="#CB6346" />
        </radialGradient>
        <clipPath id="clip0_1958_2123">
            <rect width="100" height="100" fill="white" />
        </clipPath>
        <clipPath id="clip1_1958_2123">
            <rect width="100" height="100" fill="white" />
        </clipPath>
    </defs>
</svg>