<svg width="100" height="100" viewBox="0 0 100 100" fill="none" xmlns="http://www.w3.org/2000/svg">
    <path
        d="M90 90L50 10M90 90H43M90 90V57M10 35V90H37.5M10 35V10H50M10 35L37.5 90M10 35L80 10M37.5 90H43M50 10H68.5M80 10H90V57M80 10H68.5M43 90L90 57M90 57L68.5 10"
        stroke="url(#paint0_linear_2015_632)" stroke-width="6" stroke-linecap="round" stroke-linejoin="round" />
    <g filter="url(#filter0_f_2015_632)">
        <path fill-rule="evenodd" clip-rule="evenodd"
            d="M21 20.1926C20.702 20.0599 20.3323 19.9797 19.9011 20.0045C19.3393 20.0368 18.8181 20.2381 18.454 20.6153C18.0856 20.9969 17.9391 21.4978 18.0229 21.9991C18.0531 22.1797 18.1296 22.3372 18.1908 22.4463C18.2575 22.5652 18.339 22.6834 18.423 22.7948C18.5913 23.0177 18.8052 23.2587 19.027 23.4917C19.4726 23.9598 20.0002 24.4476 20.3896 24.7839C20.5615 24.9323 20.7817 25.0038 21 24.9998C21.2183 25.0038 21.4385 24.9323 21.6104 24.7839C21.9998 24.4476 22.5274 23.9598 22.973 23.4917C23.1948 23.2587 23.4087 23.0177 23.577 22.7948C23.661 22.6834 23.7425 22.5652 23.8092 22.4463C23.8704 22.3372 23.9469 22.1797 23.9771 21.9991C24.0609 21.4978 23.9144 20.9969 23.546 20.6153C23.1819 20.2381 22.6607 20.0368 22.0989 20.0045C21.6677 19.9797 21.298 20.0599 21 20.1926Z"
            fill="url(#paint1_radial_2015_632)" fill-opacity="0.8" />
    </g>
    <path fill-rule="evenodd" clip-rule="evenodd"
        d="M21 20.1926C20.702 20.0599 20.3323 19.9797 19.9011 20.0045C19.3393 20.0368 18.8181 20.2381 18.454 20.6153C18.0856 20.9969 17.9391 21.4978 18.0229 21.9991C18.0531 22.1797 18.1296 22.3372 18.1908 22.4463C18.2575 22.5652 18.339 22.6834 18.423 22.7948C18.5913 23.0177 18.8052 23.2587 19.027 23.4917C19.4726 23.9598 20.0002 24.4476 20.3896 24.7839C20.5615 24.9323 20.7817 25.0038 21 24.9998C21.2183 25.0038 21.4385 24.9323 21.6104 24.7839C21.9998 24.4476 22.5274 23.9598 22.973 23.4917C23.1948 23.2587 23.4087 23.0177 23.577 22.7948C23.661 22.6834 23.7425 22.5652 23.8092 22.4463C23.8704 22.3372 23.9469 22.1797 23.9771 21.9991C24.0609 21.4978 23.9144 20.9969 23.546 20.6153C23.1819 20.2381 22.6607 20.0368 22.0989 20.0045C21.6677 19.9797 21.298 20.0599 21 20.1926Z"
        fill="url(#paint2_radial_2015_632)" />
    <g filter="url(#filter1_f_2015_632)">
        <path fill-rule="evenodd" clip-rule="evenodd"
            d="M80 50.1926C79.702 50.0599 79.3323 49.9797 78.9011 50.0045C78.3393 50.0368 77.8181 50.2381 77.454 50.6153C77.0856 50.9969 76.9391 51.4978 77.0229 51.9991C77.0531 52.1797 77.1296 52.3372 77.1908 52.4463C77.2575 52.5652 77.339 52.6834 77.423 52.7948C77.5913 53.0177 77.8052 53.2587 78.027 53.4917C78.4726 53.9598 79.0002 54.4476 79.3896 54.7839C79.5615 54.9323 79.7817 55.0038 80 54.9998C80.2183 55.0038 80.4385 54.9323 80.6104 54.7839C80.9998 54.4476 81.5274 53.9598 81.973 53.4917C82.1948 53.2587 82.4087 53.0177 82.577 52.7948C82.661 52.6834 82.7425 52.5652 82.8092 52.4463C82.8704 52.3372 82.9469 52.1797 82.9771 51.9991C83.0609 51.4978 82.9144 50.9969 82.546 50.6153C82.1819 50.2381 81.6607 50.0368 81.0989 50.0045C80.6677 49.9797 80.298 50.0599 80 50.1926Z"
            fill="url(#paint3_radial_2015_632)" fill-opacity="0.8" />
    </g>
    <path fill-rule="evenodd" clip-rule="evenodd"
        d="M80 50.1926C79.702 50.0599 79.3323 49.9797 78.9011 50.0045C78.3393 50.0368 77.8181 50.2381 77.454 50.6153C77.0856 50.9969 76.9391 51.4978 77.0229 51.9991C77.0531 52.1797 77.1296 52.3372 77.1908 52.4463C77.2575 52.5652 77.339 52.6834 77.423 52.7948C77.5913 53.0177 77.8052 53.2587 78.027 53.4917C78.4726 53.9598 79.0002 54.4476 79.3896 54.7839C79.5615 54.9323 79.7817 55.0038 80 54.9998C80.2183 55.0038 80.4385 54.9323 80.6104 54.7839C80.9998 54.4476 81.5274 53.9598 81.973 53.4917C82.1948 53.2587 82.4087 53.0177 82.577 52.7948C82.661 52.6834 82.7425 52.5652 82.8092 52.4463C82.8704 52.3372 82.9469 52.1797 82.9771 51.9991C83.0609 51.4978 82.9144 50.9969 82.546 50.6153C82.1819 50.2381 81.6607 50.0368 81.0989 50.0045C80.6677 49.9797 80.298 50.0599 80 50.1926Z"
        fill="url(#paint4_radial_2015_632)" />
    <g filter="url(#filter2_f_2015_632)">
        <path fill-rule="evenodd" clip-rule="evenodd"
            d="M72 79.1926C71.702 79.0599 71.3323 78.9797 70.9011 79.0045C70.3393 79.0368 69.8181 79.2381 69.454 79.6153C69.0856 79.9969 68.9391 80.4978 69.0229 80.9991C69.0531 81.1797 69.1296 81.3372 69.1908 81.4463C69.2575 81.5652 69.339 81.6834 69.423 81.7948C69.5913 82.0177 69.8052 82.2587 70.027 82.4917C70.4726 82.9598 71.0002 83.4476 71.3896 83.7839C71.5615 83.9323 71.7817 84.0038 72 83.9998C72.2183 84.0038 72.4385 83.9323 72.6104 83.7839C72.9998 83.4476 73.5274 82.9598 73.973 82.4917C74.1948 82.2587 74.4087 82.0177 74.577 81.7948C74.661 81.6834 74.7425 81.5652 74.8092 81.4463C74.8704 81.3372 74.9469 81.1797 74.9771 80.9991C75.0609 80.4978 74.9144 79.9969 74.546 79.6153C74.1819 79.2381 73.6607 79.0368 73.0989 79.0045C72.6677 78.9797 72.298 79.0599 72 79.1926Z"
            fill="url(#paint5_radial_2015_632)" fill-opacity="0.8" />
    </g>
    <path fill-rule="evenodd" clip-rule="evenodd"
        d="M72 79.1926C71.702 79.0599 71.3323 78.9797 70.9011 79.0045C70.3393 79.0368 69.8181 79.2381 69.454 79.6153C69.0856 79.9969 68.9391 80.4978 69.0229 80.9991C69.0531 81.1797 69.1296 81.3372 69.1908 81.4463C69.2575 81.5652 69.339 81.6834 69.423 81.7948C69.5913 82.0177 69.8052 82.2587 70.027 82.4917C70.4726 82.9598 71.0002 83.4476 71.3896 83.7839C71.5615 83.9323 71.7817 84.0038 72 83.9998C72.2183 84.0038 72.4385 83.9323 72.6104 83.7839C72.9998 83.4476 73.5274 82.9598 73.973 82.4917C74.1948 82.2587 74.4087 82.0177 74.577 81.7948C74.661 81.6834 74.7425 81.5652 74.8092 81.4463C74.8704 81.3372 74.9469 81.1797 74.9771 80.9991C75.0609 80.4978 74.9144 79.9969 74.546 79.6153C74.1819 79.2381 73.6607 79.0368 73.0989 79.0045C72.6677 78.9797 72.298 79.0599 72 79.1926Z"
        fill="url(#paint6_radial_2015_632)" />
    <path
        d="M49.6538 59C54.0729 59.266 56 60.0387 56 60.9506C56 62.0824 51.0751 63 45 63C38.9249 63 34 62.0824 34 60.9506C34 60.0387 36.7732 59.266 41.1923 59"
        stroke="#6A6A6A" stroke-width="2" stroke-linecap="round" />
    <path
        d="M39 46.7273C39 52.8636 45.4 59 45.4 59C45.4 59 51 52.8636 51 46.7273C51 45.9091 50.2 41 45 41C39.8 41 39 45.5 39 46.7273Z"
        fill="#070707" stroke="url(#paint7_linear_2015_632)" stroke-width="2" stroke-linecap="round"
        stroke-linejoin="round" />
    <g filter="url(#filter3_f_2015_632)">
        <path fill-rule="evenodd" clip-rule="evenodd"
            d="M45 45.1926C44.702 45.0599 44.3323 44.9797 43.9011 45.0045C43.3393 45.0368 42.8181 45.2381 42.454 45.6153C42.0856 45.9969 41.9391 46.4978 42.0229 46.9991C42.0531 47.1797 42.1296 47.3372 42.1908 47.4463C42.2575 47.5652 42.339 47.6834 42.423 47.7948C42.5913 48.0177 42.8052 48.2587 43.027 48.4917C43.4726 48.9598 44.0002 49.4476 44.3896 49.7839C44.5615 49.9323 44.7817 50.0038 45 49.9998C45.2183 50.0038 45.4385 49.9323 45.6104 49.7839C45.9998 49.4476 46.5274 48.9598 46.973 48.4917C47.1948 48.2587 47.4087 48.0177 47.577 47.7948C47.661 47.6834 47.7425 47.5652 47.8092 47.4463C47.8704 47.3372 47.9469 47.1797 47.9771 46.9991C48.0609 46.4978 47.9144 45.9969 47.546 45.6153C47.1819 45.2381 46.6607 45.0368 46.0989 45.0045C45.6677 44.9797 45.298 45.0599 45 45.1926Z"
            fill="url(#paint8_radial_2015_632)" fill-opacity="0.8" />
    </g>
    <path fill-rule="evenodd" clip-rule="evenodd"
        d="M45 45.1926C44.702 45.0599 44.3323 44.9797 43.9011 45.0045C43.3393 45.0368 42.8181 45.2381 42.454 45.6153C42.0856 45.9969 41.9391 46.4978 42.0229 46.9991C42.0531 47.1797 42.1296 47.3372 42.1908 47.4463C42.2575 47.5652 42.339 47.6834 42.423 47.7948C42.5913 48.0177 42.8052 48.2587 43.027 48.4917C43.4726 48.9598 44.0002 49.4476 44.3896 49.7839C44.5615 49.9323 44.7817 50.0038 45 49.9998C45.2183 50.0038 45.4385 49.9323 45.6104 49.7839C45.9998 49.4476 46.5274 48.9598 46.973 48.4917C47.1948 48.2587 47.4087 48.0177 47.577 47.7948C47.661 47.6834 47.7425 47.5652 47.8092 47.4463C47.8704 47.3372 47.9469 47.1797 47.9771 46.9991C48.0609 46.4978 47.9144 45.9969 47.546 45.6153C47.1819 45.2381 46.6607 45.0368 46.0989 45.0045C45.6677 44.9797 45.298 45.0599 45 45.1926Z"
        fill="url(#paint9_radial_2015_632)" />
    <defs>
        <filter id="filter0_f_2015_632" x="14" y="16" width="14" height="13" filterUnits="userSpaceOnUse"
            color-interpolation-filters="sRGB">
            <feFlood flood-opacity="0" result="BackgroundImageFix" />
            <feBlend mode="normal" in="SourceGraphic" in2="BackgroundImageFix" result="shape" />
            <feGaussianBlur stdDeviation="2" result="effect1_foregroundBlur_2015_632" />
        </filter>
        <filter id="filter1_f_2015_632" x="73" y="46" width="14" height="13" filterUnits="userSpaceOnUse"
            color-interpolation-filters="sRGB">
            <feFlood flood-opacity="0" result="BackgroundImageFix" />
            <feBlend mode="normal" in="SourceGraphic" in2="BackgroundImageFix" result="shape" />
            <feGaussianBlur stdDeviation="2" result="effect1_foregroundBlur_2015_632" />
        </filter>
        <filter id="filter2_f_2015_632" x="65" y="75" width="14" height="13" filterUnits="userSpaceOnUse"
            color-interpolation-filters="sRGB">
            <feFlood flood-opacity="0" result="BackgroundImageFix" />
            <feBlend mode="normal" in="SourceGraphic" in2="BackgroundImageFix" result="shape" />
            <feGaussianBlur stdDeviation="2" result="effect1_foregroundBlur_2015_632" />
        </filter>
        <filter id="filter3_f_2015_632" x="38" y="41" width="14" height="13" filterUnits="userSpaceOnUse"
            color-interpolation-filters="sRGB">
            <feFlood flood-opacity="0" result="BackgroundImageFix" />
            <feBlend mode="normal" in="SourceGraphic" in2="BackgroundImageFix" result="shape" />
            <feGaussianBlur stdDeviation="2" result="effect1_foregroundBlur_2015_632" />
        </filter>
        <linearGradient id="paint0_linear_2015_632" x1="50" y1="10" x2="50" y2="90" gradientUnits="userSpaceOnUse">
            <stop stop-color="#C1E2CF" />
            <stop offset="1" stop-color="#2F4438" />
        </linearGradient>
        <radialGradient id="paint1_radial_2015_632" cx="0" cy="0" r="1" gradientUnits="userSpaceOnUse"
            gradientTransform="translate(21 22.5) rotate(90) scale(2.5 3)">
            <stop offset="0.65625" stop-color="#EC6039" />
            <stop offset="1" stop-color="#CB6346" />
        </radialGradient>
        <radialGradient id="paint2_radial_2015_632" cx="0" cy="0" r="1" gradientUnits="userSpaceOnUse"
            gradientTransform="translate(21 22.5) rotate(90) scale(2.5 3)">
            <stop offset="0.65625" stop-color="#EC6039" />
            <stop offset="1" stop-color="#CB6346" />
        </radialGradient>
        <radialGradient id="paint3_radial_2015_632" cx="0" cy="0" r="1" gradientUnits="userSpaceOnUse"
            gradientTransform="translate(80 52.5) rotate(90) scale(2.5 3)">
            <stop offset="0.65625" stop-color="#EC6039" />
            <stop offset="1" stop-color="#CB6346" />
        </radialGradient>
        <radialGradient id="paint4_radial_2015_632" cx="0" cy="0" r="1" gradientUnits="userSpaceOnUse"
            gradientTransform="translate(80 52.5) rotate(90) scale(2.5 3)">
            <stop offset="0.65625" stop-color="#EC6039" />
            <stop offset="1" stop-color="#CB6346" />
        </radialGradient>
        <radialGradient id="paint5_radial_2015_632" cx="0" cy="0" r="1" gradientUnits="userSpaceOnUse"
            gradientTransform="translate(72 81.5) rotate(90) scale(2.5 3)">
            <stop offset="0.65625" stop-color="#EC6039" />
            <stop offset="1" stop-color="#CB6346" />
        </radialGradient>
        <radialGradient id="paint6_radial_2015_632" cx="0" cy="0" r="1" gradientUnits="userSpaceOnUse"
            gradientTransform="translate(72 81.5) rotate(90) scale(2.5 3)">
            <stop offset="0.65625" stop-color="#EC6039" />
            <stop offset="1" stop-color="#CB6346" />
        </radialGradient>
        <linearGradient id="paint7_linear_2015_632" x1="62" y1="28.3182" x2="62" y2="59.01"
            gradientUnits="userSpaceOnUse">
            <stop stop-color="#FEF6EA" />
            <stop offset="0.0001" stop-color="white" />
            <stop offset="1" stop-color="#646464" />
        </linearGradient>
        <radialGradient id="paint8_radial_2015_632" cx="0" cy="0" r="1" gradientUnits="userSpaceOnUse"
            gradientTransform="translate(45 47.5) rotate(90) scale(2.5 3)">
            <stop offset="0.65625" stop-color="#EC6039" />
            <stop offset="1" stop-color="#CB6346" />
        </radialGradient>
        <radialGradient id="paint9_radial_2015_632" cx="0" cy="0" r="1" gradientUnits="userSpaceOnUse"
            gradientTransform="translate(45 47.5) rotate(90) scale(2.5 3)">
            <stop offset="0.65625" stop-color="#EC6039" />
            <stop offset="1" stop-color="#CB6346" />
        </radialGradient>
    </defs>
</svg>