<svg width="100" height="100" viewBox="0 0 100 100" fill="none" xmlns="http://www.w3.org/2000/svg">
    <path
        d="M19.384 36.6797L17.0406 17.2581C16.9744 16.7098 17.3653 16.2117 17.9136 16.1455L72.0211 9.61695C72.5695 9.55079 73.0676 9.94165 73.1337 10.49L75.4771 29.9116C75.5433 30.4599 76.0414 30.8508 76.5897 30.7846L87.0141 29.5268C87.5624 29.4606 88.0605 29.8515 88.1267 30.3998L94.2884 81.4669C94.3546 82.0152 93.9637 82.5134 93.4154 82.5795L64.1278 86.1133L45.2647 88.3893L15.9771 91.9232C15.4288 91.9893 14.9306 91.5985 14.8645 91.0502L8.70277 39.983C8.63661 39.4347 9.02747 38.9366 9.57578 38.8705L18.511 37.7923C19.0593 37.7262 19.4501 37.2281 19.384 36.6797Z"
        fill="#773D39" />
    <path
        d="M45.2647 88.3893L15.9771 91.9232C15.4288 91.9893 14.9306 91.5985 14.8645 91.0502L8.70277 39.983C8.63661 39.4347 9.02747 38.9366 9.57578 38.8705L18.511 37.7923C19.0593 37.7262 19.4501 37.2281 19.384 36.6797L17.0406 17.2581C16.9744 16.7098 17.3653 16.2117 17.9136 16.1455L72.0211 9.61695C72.5695 9.55079 73.0676 9.94165 73.1337 10.49L75.4771 29.9116C75.5433 30.4599 76.0414 30.8508 76.5897 30.7846L87.0141 29.5268C87.5624 29.4606 88.0605 29.8515 88.1267 30.3998L94.2884 81.4669C94.3546 82.0152 93.9637 82.5134 93.4154 82.5795L64.1278 86.1133M45.2647 88.3893L42.5769 66.1134C42.5107 65.5651 42.9016 65.067 43.4499 65.0008L60.3275 62.9644C60.8758 62.8982 61.3739 63.2891 61.44 63.8374L64.1278 86.1133M45.2647 88.3893L64.1278 86.1133"
        stroke="url(#paint0_linear_2014_605)" stroke-width="6" stroke-linecap="round" />
    <path fill-rule="evenodd" clip-rule="evenodd"
        d="M43.1748 23.9016L44.0133 30.8512L37.0637 31.6898C35.9671 31.8221 35.1854 32.8183 35.3177 33.9149L35.6771 36.8933C35.8094 37.9899 36.8056 38.7717 37.9022 38.6393L44.8518 37.8008L45.6904 44.7504C45.8227 45.847 46.8189 46.6287 47.9155 46.4964L50.8939 46.1371C51.9906 46.0047 52.7723 45.0085 52.64 43.9119L51.8014 36.9623L58.751 36.1238C59.8476 35.9914 60.6294 34.9952 60.497 33.8986L60.1377 30.9202C60.0054 29.8236 59.0091 29.0418 57.9125 29.1742L50.9629 30.0127L50.1244 23.0631C49.9921 21.9665 48.9958 21.1848 47.8992 21.3171L44.9208 21.6764C43.8242 21.8088 43.0425 22.805 43.1748 23.9016ZM48.0679 23.3112L45.2313 23.6535L46.3094 32.5887L37.7997 33.6155L38.1591 36.5939L46.6688 35.5671L47.7469 44.5023L50.5835 44.16L49.5053 35.2248L58.015 34.198L57.6557 31.2197L49.146 32.2464L48.0679 23.3112Z"
        fill="#FFEDE1" />
    <defs>
        <linearGradient id="paint0_linear_2014_605" x1="45.712" y1="12.7914" x2="54.6962" y2="87.2513"
            gradientUnits="userSpaceOnUse">
            <stop stop-color="#FEF6EA" />
            <stop offset="1" stop-color="#FF9F99" />
        </linearGradient>
    </defs>
</svg>