<svg width="100" height="100" viewBox="0 0 100 100" fill="none" xmlns="http://www.w3.org/2000/svg">
    <path
        d="M11.3664 40.0917L46.7095 18.3208C47.0291 18.1239 47.4321 18.1226 47.753 18.3174L85 40.9333L72.5899 48.6438V68.0626C72.5899 68.4341 72.3841 68.7749 72.0553 68.9478L47.7113 81.7471C47.4113 81.9048 47.0518 81.8998 46.7563 81.7338L23.9995 68.9533C23.6843 68.7763 23.4892 68.4429 23.4892 68.0814V49.4357L11.3576 41.7891C10.7315 41.3944 10.7362 40.4799 11.3664 40.0917Z"
        fill="#031E5C" />
    <path
        d="M85 40.9333L47.753 18.3174C47.4321 18.1226 47.0291 18.1239 46.7095 18.3208L11.3664 40.0917C10.7362 40.4799 10.7315 41.3944 11.3576 41.7891L23.4892 49.4357M85 40.9333L72.5899 48.6438M85 40.9333V60.6667M23.4892 49.4357L46.7008 64.0663C47.0247 64.2704 47.4366 64.2718 47.7618 64.0697L72.5899 48.6438M23.4892 49.4357V68.0814C23.4892 68.4429 23.6843 68.7763 23.9995 68.9533L46.7563 81.7338C47.0518 81.8998 47.4113 81.9048 47.7113 81.747L72.0553 68.9478C72.3841 68.7749 72.5899 68.4341 72.5899 68.0626V48.6438"
        stroke="url(#paint0_linear_1958_2307)" stroke-width="6" stroke-linecap="round" />
    <g filter="url(#filter0_f_1958_2307)">
        <path fill-rule="evenodd" clip-rule="evenodd"
            d="M85.5 65.3082C85.053 65.0958 84.4985 64.9675 83.8517 65.0072C83.009 65.0589 82.2271 65.381 81.681 65.9844C81.1284 66.595 80.9087 67.3964 81.0344 68.1985C81.0796 68.4875 81.1944 68.7395 81.2862 68.914C81.3863 69.1042 81.5084 69.2934 81.6346 69.4716C81.887 69.8283 82.2078 70.2139 82.5405 70.5868C83.2088 71.3357 84.0003 72.1162 84.5845 72.6542C84.8423 72.8916 85.1725 73.006 85.5 72.9998C85.8275 73.006 86.1577 72.8916 86.4155 72.6542C86.9997 72.1162 87.7912 71.3357 88.4595 70.5868C88.7922 70.2139 89.113 69.8283 89.3654 69.4716C89.4916 69.2934 89.6137 69.1042 89.7138 68.914C89.8056 68.7395 89.9204 68.4875 89.9656 68.1985C90.0913 67.3964 89.8716 66.595 89.319 65.9844C88.7729 65.381 87.991 65.0589 87.1483 65.0072C86.5015 64.9675 85.947 65.0958 85.5 65.3082Z"
            fill="url(#paint1_radial_1958_2307)" fill-opacity="0.8" />
    </g>
    <path fill-rule="evenodd" clip-rule="evenodd"
        d="M85.5 65.3082C85.053 65.0958 84.4985 64.9675 83.8517 65.0072C83.009 65.0589 82.2271 65.381 81.681 65.9844C81.1284 66.595 80.9087 67.3964 81.0344 68.1985C81.0796 68.4875 81.1944 68.7395 81.2862 68.914C81.3863 69.1042 81.5084 69.2934 81.6346 69.4716C81.887 69.8283 82.2078 70.2139 82.5405 70.5868C83.2088 71.3357 84.0003 72.1162 84.5845 72.6542C84.8423 72.8916 85.1725 73.006 85.5 72.9998C85.8275 73.006 86.1577 72.8916 86.4155 72.6542C86.9997 72.1162 87.7912 71.3357 88.4595 70.5868C88.7922 70.2139 89.113 69.8283 89.3654 69.4716C89.4916 69.2934 89.6137 69.1042 89.7138 68.914C89.8056 68.7395 89.9204 68.4875 89.9656 68.1985C90.0913 67.3964 89.8716 66.595 89.319 65.9844C88.7729 65.381 87.991 65.0589 87.1483 65.0072C86.5015 64.9675 85.947 65.0958 85.5 65.3082Z"
        fill="url(#paint2_radial_1958_2307)" />
    <defs>
        <filter id="filter0_f_1958_2307" x="77" y="61" width="17" height="16" filterUnits="userSpaceOnUse"
            color-interpolation-filters="sRGB">
            <feFlood flood-opacity="0" result="BackgroundImageFix" />
            <feBlend mode="normal" in="SourceGraphic" in2="BackgroundImageFix" result="shape" />
            <feGaussianBlur stdDeviation="2" result="effect1_foregroundBlur_1958_2307" />
        </filter>
        <linearGradient id="paint0_linear_1958_2307" x1="47.5" y1="18" x2="47.5" y2="82" gradientUnits="userSpaceOnUse">
            <stop stop-color="#285BDA" />
            <stop offset="1" stop-color="#3A5494" />
        </linearGradient>
        <radialGradient id="paint1_radial_1958_2307" cx="0" cy="0" r="1" gradientUnits="userSpaceOnUse"
            gradientTransform="translate(85.5 69) rotate(90) scale(4 4.5)">
            <stop offset="0.65625" stop-color="#EC6039" />
            <stop offset="1" stop-color="#CB6346" />
        </radialGradient>
        <radialGradient id="paint2_radial_1958_2307" cx="0" cy="0" r="1" gradientUnits="userSpaceOnUse"
            gradientTransform="translate(85.5 69) rotate(90) scale(4 4.5)">
            <stop offset="0.65625" stop-color="#EC6039" />
            <stop offset="1" stop-color="#CB6346" />
        </radialGradient>
    </defs>
</svg>