<svg width="100" height="100" viewBox="0 0 100 100" fill="none" xmlns="http://www.w3.org/2000/svg">
    <path
        d="M23.2579 19C19.9982 19.5964 13.39 22.0418 13.0344 27.0518C12.5899 33.3143 16.5904 36.4456 17.0349 42.7081C17.4794 48.9706 15.2572 67.3108 29.4812 67.3108M29.4812 67.3108C43.7052 67.3108 42.3717 48.5232 42.3717 42.7081C42.3717 36.8929 47.2612 32.4197 46.8167 27.0518C46.4611 22.7575 39.8529 19.8946 36.5932 19M29.4812 67.3108C29.4812 87 30 87 44 87C58 87 53.5 80.9456 53.5 63.5C53.5 46.0544 54 37.5 62 37.5M62 37.5L64.3415 35.4512C64.9881 34.8854 66 35.3446 66 36.2038V38.6242C66 39.4632 65.0289 39.9292 64.3743 39.4043L62 37.5Z"
        stroke="url(#paint0_linear_1958_2206)" stroke-width="6" stroke-linecap="round" />
    <path fill-rule="evenodd" clip-rule="evenodd"
        d="M82.371 30.7232C81.3408 30.2247 80.0629 29.9237 78.5722 30.0169C76.63 30.1382 74.8281 30.894 73.5694 32.3099C72.2959 33.7425 71.7896 35.623 72.0792 37.5051C72.1835 38.1832 72.448 38.7743 72.6597 39.1839C72.8903 39.6302 73.1718 40.0741 73.4624 40.4922C74.0442 41.3291 74.7835 42.234 75.5504 43.1089C77.0907 44.8661 78.9147 46.6975 80.261 47.9598C80.8553 48.5169 81.6163 48.7854 82.371 48.7707C83.1258 48.7854 83.8868 48.5169 84.481 47.9598C85.8274 46.6975 87.6514 44.8661 89.1917 43.1089C89.9586 42.234 90.6979 41.3291 91.2797 40.4922C91.5703 40.0741 91.8518 39.6302 92.0824 39.1839C92.2941 38.7743 92.5586 38.1832 92.6629 37.5051C92.9525 35.623 92.4462 33.7425 91.1727 32.3099C89.914 30.894 88.1121 30.1382 86.1699 30.0169C84.6792 29.9237 83.4013 30.2247 82.371 30.7232Z"
        fill="url(#paint1_radial_1958_2206)" />
    <defs>
        <linearGradient id="paint0_linear_1958_2206" x1="39.5" y1="19" x2="39.5" y2="87" gradientUnits="userSpaceOnUse">
            <stop stop-color="#C3C6CE" />
            <stop offset="1" stop-color="#60636B" />
        </linearGradient>
        <radialGradient id="paint1_radial_1958_2206" cx="0" cy="0" r="1" gradientUnits="userSpaceOnUse"
            gradientTransform="translate(82.371 39.3856) rotate(90) scale(9.38563 10.371)">
            <stop offset="0.65625" stop-color="#EC6039" />
            <stop offset="1" stop-color="#CB6346" />
        </radialGradient>
    </defs>
</svg>