<svg width="100" height="100" viewBox="0 0 100 100" fill="none" xmlns="http://www.w3.org/2000/svg">
    <g filter="url(#filter0_f_1958_2146)">
        <path fill-rule="evenodd" clip-rule="evenodd"
            d="M62 27.1066C61.7312 27.0792 61.4597 27.057 61.1857 27.0398C60.0593 26.9694 58.9971 26.9947 58 27.0972V65.9162C59.3179 64.5832 60.6667 63.188 62 61.7698V27.1066ZM65 58.5061C65.4071 58.0524 65.8091 57.5993 66.2044 57.1482C68.503 54.5259 70.6215 51.9223 72.2336 49.6036C73.0394 48.4445 73.7487 47.3139 74.2953 46.256C74.823 45.235 75.2917 44.1075 75.4637 42.9894C76.0917 38.9072 74.9931 34.996 72.3657 32.0404C70.504 29.9462 67.9798 28.445 65 27.6499V58.5061ZM41 27.0431C40.1906 26.9883 39.3406 26.9842 38.4505 27.0398C37.6085 27.0925 36.7906 27.1936 36 27.3415V60.0088C37.6429 61.7988 39.3398 63.5784 41 65.2703V27.0431ZM44 68.2741C45.2708 69.5241 46.4818 70.6867 47.5858 71.7218C48.2121 72.3091 49.0237 72.5756 49.8181 72.5278C50.6125 72.5756 51.4241 72.3091 52.0504 71.7218C52.9687 70.8609 53.9609 69.9118 55 68.8975V27.6766C52.8565 28.2982 51.1255 29.2811 49.8181 30.3383C48.3837 29.1784 46.4395 28.1079 44 27.506V68.2741ZM27.2705 32.0404C28.9982 30.0969 31.2965 28.6641 34 27.8325V57.7928C33.8092 57.5776 33.6197 57.3627 33.4318 57.1482C31.1332 54.5259 29.0147 51.9223 27.4026 49.6036C26.5968 48.4445 25.8875 47.3139 25.3409 46.256C24.8132 45.235 24.3446 44.1075 24.1725 42.9894C23.5445 38.9072 24.6431 34.996 27.2705 32.0404Z"
            fill="url(#paint0_radial_1958_2146)" fill-opacity="0.8" />
    </g>
    <path fill-rule="evenodd" clip-rule="evenodd"
        d="M62 27.1066C61.7312 27.0792 61.4597 27.057 61.1857 27.0398C60.0593 26.9694 58.9971 26.9947 58 27.0972V65.9162C59.3179 64.5832 60.6667 63.188 62 61.7698V27.1066ZM65 58.5061C65.4071 58.0524 65.8091 57.5993 66.2044 57.1482C68.503 54.5259 70.6215 51.9223 72.2336 49.6036C73.0394 48.4445 73.7487 47.3139 74.2953 46.256C74.823 45.235 75.2917 44.1075 75.4637 42.9894C76.0917 38.9072 74.9931 34.996 72.3657 32.0404C70.504 29.9462 67.9798 28.445 65 27.6499V58.5061ZM41 27.0431C40.1906 26.9883 39.3406 26.9842 38.4505 27.0398C37.6085 27.0925 36.7906 27.1936 36 27.3415V60.0088C37.6429 61.7988 39.3398 63.5784 41 65.2703V27.0431ZM44 68.2741C45.2708 69.5241 46.4818 70.6867 47.5858 71.7218C48.2121 72.3091 49.0237 72.5756 49.8181 72.5278C50.6125 72.5756 51.4241 72.3091 52.0504 71.7218C52.9687 70.8609 53.9609 69.9118 55 68.8975V27.6766C52.8565 28.2982 51.1255 29.2811 49.8181 30.3383C48.3837 29.1784 46.4395 28.1079 44 27.506V68.2741ZM27.2705 32.0404C28.9982 30.0969 31.2965 28.6641 34 27.8325V57.7928C33.8092 57.5776 33.6197 57.3627 33.4318 57.1482C31.1332 54.5259 29.0147 51.9223 27.4026 49.6036C26.5968 48.4445 25.8875 47.3139 25.3409 46.256C24.8132 45.235 24.3446 44.1075 24.1725 42.9894C23.5445 38.9072 24.6431 34.996 27.2705 32.0404Z"
        fill="url(#paint1_radial_1958_2146)" />
    <path
        d="M16 16H20.0301M83 16H79.4737M79.4737 16V85M79.4737 16H60.3233M60.3233 16V85M60.3233 16H38.9211M38.9211 16V85M38.9211 16H20.0301M20.0301 16V84C20.0301 84.5523 19.5824 85 19.0301 85H16H83"
        stroke="url(#paint2_linear_1958_2146)" stroke-width="6" stroke-linecap="round" stroke-linejoin="round" />
    <defs>
        <filter id="filter0_f_1958_2146" x="20" y="23" width="59.6367" height="53.5332" filterUnits="userSpaceOnUse"
            color-interpolation-filters="sRGB">
            <feFlood flood-opacity="0" result="BackgroundImageFix" />
            <feBlend mode="normal" in="SourceGraphic" in2="BackgroundImageFix" result="shape" />
            <feGaussianBlur stdDeviation="2" result="effect1_foregroundBlur_1958_2146" />
        </filter>
        <radialGradient id="paint0_radial_1958_2146" cx="0" cy="0" r="1" gradientUnits="userSpaceOnUse"
            gradientTransform="translate(49.8181 49.7666) rotate(90) scale(22.7666 25.8181)">
            <stop offset="0.65625" stop-color="#EC6039" />
            <stop offset="1" stop-color="#CB6346" />
        </radialGradient>
        <radialGradient id="paint1_radial_1958_2146" cx="0" cy="0" r="1" gradientUnits="userSpaceOnUse"
            gradientTransform="translate(49.8181 49.7666) rotate(90) scale(22.7666 25.8181)">
            <stop offset="0.65625" stop-color="#EC6039" />
            <stop offset="1" stop-color="#CB6346" />
        </radialGradient>
        <linearGradient id="paint2_linear_1958_2146" x1="49.5" y1="16" x2="49.5" y2="85" gradientUnits="userSpaceOnUse">
            <stop stop-color="#D2D2D2" />
            <stop offset="1" stop-color="#565656" />
        </linearGradient>
    </defs>
</svg>